SplineFontDB: 3.0
FontName: Alegreya-BlackItalic
FullName: Alegreya Black Italic
FamilyName: Alegreya
Weight: Black
Copyright: Copyright (c) 2011, Juan Pablo del Peral (juan@huertatipografica.com.ar), with Reserved Font Names "Alegreya" "Alegreya SC"
Version: 1.003
ItalicAngle: 0
UnderlinePosition: -59
UnderlineWidth: 56
Ascent: 800
Descent: 200
sfntRevision: 0x000100c5
LayerCount: 2
Layer: 0 1 "Back"  1
Layer: 1 1 "Fore"  0
XUID: [1021 501 210572733 2952917]
FSType: 0
OS2Version: 2
OS2_WeightWidthSlopeOnly: 0
OS2_UseTypoMetrics: 1
CreationTime: 1325707230
ModificationTime: 1325707761
PfmFamily: 17
TTFWeight: 900
TTFWidth: 5
LineGap: 0
VLineGap: 0
Panose: 2 0 5 3 5 0 0 2 0 4
OS2TypoAscent: 216
OS2TypoAOffset: 1
OS2TypoDescent: -145
OS2TypoDOffset: 1
OS2TypoLinegap: 0
OS2WinAscent: 0
OS2WinAOffset: 1
OS2WinDescent: 0
OS2WinDOffset: 1
HheadAscent: 0
HheadAOffset: 1
HheadDescent: 0
HheadDOffset: 1
OS2SubXSize: 700
OS2SubYSize: 650
OS2SubXOff: 0
OS2SubYOff: 140
OS2SupXSize: 700
OS2SupYSize: 650
OS2SupXOff: 0
OS2SupYOff: 477
OS2StrikeYSize: 50
OS2StrikeYPos: 250
OS2FamilyClass: 258
OS2Vendor: 'pyrs'
OS2CodePages: 20000093.00000000
OS2UnicodeRanges: a00000ef.4000204b.00000000.00000000
Lookup: 258 0 0 "'kern' Horizontal Kerning lookup 0"  {"'kern' Horizontal Kerning lookup 0 subtable"  } ['kern' ('DFLT' <'dflt' > ) ]
DEI: 91125
TtTable: prep
PUSHW_1
 511
SCANCTRL
PUSHB_1
 4
SCANTYPE
EndTTInstrs
ShortTable: maxp 16
  1
  0
  501
  87
  7
  0
  0
  2
  0
  1
  1
  0
  64
  0
  0
  0
EndShort
LangName: 1033 "" "" "Black Italic" "FONTLAB:OTFEXPORT" "" "Version 1.003" "" "Alegreya is a trademark of Juan Pablo del Peral" "Juan Pablo del Peral" "Juan Pablo del Peral" "" "www.huertatipografica.com.ar" "www.huertatipografica.com.ar" "This Font Software is licensed under the SIL Open Font License, Version 1.1. This license is available with a FAQ at: http://scripts.sil.org/OFL" "http://scripts.sil.org/OFL" 
GaspTable: 1 65535 15 1
Encoding: UnicodeBmp
UnicodeInterp: none

StartChar: exclam
Encoding: 33 33 4
Width: 275
GlyphClass: 2
Flags: W
LayerCount: 2
Fore
SplineSet
181.5 23.5 m 128,-1,1
 150 -9 150 -9 104 -9 c 0,2,3
 16 -9 16 -9 16 71 c 0,4,5
 16 125 16 125 47.5 157.5 c 128,-1,6
 79 190 79 190 124.5 190 c 128,-1,7
 170 190 170 190 191.5 168.5 c 128,-1,8
 213 147 213 147 213 101.5 c 128,-1,0
 213 56 213 56 181.5 23.5 c 128,-1,1
78 265 m 1,9,-1
 93 667 l 1,10,-1
 114 691 l 1,11,-1
 305 717 l 1,12,-1
 327 691 l 1,13,-1
 202 261 l 1,14,-1
 96 245 l 1,15,-1
 78 265 l 1,9,-1
EndSplineSet
EndChar

StartChar: quotedbl
Encoding: 34 34 5
Width: 338
GlyphClass: 2
Flags: W
LayerCount: 2
Fore
SplineSet
208 659 m 1,0,-1
 215 647 l 1,1,2
 186 538 186 538 147 426 c 1,3,-1
 70 401 l 1,4,-1
 52 407 l 1,5,6
 67 504 67 504 73 645 c 1,7,-1
 208 659 l 1,0,-1
375 659 m 1,8,-1
 382 647 l 1,9,10
 353 538 353 538 314 426 c 1,11,-1
 238 401 l 1,12,-1
 220 407 l 1,13,14
 234 513 234 513 240 645 c 1,15,-1
 375 659 l 1,8,-1
EndSplineSet
EndChar

StartChar: numbersign
Encoding: 35 35 6
Width: 543
GlyphClass: 2
Flags: W
LayerCount: 2
Fore
SplineSet
58 339 m 1,0,-1
 51 352 l 1,1,-1
 77 457 l 1,2,-1
 164 456 l 1,3,-1
 194 573 l 1,4,-1
 304 582 l 1,5,-1
 317 575 l 1,6,-1
 281 456 l 1,7,-1
 358 456 l 1,8,-1
 388 573 l 1,9,-1
 497 582 l 1,10,-1
 510 575 l 1,11,-1
 475 459 l 1,12,-1
 557 462 l 1,13,-1
 562 447 l 1,14,-1
 541 341 l 1,15,-1
 441 340 l 1,16,-1
 420 264 l 1,17,-1
 503 267 l 1,18,-1
 508 252 l 1,19,-1
 487 146 l 1,20,-1
 389 145 l 1,21,-1
 363 45 l 1,22,-1
 255 31 l 1,23,-1
 243 40 l 1,24,-1
 273 145 l 1,25,-1
 195 145 l 1,26,-1
 170 45 l 1,27,-1
 62 31 l 1,28,-1
 50 40 l 1,29,-1
 79 144 l 1,30,-1
 4 144 l 1,31,-1
 -3 157 l 1,32,-1
 23 262 l 1,33,-1
 113 261 l 1,34,-1
 133 339 l 1,35,-1
 58 339 l 1,0,-1
244 324 m 1,36,-1
 227 261 l 1,37,-1
 306 261 l 1,38,-1
 327 340 l 1,39,-1
 247 340 l 1,40,-1
 244 324 l 1,36,-1
EndSplineSet
EndChar

StartChar: dollar
Encoding: 36 36 7
Width: 444
GlyphClass: 2
Flags: W
LayerCount: 2
Fore
SplineSet
164 185 m 0,0,1
 116 204 116 204 85.5 228 c 128,-1,2
 55 252 55 252 44.5 275 c 128,-1,3
 34 298 34 298 34 327 c 0,4,5
 34 398 34 398 86.5 445.5 c 128,-1,6
 139 493 139 493 231 507 c 1,7,-1
 265 644 l 1,8,-1
 384 658 l 1,9,-1
 389 649 l 1,10,-1
 355 511 l 1,11,12
 415 507 415 507 473 491 c 1,13,-1
 482 472 l 1,14,15
 458 406 458 406 443 336 c 1,16,-1
 337 329 l 1,17,-1
 327 336 l 1,18,19
 329 351 329 351 329 352 c 0,20,21
 329 395 329 395 281 395 c 0,22,23
 261 395 261 395 248.5 386.5 c 128,-1,24
 236 378 236 378 236 364 c 0,25,26
 236 342 236 342 292 318 c 1,27,28
 369 287 369 287 394 269 c 0,29,30
 445 230 445 230 445 163 c 128,-1,31
 445 96 445 96 388 50.5 c 128,-1,32
 331 5 331 5 228 -6 c 1,33,-1
 192 -151 l 1,34,-1
 75 -164 l 1,35,-1
 68 -158 l 1,36,-1
 105 -4 l 1,37,38
 46 4 46 4 1 25 c 1,39,-1
 -8 40 l 1,40,41
 18 120 18 120 27 167 c 1,42,-1
 141 175 l 1,43,44
 140 170 140 170 140 156 c 128,-1,45
 140 142 140 142 154 123.5 c 128,-1,46
 168 105 168 105 197 105 c 0,47,48
 243 105 243 105 243 130 c 0,49,50
 243 146 243 146 224.5 157.5 c 128,-1,51
 206 169 206 169 185.5 177 c 128,-1,52
 165 185 165 185 164 185 c 0,0,1
EndSplineSet
EndChar

StartChar: percent
Encoding: 37 37 8
Width: 740
GlyphClass: 2
Flags: W
LayerCount: 2
Fore
SplineSet
178 428 m 0,0,1
 219 428 219 428 236 439.5 c 128,-1,2
 253 451 253 451 253 476 c 0,3,4
 253 517 253 517 181 517 c 0,5,6
 140 517 140 517 123 506 c 128,-1,7
 106 495 106 495 106 469 c 0,8,9
 106 428 106 428 178 428 c 0,0,1
151 290 m 0,10,11
 91 290 91 290 57.5 326.5 c 128,-1,12
 24 363 24 363 24 434 c 0,13,14
 24 541 24 541 76 600 c 128,-1,15
 128 659 128 659 212 659 c 0,16,17
 272 659 272 659 304.5 623 c 128,-1,18
 337 587 337 587 337 516 c 0,19,20
 337 409 337 409 285.5 349.5 c 128,-1,21
 234 290 234 290 151 290 c 0,10,11
577 126 m 0,22,23
 618 126 618 126 635 137.5 c 128,-1,24
 652 149 652 149 652 174 c 0,25,26
 652 215 652 215 580 215 c 0,27,28
 539 215 539 215 522 204 c 128,-1,29
 505 193 505 193 505 167 c 0,30,31
 505 126 505 126 577 126 c 0,22,23
550 -12 m 0,32,33
 490 -12 490 -12 456.5 24.5 c 128,-1,34
 423 61 423 61 423 132 c 0,35,36
 423 239 423 239 475 298 c 128,-1,37
 527 357 527 357 611 357 c 0,38,39
 671 357 671 357 703.5 321 c 128,-1,40
 736 285 736 285 736 214 c 0,41,42
 736 107 736 107 684.5 47.5 c 128,-1,43
 633 -12 633 -12 550 -12 c 0,32,33
623 647 m 1,44,-1
 633 623 l 1,45,46
 454 346 454 346 363 207 c 1,47,-1
 174 -91 l 1,48,-1
 81 -56 l 1,49,-1
 75 -39 l 1,50,51
 186 121 186 121 269 253 c 2,52,-1
 536 679 l 1,53,-1
 623 647 l 1,44,-1
EndSplineSet
EndChar

StartChar: ampersand
Encoding: 38 38 9
Width: 576
GlyphClass: 2
Flags: W
LayerCount: 2
Fore
SplineSet
245.5 513 m 128,-1,1
 225 492 225 492 225 457.5 c 128,-1,2
 225 423 225 423 244.5 400.5 c 128,-1,3
 264 378 264 378 294 378 c 1,4,-1
 528 399 l 2,5,6
 566 402 566 402 595 415.5 c 128,-1,7
 624 429 624 429 669 463 c 1,8,-1
 695 440 l 1,9,-1
 641 332 l 2,10,11
 625 301 625 301 603 288 c 128,-1,12
 581 275 581 275 545 275 c 2,13,-1
 502 275 l 1,14,-1
 497 269 l 1,15,16
 518 251 518 251 518 214 c 0,17,18
 518 130 518 130 431 59 c 128,-1,19
 344 -12 344 -12 237.5 -12 c 128,-1,20
 131 -12 131 -12 72 32.5 c 128,-1,21
 13 77 13 77 13 160 c 0,22,23
 13 209 13 209 50.5 252.5 c 128,-1,24
 88 296 88 296 150 319 c 1,25,26
 73 370 73 370 73 453.5 c 128,-1,27
 73 537 73 537 150 598.5 c 128,-1,28
 227 660 227 660 324 660 c 0,29,30
 396 660 396 660 491 633 c 1,31,-1
 501 617 l 1,32,33
 462 506 462 506 458 455 c 1,34,-1
 341 448 l 1,35,36
 346 477 346 477 346 493 c 128,-1,37
 346 509 346 509 334 521.5 c 128,-1,38
 322 534 322 534 294 534 c 128,-1,0
 266 534 266 534 245.5 513 c 128,-1,1
377 212 m 0,39,40
 377 241 377 241 367.5 258 c 128,-1,41
 358 275 358 275 341 275 c 2,42,-1
 238 275 l 1,43,44
 181 246 181 246 181 183 c 0,45,46
 181 146 181 146 203.5 124.5 c 128,-1,47
 226 103 226 103 270.5 103 c 128,-1,48
 315 103 315 103 346 133 c 128,-1,49
 377 163 377 163 377 212 c 0,39,40
EndSplineSet
EndChar

StartChar: quotesingle
Encoding: 39 39 10
Width: 171
GlyphClass: 2
Flags: W
LayerCount: 2
Fore
SplineSet
208 659 m 1,0,-1
 215 647 l 1,1,2
 186 538 186 538 147 426 c 1,3,-1
 70 401 l 1,4,-1
 52 407 l 1,5,6
 67 504 67 504 73 645 c 1,7,-1
 208 659 l 1,0,-1
EndSplineSet
EndChar

StartChar: parenleft
Encoding: 40 40 11
Width: 300
GlyphClass: 2
Flags: W
LayerCount: 2
Fore
SplineSet
222 351 m 0,0,1
 196 136 196 136 196 112.5 c 128,-1,2
 196 89 196 89 197.5 62 c 128,-1,3
 199 35 199 35 207 6 c 0,4,5
 221 -45 221 -45 240 -67 c 2,6,-1
 247 -75 l 1,7,-1
 246 -86 l 1,8,-1
 176 -146 l 1,9,-1
 164 -146 l 1,10,11
 143 -135 143 -135 130 -123 c 128,-1,12
 117 -111 117 -111 103.5 -96.5 c 128,-1,13
 90 -82 90 -82 80.5 -65 c 128,-1,14
 71 -48 71 -48 60 -24 c 0,15,16
 45 8 45 8 38 89 c 0,17,18
 37 100 37 100 37 118 c 0,19,20
 37 123 37 123 63 336 c 0,21,22
 71 405 71 405 95 462.5 c 128,-1,23
 119 520 119 520 147 553 c 0,24,25
 205 621 205 621 246 640 c 1,26,-1
 264 649 l 1,27,-1
 282 649 l 1,28,-1
 326 585 l 1,29,-1
 324 576 l 1,30,31
 313 569 313 569 296 549 c 128,-1,32
 279 529 279 529 266 506 c 0,33,34
 234 445 234 445 222 351 c 0,0,1
EndSplineSet
EndChar

StartChar: parenright
Encoding: 41 41 12
Width: 304
GlyphClass: 2
Flags: W
LayerCount: 2
Fore
SplineSet
82 152 m 0,0,1
 108 367 108 367 108 390.5 c 128,-1,2
 108 414 108 414 106.5 441 c 128,-1,3
 105 468 105 468 97 498 c 0,4,5
 83 548 83 548 64 570 c 2,6,-1
 57 578 l 1,7,-1
 58 589 l 1,8,-1
 127 649 l 1,9,-1
 140 649 l 1,10,11
 162 638 162 638 188.5 611.5 c 128,-1,12
 215 585 215 585 232 553.5 c 128,-1,13
 249 522 249 522 257 477.5 c 128,-1,14
 265 433 265 433 265 401 c 128,-1,15
 265 369 265 369 262 340 c 2,16,-1
 240 167 l 2,17,18
 232 98 232 98 208 40.5 c 128,-1,19
 184 -17 184 -17 156 -50 c 0,20,21
 98 -118 98 -118 57 -138 c 1,22,-1
 39 -146 l 1,23,-1
 22 -146 l 1,24,-1
 -23 -82 l 1,25,-1
 -21 -73 l 1,26,27
 -10 -66 -10 -66 7 -46 c 128,-1,28
 24 -26 24 -26 36 -3 c 0,29,30
 71 60 71 60 82 152 c 0,0,1
EndSplineSet
EndChar

StartChar: asterisk
Encoding: 42 42 13
Width: 348
GlyphClass: 2
Flags: W
LayerCount: 2
Fore
SplineSet
76 681 m 1,0,1
 120 657 120 657 181 611 c 1,2,-1
 172 562 l 1,3,-1
 163 555 l 1,4,-1
 51 585 l 1,5,6
 51 639 51 639 65 678 c 1,7,-1
 76 681 l 1,0,1
70 465 m 1,8,9
 106 499 106 499 168 543 c 1,10,-1
 213 519 l 1,11,-1
 216 510 l 1,12,-1
 154 412 l 1,13,14
 102 428 102 428 69 453 c 1,15,-1
 70 465 l 1,8,9
273 393 m 1,16,17
 252 437 252 437 229 511 c 1,18,-1
 266 546 l 1,19,-1
 277 546 l 1,20,-1
 350 456 l 1,21,22
 319 411 319 411 284 388 c 1,23,-1
 273 393 l 1,16,17
405 564 m 1,24,25
 369 558 369 558 279 558 c 1,26,-1
 257 604 l 1,27,-1
 261 615 l 1,28,-1
 369 656 l 1,29,30
 402 612 402 612 413 572 c 1,31,-1
 405 564 l 1,24,25
284 742 m 1,32,33
 273 693 273 693 249 620 c 1,34,-1
 199 615 l 1,35,-1
 191 620 l 1,36,-1
 183 736 l 1,37,38
 235 752 235 752 277 752 c 1,39,-1
 284 742 l 1,32,33
EndSplineSet
EndChar

StartChar: plus
Encoding: 43 43 14
Width: 491
GlyphClass: 2
Flags: W
LayerCount: 2
Fore
SplineSet
336 493 m 1,0,-1
 350 486 l 1,1,2
 335 398 335 398 324 323 c 1,3,-1
 480 329 l 1,4,-1
 485 314 l 1,5,-1
 455 178 l 1,6,-1
 306 177 l 1,7,-1
 290 36 l 1,8,-1
 157 18 l 1,9,-1
 146 27 l 1,10,11
 155 101 155 101 165 177 c 1,12,-1
 16 176 l 1,13,-1
 9 189 l 1,14,-1
 43 324 l 1,15,16
 112 323 112 323 183 323 c 1,17,-1
 203 480 l 1,18,-1
 336 493 l 1,0,-1
EndSplineSet
EndChar

StartChar: comma
Encoding: 44 44 15
Width: 231
GlyphClass: 2
Flags: W
LayerCount: 2
Fore
SplineSet
4 145 m 1,0,1
 61 189 61 189 102.5 189 c 128,-1,2
 144 189 144 189 167.5 161.5 c 128,-1,3
 191 134 191 134 191 84.5 c 128,-1,4
 191 35 191 35 146 -21.5 c 128,-1,5
 101 -78 101 -78 24 -122 c 1,6,-1
 -34 -76 l 1,7,-1
 -34 -51 l 1,8,9
 -5 -30 -5 -30 12.5 -1 c 128,-1,10
 30 28 30 28 30 63.5 c 128,-1,11
 30 99 30 99 1 131 c 1,12,-1
 4 145 l 1,0,1
EndSplineSet
EndChar

StartChar: hyphen
Encoding: 45 45 16
Width: 314
GlyphClass: 2
Flags: W
LayerCount: 2
Fore
SplineSet
282 328 m 1,0,-1
 291 310 l 1,1,-1
 265 202 l 1,2,-1
 37 176 l 1,3,-1
 27 194 l 1,4,-1
 50 300 l 1,5,-1
 282 328 l 1,0,-1
EndSplineSet
EndChar

StartChar: period
Encoding: 46 46 17
Width: 231
GlyphClass: 2
Flags: W
LayerCount: 2
Fore
SplineSet
81 -9 m 0,0,1
 -1 -9 -1 -9 -1 71 c 0,2,3
 -1 125 -1 125 30.5 157.5 c 128,-1,4
 62 190 62 190 108 190 c 0,5,6
 195 190 195 190 195 109 c 0,7,8
 195 56 195 56 163.5 23.5 c 128,-1,9
 132 -9 132 -9 81 -9 c 0,0,1
EndSplineSet
EndChar

StartChar: slash
Encoding: 47 47 18
Width: 319
GlyphClass: 2
Flags: W
LayerCount: 2
Fore
SplineSet
373 675 m 1,0,-1
 388 655 l 1,1,2
 279 377 279 377 217 215 c 1,3,-1
 97 -110 l 1,4,-1
 -29 -110 l 1,5,-1
 -38 -95 l 1,6,7
 31 74 31 74 87 226 c 2,8,-1
 254 675 l 1,9,-1
 373 675 l 1,0,-1
EndSplineSet
EndChar

StartChar: zero
Encoding: 48 48 19
Width: 450
GlyphClass: 2
Flags: W
LayerCount: 2
Fore
SplineSet
184 -12 m 0,0,1
 98 -12 98 -12 53 41 c 128,-1,2
 8 94 8 94 8 193 c 0,3,4
 8 339 8 339 79.5 427 c 128,-1,5
 151 515 151 515 271 515 c 0,6,7
 356 515 356 515 400.5 462.5 c 128,-1,8
 445 410 445 410 445 311 c 0,9,10
 445 163 445 163 374.5 75.5 c 128,-1,11
 304 -12 304 -12 184 -12 c 0,0,1
222 179 m 0,12,13
 280 179 280 179 306 197.5 c 128,-1,14
 332 216 332 216 332 255 c 0,15,16
 332 320 332 320 226 320 c 128,-1,17
 120 320 120 320 120 244 c 0,18,19
 120 179 120 179 222 179 c 0,12,13
EndSplineSet
EndChar

StartChar: one
Encoding: 49 49 20
Width: 367
GlyphClass: 2
Flags: W
LayerCount: 2
Fore
SplineSet
264 135 m 0,0,1
 264 88 264 88 295 88 c 1,2,-1
 338 90 l 1,3,-1
 341 84 l 1,4,-1
 316 -6 l 1,5,6
 217 0 217 0 181 0 c 128,-1,7
 145 0 145 0 118 -1 c 128,-1,8
 91 -2 91 -2 68 -4 c 0,9,10
 20 -7 20 -7 -20 -10 c 1,11,-1
 -2 71 l 1,12,13
 44 76 44 76 66 92 c 128,-1,14
 88 108 88 108 92 139 c 0,15,16
 118 351 118 351 118 365 c 128,-1,17
 118 379 118 379 112 388 c 128,-1,18
 106 397 106 397 78 397 c 1,19,-1
 33 394 l 1,20,-1
 25 404 l 1,21,-1
 42 479 l 1,22,23
 162 490 162 490 232 499.5 c 128,-1,24
 302 509 302 509 348 515 c 1,25,-1
 359 472 l 1,26,27
 329 450 329 450 311 400 c 0,28,29
 264 265 264 265 264 135 c 0,0,1
EndSplineSet
EndChar

StartChar: two
Encoding: 50 50 21
Width: 479
GlyphClass: 2
Flags: W
LayerCount: 2
Fore
SplineSet
161.5 367 m 128,-1,1
 117 367 117 367 62 304 c 1,2,-1
 44 304 l 1,3,-1
 32 408 l 1,4,5
 150 515 150 515 264 515 c 0,6,7
 336 515 336 515 379 480.5 c 128,-1,8
 422 446 422 446 422 390 c 0,9,10
 422 353 422 353 413 330 c 0,11,12
 393 280 393 280 240 137 c 1,13,-1
 244 128 l 1,14,-1
 271 128 l 2,15,16
 307 128 307 128 326 148.5 c 128,-1,17
 345 169 345 169 356 219 c 1,18,-1
 473 228 l 1,19,20
 435 95 435 95 420 6 c 1,21,-1
 401 -12 l 1,22,23
 151 0 151 0 50 0 c 1,24,-1
 -24 -6 l 1,25,-1
 -23 44 l 1,26,-1
 54 121 l 1,27,28
 141 212 141 212 172 253 c 0,29,30
 206 298 206 298 206 332.5 c 128,-1,0
 206 367 206 367 161.5 367 c 128,-1,1
EndSplineSet
EndChar

StartChar: three
Encoding: 51 51 22
Width: 437
GlyphClass: 2
Flags: W
LayerCount: 2
Fore
SplineSet
77 336 m 1,0,-1
 62 335 l 1,1,-1
 42 438 l 1,2,3
 90 471 90 471 150.5 493 c 128,-1,4
 211 515 211 515 268 515 c 128,-1,5
 325 515 325 515 366 485.5 c 128,-1,6
 407 456 407 456 407 407 c 128,-1,7
 407 358 407 358 373 319 c 128,-1,8
 339 280 339 280 282 263 c 1,9,-1
 281 252 l 1,10,11
 403 213 403 213 403 124 c 0,12,13
 403 70 403 70 352 19 c 128,-1,14
 301 -32 301 -32 220.5 -63.5 c 128,-1,15
 140 -95 140 -95 58 -95 c 0,16,17
 8 -95 8 -95 -7.5 -68 c 128,-1,18
 -23 -41 -23 -41 -23 17 c 0,19,20
 -23 28 -23 28 -23 39 c 1,21,-1
 2 62 l 1,22,23
 34 44 34 44 87 44 c 128,-1,24
 140 44 140 44 171 61 c 128,-1,25
 202 78 202 78 202 106 c 0,26,27
 202 156 202 156 101 156 c 1,28,-1
 90 171 l 1,29,-1
 91 261 l 1,30,-1
 156 274 l 1,31,32
 220 300 220 300 220 351 c 0,33,34
 220 366 220 366 210 375 c 128,-1,35
 200 384 200 384 183 384 c 0,36,37
 142 384 142 384 77 336 c 1,0,-1
EndSplineSet
EndChar

StartChar: four
Encoding: 52 52 23
Width: 478
GlyphClass: 2
Flags: W
LayerCount: 2
Fore
SplineSet
280 513 m 1,0,-1
 289 515 l 1,1,-1
 429 503 l 1,2,-1
 388 173 l 1,3,-1
 454 173 l 1,4,-1
 463 158 l 1,5,-1
 439 45 l 1,6,7
 413 46 413 46 374 47 c 1,8,-1
 365 -72 l 1,9,-1
 353 -83 l 1,10,-1
 187 -95 l 1,11,-1
 179 -83 l 1,12,13
 191 -14 191 -14 201 52 c 1,14,15
 86 55 86 55 -22 55 c 1,16,-1
 -9 155 l 1,17,-1
 280 513 l 1,0,-1
222 300 m 1,18,-1
 127 173 l 1,19,-1
 217 173 l 1,20,-1
 233 300 l 1,21,-1
 222 300 l 1,18,-1
EndSplineSet
EndChar

StartChar: five
Encoding: 53 53 24
Width: 410
GlyphClass: 2
Flags: W
LayerCount: 2
Fore
SplineSet
383 150 m 0,0,1
 383 57 383 57 276.5 -19 c 128,-1,2
 170 -95 170 -95 40 -95 c 0,3,4
 -10 -95 -10 -95 -26 -68.5 c 128,-1,5
 -42 -42 -42 -42 -42 9 c 0,6,7
 -42 23 -42 23 -41 39 c 1,8,-1
 -16 62 l 1,9,10
 17 44 17 44 68.5 44 c 128,-1,11
 120 44 120 44 151.5 61.5 c 128,-1,12
 183 79 183 79 183 105 c 128,-1,13
 183 131 183 131 149 145.5 c 128,-1,14
 115 160 115 160 32 169 c 1,15,-1
 24 180 l 1,16,17
 53 305 53 305 84 479 c 1,18,-1
 92 487 l 1,19,-1
 286 493 l 2,20,21
 313 494 313 494 327 502.5 c 128,-1,22
 341 511 341 511 352 533 c 1,23,-1
 431 538 l 1,24,-1
 381 359 l 1,25,-1
 359 340 l 1,26,27
 285 348 285 348 189 348 c 1,28,-1
 175 296 l 1,29,30
 286 278 286 278 334.5 244 c 128,-1,31
 383 210 383 210 383 150 c 0,0,1
EndSplineSet
EndChar

StartChar: six
Encoding: 54 54 25
Width: 460
GlyphClass: 2
Flags: W
LayerCount: 2
Fore
SplineSet
447 229 m 0,0,1
 447 119 447 119 376.5 53.5 c 128,-1,2
 306 -12 306 -12 188 -12 c 0,3,4
 104 -12 104 -12 56 39.5 c 128,-1,5
 8 91 8 91 8 179 c 0,6,7
 8 246 8 246 30.5 305.5 c 128,-1,8
 53 365 53 365 88.5 406.5 c 128,-1,9
 124 448 124 448 167 482.5 c 128,-1,10
 210 517 210 517 253 538 c 0,11,12
 344 582 344 582 390 594 c 1,13,-1
 412 599 l 1,14,-1
 424 592 l 1,15,-1
 444 511 l 1,16,17
 431 506 431 506 410 496.5 c 128,-1,18
 389 487 389 487 336.5 450.5 c 128,-1,19
 284 414 284 414 248 369 c 1,20,-1
 252 358 l 1,21,-1
 308 379 l 1,22,23
 373 379 373 379 410 338.5 c 128,-1,24
 447 298 447 298 447 229 c 0,0,1
237 259 m 0,25,26
 210 259 210 259 182 242 c 1,27,28
 173 190 173 190 173 176 c 0,29,30
 173 105 173 105 216 105 c 0,31,32
 250 105 250 105 263 128 c 128,-1,33
 276 151 276 151 276 199 c 0,34,35
 276 259 276 259 237 259 c 0,25,26
EndSplineSet
EndChar

StartChar: seven
Encoding: 55 55 26
Width: 423
GlyphClass: 2
Flags: W
LayerCount: 2
Fore
SplineSet
185 503 m 2,0,-1
 402 503 l 1,1,-1
 450 433 l 1,2,3
 371 292 371 292 246 48 c 1,4,-1
 191 -95 l 1,5,-1
 163 -95 l 1,6,-1
 45 -57 l 1,7,-1
 36 -29 l 1,8,-1
 270 360 l 1,9,-1
 184 351 l 2,10,11
 141 346 141 346 125 331.5 c 128,-1,12
 109 317 109 317 95 269 c 1,13,-1
 12 263 l 1,14,15
 42 396 42 396 60 502 c 1,16,-1
 67 507 l 1,17,18
 124 503 124 503 185 503 c 2,0,-1
EndSplineSet
EndChar

StartChar: eight
Encoding: 56 56 27
Width: 458
GlyphClass: 2
Flags: W
LayerCount: 2
Fore
SplineSet
3 124 m 0,0,1
 3 221 3 221 109 266 c 1,2,3
 45 321 45 321 45 403 c 128,-1,4
 45 485 45 485 116.5 542 c 128,-1,5
 188 599 188 599 287 599 c 0,6,7
 360 599 360 599 408.5 560 c 128,-1,8
 457 521 457 521 457 464 c 0,9,10
 457 375 457 375 364 327 c 1,11,12
 430 279 430 279 430 195.5 c 128,-1,13
 430 112 430 112 358.5 50 c 128,-1,14
 287 -12 287 -12 184 -12 c 0,15,16
 104 -12 104 -12 53.5 26 c 128,-1,17
 3 64 3 64 3 124 c 0,0,1
168 112.5 m 128,-1,19
 182 96 182 96 206.5 96 c 128,-1,20
 231 96 231 96 245 109.5 c 128,-1,21
 259 123 259 123 259 141.5 c 128,-1,22
 259 160 259 160 247.5 173 c 128,-1,23
 236 186 236 186 225 193 c 128,-1,24
 214 200 214 200 197 210 c 128,-1,25
 180 220 180 220 177 222 c 1,26,27
 154 191 154 191 154 160 c 128,-1,18
 154 129 154 129 168 112.5 c 128,-1,19
215 436 m 128,-1,29
 215 416 215 416 231.5 401.5 c 128,-1,30
 248 387 248 387 282 370 c 1,31,32
 305 404 305 404 305 436 c 0,33,34
 305 483 305 483 263 483 c 0,35,36
 242 483 242 483 228.5 469.5 c 128,-1,28
 215 456 215 456 215 436 c 128,-1,29
EndSplineSet
EndChar

StartChar: nine
Encoding: 57 57 28
Width: 460
GlyphClass: 2
Flags: W
LayerCount: 2
Fore
SplineSet
16 274 m 0,0,1
 16 384 16 384 86.5 449.5 c 128,-1,2
 157 515 157 515 275 515 c 0,3,4
 359 515 359 515 407.5 463.5 c 128,-1,5
 456 412 456 412 456 324 c 0,6,7
 456 257 456 257 433.5 197.5 c 128,-1,8
 411 138 411 138 375.5 96.5 c 128,-1,9
 340 55 340 55 297 20.5 c 128,-1,10
 254 -14 254 -14 211 -35 c 0,11,12
 120 -79 120 -79 74 -90 c 1,13,-1
 52 -96 l 1,14,-1
 40 -89 l 1,15,-1
 20 -8 l 1,16,17
 33 -3 33 -3 54 6 c 128,-1,18
 75 15 75 15 127 52 c 128,-1,19
 179 89 179 89 215 134 c 1,20,-1
 211 145 l 1,21,-1
 155 124 l 1,22,23
 91 124 91 124 53.5 164.5 c 128,-1,24
 16 205 16 205 16 274 c 0,0,1
226 244 m 0,25,26
 253 244 253 244 280 260 c 1,27,28
 290 294 290 294 290 327 c 0,29,30
 290 398 290 398 248 398 c 0,31,32
 214 398 214 398 200.5 375 c 128,-1,33
 187 352 187 352 187 304 c 0,34,35
 187 244 187 244 226 244 c 0,25,26
EndSplineSet
EndChar

StartChar: colon
Encoding: 58 58 29
Width: 231
GlyphClass: 2
Flags: W
LayerCount: 2
Fore
SplineSet
86 -9 m 0,0,1
 4 -9 4 -9 4 71 c 0,2,3
 4 125 4 125 35.5 157.5 c 128,-1,4
 67 190 67 190 112 190 c 0,5,6
 200 190 200 190 200 109 c 0,7,8
 200 56 200 56 168.5 23.5 c 128,-1,9
 137 -9 137 -9 86 -9 c 0,0,1
118 256 m 0,10,11
 36 256 36 256 36 336 c 0,12,13
 36 390 36 390 67.5 422.5 c 128,-1,14
 99 455 99 455 144 455 c 0,15,16
 232 455 232 455 232 374 c 0,17,18
 232 321 232 321 200.5 288.5 c 128,-1,19
 169 256 169 256 118 256 c 0,10,11
EndSplineSet
EndChar

StartChar: semicolon
Encoding: 59 59 30
Width: 231
GlyphClass: 2
Flags: W
LayerCount: 2
Fore
SplineSet
8 145 m 1,0,1
 65 189 65 189 106.5 189 c 128,-1,2
 148 189 148 189 171.5 161.5 c 128,-1,3
 195 134 195 134 195 84.5 c 128,-1,4
 195 35 195 35 150 -21.5 c 128,-1,5
 105 -78 105 -78 28 -122 c 1,6,-1
 -30 -76 l 1,7,-1
 -30 -51 l 1,8,9
 -1 -30 -1 -30 16.5 -1 c 128,-1,10
 34 28 34 28 34 63.5 c 128,-1,11
 34 99 34 99 5 131 c 1,12,-1
 8 145 l 1,0,1
118 256 m 0,13,14
 36 256 36 256 36 336 c 0,15,16
 36 390 36 390 67.5 422.5 c 128,-1,17
 99 455 99 455 144 455 c 0,18,19
 232 455 232 455 232 374 c 0,20,21
 232 321 232 321 200.5 288.5 c 128,-1,22
 169 256 169 256 118 256 c 0,13,14
EndSplineSet
EndChar

StartChar: less
Encoding: 60 60 31
Width: 414
GlyphClass: 2
Flags: W
LayerCount: 2
Fore
SplineSet
25 184 m 1,0,-1
 19 199 l 1,1,-1
 38 352 l 1,2,-1
 219 429 l 1,3,-1
 371 499 l 1,4,-1
 388 488 l 1,5,-1
 409 383 l 1,6,7
 294 338 294 338 153 276 c 1,8,-1
 152 268 l 1,9,-1
 241 219 l 1,10,-1
 372 155 l 1,11,-1
 379 134 l 1,12,-1
 312 42 l 1,13,14
 253 71 253 71 188 105 c 1,15,-1
 25 184 l 1,0,-1
EndSplineSet
EndChar

StartChar: equal
Encoding: 61 61 32
Width: 491
GlyphClass: 2
Flags: W
LayerCount: 2
Fore
SplineSet
468 229 m 1,0,-1
 473 214 l 1,1,-1
 443 78 l 1,2,-1
 4 76 l 1,3,-1
 -4 89 l 1,4,-1
 31 224 l 1,5,6
 166 223 166 223 252 223 c 1,7,-1
 468 229 l 1,0,-1
492 429 m 1,8,-1
 497 414 l 1,9,-1
 468 278 l 1,10,-1
 28 276 l 1,11,-1
 21 289 l 1,12,-1
 55 424 l 1,13,14
 190 423 190 423 277 423 c 1,15,-1
 492 429 l 1,8,-1
EndSplineSet
EndChar

StartChar: greater
Encoding: 62 62 33
Width: 414
GlyphClass: 2
Flags: W
LayerCount: 2
Fore
SplineSet
397 357 m 1,0,-1
 403 342 l 1,1,-1
 385 189 l 1,2,-1
 204 112 l 1,3,-1
 51 42 l 1,4,-1
 35 53 l 1,5,-1
 13 158 l 1,6,7
 115 197 115 197 270 265 c 1,8,-1
 271 273 l 1,9,-1
 181 322 l 1,10,-1
 50 386 l 1,11,-1
 44 407 l 1,12,-1
 111 499 l 1,13,14
 169 470 169 470 234 436 c 1,15,-1
 397 357 l 1,0,-1
EndSplineSet
EndChar

StartChar: question
Encoding: 63 63 34
Width: 371
GlyphClass: 2
Flags: W
LayerCount: 2
Fore
SplineSet
239 497 m 0,0,1
 239 563 239 563 92 571 c 1,2,-1
 80 589 l 1,3,-1
 135 707 l 1,4,-1
 153 716 l 1,5,6
 271 713 271 713 346.5 665 c 128,-1,7
 422 617 422 617 422 546 c 0,8,9
 422 493 422 493 383.5 449.5 c 128,-1,10
 345 406 345 406 239 341 c 1,11,-1
 236 335 l 1,12,-1
 234 266 l 1,13,-1
 224 252 l 1,14,-1
 104 232 l 1,15,-1
 90 240 l 1,16,-1
 83 373 l 1,17,-1
 88 388 l 1,18,-1
 186 435 l 1,19,20
 239 462 239 462 239 497 c 0,0,1
209.5 23.5 m 128,-1,22
 178 -9 178 -9 132 -9 c 0,23,24
 44 -9 44 -9 44 71 c 0,25,26
 44 125 44 125 75.5 157.5 c 128,-1,27
 107 190 107 190 152 190 c 0,28,29
 241 190 241 190 241 109 c 0,30,21
 241 56 241 56 209.5 23.5 c 128,-1,22
EndSplineSet
EndChar

StartChar: at
Encoding: 64 64 35
Width: 873
GlyphClass: 2
Flags: W
LayerCount: 2
Fore
SplineSet
524 -149 m 1,0,-1
 523 -176 l 1,1,-1
 486 -240 l 1,2,3
 262 -240 262 -240 134.5 -131 c 128,-1,4
 7 -22 7 -22 7 169 c 0,5,6
 7 267 7 267 47.5 360 c 128,-1,7
 88 453 88 453 154.5 521.5 c 128,-1,8
 221 590 221 590 311 631.5 c 128,-1,9
 401 673 401 673 497 673 c 0,10,11
 673 673 673 673 774.5 586.5 c 128,-1,12
 876 500 876 500 876 342 c 128,-1,13
 876 184 876 184 775.5 86 c 128,-1,14
 675 -12 675 -12 504 -12 c 0,15,16
 480 -12 480 -12 465 3 c 128,-1,17
 450 18 450 18 450 36.5 c 128,-1,18
 450 55 450 55 474 158 c 1,19,-1
 464 158 l 1,20,21
 388 27 388 27 331 -12 c 1,22,23
 260 -12 260 -12 220 29.5 c 128,-1,24
 180 71 180 71 180 145 c 0,25,26
 180 263 180 263 261.5 367.5 c 128,-1,27
 343 472 343 472 434 472 c 1,28,-1
 506 452 l 1,29,-1
 511 472 l 1,30,-1
 530 484 l 1,31,-1
 664 472 l 1,32,-1
 672 449 l 1,33,34
 624 240 624 240 603 112 c 1,35,-1
 610 104 l 1,36,37
 679 104 679 104 724 162.5 c 128,-1,38
 769 221 769 221 769 310 c 0,39,40
 769 430 769 430 688 499 c 128,-1,41
 607 568 607 568 461 567.5 c 128,-1,42
 315 567 315 567 215.5 463 c 128,-1,43
 116 359 116 359 116 195.5 c 128,-1,44
 116 32 116 32 221 -58.5 c 128,-1,45
 326 -149 326 -149 524 -149 c 1,0,-1
377 143 m 0,46,47
 394 143 394 143 426.5 206.5 c 128,-1,48
 459 270 459 270 478 341 c 1,49,50
 440 367 440 367 404 367 c 0,51,52
 390 367 390 367 376.5 315 c 128,-1,53
 363 263 363 263 363 203 c 128,-1,54
 363 143 363 143 377 143 c 0,46,47
EndSplineSet
EndChar

StartChar: A
Encoding: 65 65 36
Width: 661
GlyphClass: 2
Flags: W
LayerCount: 2
Fore
SplineSet
377 121 m 2,0,-1
 377 178 l 1,1,2
 312 180 312 180 304 180 c 2,3,-1
 227 175 l 1,4,5
 208 111 208 111 208 104 c 0,6,7
 208 89 208 89 231 89 c 2,8,-1
 258 89 l 1,9,-1
 265 79 l 1,10,-1
 247 -4 l 1,11,12
 156 -1 156 -1 97 -1 c 2,13,-1
 -33 -2 l 1,14,-1
 -16 85 l 1,15,16
 20 94 20 94 39 140 c 2,17,-1
 250 642 l 1,18,-1
 517 658 l 1,19,-1
 531 646 l 1,20,21
 579 261 579 261 593 153 c 0,22,23
 597 119 597 119 608 104 c 128,-1,24
 619 89 619 89 640 86 c 1,25,-1
 646 76 l 1,26,-1
 628 -3 l 1,27,28
 544 -1 544 -1 490 -1 c 1,29,-1
 302 -6 l 1,30,-1
 295 3 l 1,31,-1
 311 87 l 1,32,33
 353 92 353 92 365 98 c 128,-1,34
 377 104 377 104 377 121 c 2,0,-1
322 301 m 2,35,36
 329 301 329 301 371 303 c 1,37,-1
 361 478 l 1,38,-1
 339 478 l 1,39,-1
 274 301 l 1,40,-1
 322 301 l 2,35,36
EndSplineSet
EndChar

StartChar: B
Encoding: 66 66 37
Width: 647
GlyphClass: 2
Flags: W
LayerCount: 2
Fore
SplineSet
120 527 m 0,0,1
 120 559 120 559 99 559 c 1,2,-1
 65 557 l 1,3,-1
 55 569 l 1,4,-1
 76 649 l 1,5,6
 212 647 212 647 243 647 c 1,7,-1
 424 654 l 1,8,9
 526 654 526 654 582.5 617.5 c 128,-1,10
 639 581 639 581 639 515 c 0,11,12
 639 464 639 464 612 423 c 128,-1,13
 585 382 585 382 525 343 c 1,14,15
 629 299 629 299 629 210 c 0,16,17
 629 -11 629 -11 320 -11 c 1,18,19
 303 -8 303 -8 243 -4 c 128,-1,20
 183 0 183 0 160 0 c 2,21,-1
 -20 -7 l 1,22,-1
 0 83 l 1,23,24
 38 90 38 90 54 105 c 128,-1,25
 70 120 70 120 74 156 c 0,26,27
 120 520 120 520 120 527 c 0,0,1
268 150 m 0,28,29
 268 114 268 114 332 114 c 0,30,31
 370 114 370 114 390.5 135 c 128,-1,32
 411 156 411 156 411 199 c 128,-1,33
 411 242 411 242 361 260 c 1,34,-1
 286 260 l 1,35,36
 268 155 268 155 268 150 c 0,28,29
427 470 m 0,37,38
 427 528 427 528 345 528 c 0,39,40
 329 528 329 528 326 514 c 2,41,-1
 304 389 l 1,42,43
 356 378 356 378 378 378 c 1,44,45
 397 389 397 389 412 416 c 128,-1,46
 427 443 427 443 427 470 c 0,37,38
EndSplineSet
EndChar

StartChar: C
Encoding: 67 67 38
Width: 584
GlyphClass: 2
Flags: W
LayerCount: 2
Fore
SplineSet
505 27 m 1,0,1
 405 -11 405 -11 279.5 -11 c 128,-1,2
 154 -11 154 -11 86 59 c 128,-1,3
 18 129 18 129 18 259 c 0,4,5
 18 455 18 455 112 557 c 128,-1,6
 206 659 206 659 386 659 c 0,7,8
 460 659 460 659 608 633 c 1,9,-1
 614 613 l 1,10,11
 582 521 582 521 560 399 c 1,12,-1
 404 390 l 1,13,14
 415 447 415 447 415 465 c 0,15,16
 415 521 415 521 349 521 c 0,17,18
 294 521 294 521 271 463 c 128,-1,19
 248 405 248 405 248 268 c 0,20,21
 248 193 248 193 263.5 161.5 c 128,-1,22
 279 130 279 130 316 130 c 128,-1,23
 353 130 353 130 370.5 153.5 c 128,-1,24
 388 177 388 177 402 246 c 1,25,-1
 557 256 l 1,26,27
 531 139 531 139 520 43 c 1,28,-1
 505 27 l 1,0,1
EndSplineSet
EndChar

StartChar: D
Encoding: 68 68 39
Width: 660
GlyphClass: 2
Flags: W
LayerCount: 2
Fore
SplineSet
119 531 m 0,0,1
 119 557 119 557 100 557 c 1,2,-1
 69 555 l 1,3,-1
 61 569 l 1,4,-1
 80 650 l 1,5,6
 189 647 189 647 229 647 c 1,7,-1
 382 653 l 1,8,9
 519 653 519 653 592 589 c 128,-1,10
 665 525 665 525 665 402 c 0,11,12
 665 215 665 215 559 101.5 c 128,-1,13
 453 -12 453 -12 279 -12 c 1,14,15
 187 0 187 0 126 0 c 1,16,-1
 -16 -8 l 1,17,-1
 4 85 l 1,18,19
 40 91 40 91 54.5 108 c 128,-1,20
 69 125 69 125 76 168 c 1,21,22
 119 520 119 520 119 531 c 0,0,1
343 526 m 0,23,24
 333 526 333 526 328 520.5 c 128,-1,25
 323 515 323 515 319 494.5 c 128,-1,26
 315 474 315 474 291 313.5 c 128,-1,27
 267 153 267 153 267 140 c 0,28,29
 267 113 267 113 293 113 c 0,30,31
 435 113 435 113 435 398 c 0,32,33
 435 469 435 469 414.5 497.5 c 128,-1,34
 394 526 394 526 343 526 c 0,23,24
EndSplineSet
EndChar

StartChar: E
Encoding: 69 69 40
Width: 586
GlyphClass: 2
Flags: W
LayerCount: 2
Fore
SplineSet
303 387 m 1,0,-1
 382 386 l 1,1,-1
 489 392 l 1,2,-1
 499 378 l 1,3,-1
 471 263 l 1,4,5
 400 266 400 266 368.5 266 c 128,-1,6
 337 266 337 266 283 260 c 1,7,8
 269 165 269 165 269 147 c 128,-1,9
 269 129 269 129 277.5 122 c 128,-1,10
 286 115 286 115 309 115 c 0,11,12
 369 115 369 115 391.5 134.5 c 128,-1,13
 414 154 414 154 431 221 c 1,14,-1
 560 230 l 1,15,-1
 571 215 l 1,16,17
 541 118 541 118 518 9 c 1,18,-1
 501 -7 l 1,19,20
 343 0 343 0 244 0 c 0,21,22
 100 0 100 0 -20 -10 c 1,23,-1
 0 82 l 1,24,25
 37 88 37 88 52.5 106.5 c 128,-1,26
 68 125 68 125 73 170 c 0,27,28
 118 521 118 521 118 531.5 c 128,-1,29
 118 542 118 542 115 550.5 c 128,-1,30
 112 559 112 559 96 559 c 1,31,-1
 71 557 l 1,32,-1
 61 571 l 1,33,-1
 80 650 l 1,34,35
 220 647 220 647 369 647 c 128,-1,36
 518 647 518 647 612 659 c 1,37,-1
 623 643 l 1,38,39
 592 538 592 538 576 444 c 1,40,-1
 436 435 l 1,41,42
 444 467 444 467 444 488.5 c 128,-1,43
 444 510 444 510 426 518.5 c 128,-1,44
 408 527 408 527 373.5 527 c 128,-1,45
 339 527 339 527 332.5 522 c 128,-1,46
 326 517 326 517 323 500 c 2,47,-1
 303 387 l 1,0,-1
EndSplineSet
EndChar

StartChar: F
Encoding: 70 70 41
Width: 540
GlyphClass: 2
Flags: W
LayerCount: 2
Fore
SplineSet
281 243 m 1,0,1
 270 159 270 159 270 146.5 c 128,-1,2
 270 134 270 134 275 124.5 c 128,-1,3
 280 115 280 115 305.5 115 c 128,-1,4
 331 115 331 115 361 123 c 1,5,-1
 375 105 l 1,6,-1
 349 -3 l 1,7,8
 236 0 236 0 190 0 c 0,9,10
 100 0 100 0 -20 -10 c 1,11,-1
 0 82 l 1,12,13
 37 88 37 88 52 106.5 c 128,-1,14
 67 125 67 125 73 170 c 0,15,16
 118 521 118 521 118 531.5 c 128,-1,17
 118 542 118 542 115 550.5 c 128,-1,18
 112 559 112 559 96 559 c 1,19,-1
 71 557 l 1,20,-1
 61 571 l 1,21,-1
 80 650 l 1,22,23
 220 647 220 647 359 647 c 128,-1,24
 498 647 498 647 584 659 c 1,25,-1
 595 643 l 1,26,27
 569 536 569 536 554 444 c 1,28,-1
 414 436 l 1,29,30
 421 467 421 467 421 488 c 128,-1,31
 421 509 421 509 407.5 518 c 128,-1,32
 394 527 394 527 366.5 527 c 128,-1,33
 339 527 339 527 332.5 522 c 128,-1,34
 326 517 326 517 323 500 c 2,35,-1
 300 370 l 1,36,-1
 380 369 l 1,37,-1
 482 375 l 1,38,-1
 493 361 l 1,39,-1
 465 246 l 1,40,41
 397 249 397 249 364.5 249 c 128,-1,42
 332 249 332 249 281 243 c 1,0,1
EndSplineSet
EndChar

StartChar: G
Encoding: 71 71 42
Width: 618
GlyphClass: 2
Flags: W
LayerCount: 2
Fore
SplineSet
279 -11 m 0,0,1
 154 -11 154 -11 86 59 c 128,-1,2
 18 129 18 129 18 259 c 0,3,4
 18 455 18 455 112 557 c 128,-1,5
 206 659 206 659 386 659 c 0,6,7
 460 659 460 659 608 633 c 1,8,-1
 614 613 l 1,9,10
 582 535 582 535 560 413 c 1,11,-1
 404 404 l 1,12,13
 415 450 415 450 415 468 c 0,14,15
 415 521 415 521 349 521 c 0,16,17
 294 521 294 521 271 463 c 128,-1,18
 248 405 248 405 248 268 c 0,19,20
 248 193 248 193 263.5 161.5 c 128,-1,21
 279 130 279 130 316 130 c 0,22,23
 345 130 345 130 371 142 c 1,24,25
 379 215 379 215 379 223.5 c 128,-1,26
 379 232 379 232 375 239 c 128,-1,27
 371 246 371 246 354 246 c 2,28,-1
 323 245 l 1,29,-1
 316 259 l 1,30,-1
 339 354 l 1,31,-1
 489 354 l 2,32,33
 597 354 597 354 597 359 c 2,34,-1
 600 301 l 1,35,36
 560 276 560 276 552 226 c 1,37,38
 532 122 532 122 532 76 c 1,39,-1
 533 38 l 1,40,-1
 519 22 l 1,41,42
 438 -11 438 -11 279 -11 c 0,0,1
EndSplineSet
EndChar

StartChar: H
Encoding: 72 72 43
Width: 716
GlyphClass: 2
Flags: W
LayerCount: 2
Fore
SplineSet
625 133 m 0,0,1
 625 89 625 89 656 89 c 1,2,-1
 683 92 l 1,3,-1
 690 81 l 1,4,-1
 671 -2 l 1,5,6
 616 -1 616 -1 552 0 c 1,7,-1
 503 0 l 1,8,-1
 339 -1 l 1,9,-1
 357 86 l 1,10,11
 391 87 391 87 408 104 c 128,-1,12
 425 121 425 121 430 162 c 2,13,-1
 443 264 l 1,14,15
 414 265 414 265 390 265 c 1,16,-1
 282 256 l 1,17,18
 267 131 267 131 267 116 c 128,-1,19
 267 101 267 101 272.5 94 c 128,-1,20
 278 87 278 87 292 87 c 1,21,-1
 318 90 l 1,22,-1
 325 80 l 1,23,-1
 306 -4 l 1,24,25
 185 0 185 0 145 0 c 1,26,-1
 -17 -5 l 1,27,-1
 1 80 l 1,28,29
 40 88 40 88 54 104 c 128,-1,30
 68 120 68 120 73 162 c 0,31,32
 118 521 118 521 118 532 c 128,-1,33
 118 543 118 543 113 551 c 128,-1,34
 108 559 108 559 88 559 c 2,35,-1
 63 558 l 1,36,-1
 56 572 l 1,37,-1
 73 647 l 1,38,-1
 199 647 l 1,39,-1
 397 652 l 1,40,-1
 379 562 l 1,41,42
 348 556 348 556 337 546.5 c 128,-1,43
 326 537 326 537 322 510 c 2,44,-1
 302 389 l 1,45,-1
 379 386 l 1,46,47
 432 386 432 386 458 389 c 1,48,49
 475 521 475 521 475 531.5 c 128,-1,50
 475 542 475 542 470 550.5 c 128,-1,51
 465 559 465 559 445 559 c 2,52,-1
 419 558 l 1,53,-1
 412 572 l 1,54,-1
 429 647 l 1,55,-1
 615 647 l 1,56,-1
 762 652 l 1,57,-1
 745 564 l 1,58,59
 709 558 709 558 697 548 c 128,-1,60
 685 538 685 538 676 492 c 128,-1,61
 667 446 667 446 646 303 c 128,-1,62
 625 160 625 160 625 133 c 0,0,1
EndSplineSet
EndChar

StartChar: I
Encoding: 73 73 44
Width: 359
GlyphClass: 2
Flags: W
LayerCount: 2
Fore
SplineSet
287.5 290 m 128,-1,1
 267 152 267 152 267 127.5 c 128,-1,2
 267 103 267 103 272.5 95 c 128,-1,3
 278 87 278 87 292 87 c 1,4,-1
 323 90 l 1,5,-1
 329 80 l 1,6,-1
 310 -4 l 1,7,8
 188 0 188 0 147 0 c 1,9,-1
 -17 -5 l 1,10,-1
 1 80 l 1,11,12
 41 89 41 89 54.5 104.5 c 128,-1,13
 68 120 68 120 73 162 c 0,14,15
 118 521 118 521 118 532 c 128,-1,16
 118 543 118 543 113 551 c 128,-1,17
 108 559 108 559 88 559 c 2,18,-1
 64 558 l 1,19,-1
 56 572 l 1,20,-1
 73 647 l 1,21,-1
 232 647 l 1,22,-1
 402 652 l 1,23,-1
 384 562 l 1,24,25
 351 557 351 557 340 547.5 c 128,-1,26
 329 538 329 538 323 510 c 0,27,0
 308 428 308 428 287.5 290 c 128,-1,1
EndSplineSet
EndChar

StartChar: J
Encoding: 74 74 45
Width: 329
GlyphClass: 2
Flags: W
LayerCount: 2
Fore
SplineSet
62 132 m 1,0,1
 110 523 110 523 110 533.5 c 128,-1,2
 110 544 110 544 106.5 551.5 c 128,-1,3
 103 559 103 559 84 559 c 1,4,-1
 49 557 l 1,5,-1
 42 571 l 1,6,-1
 59 647 l 1,7,-1
 198 648 l 1,8,-1
 387 655 l 1,9,-1
 367 562 l 1,10,11
 338 555 338 555 329.5 546.5 c 128,-1,12
 321 538 321 538 316 510 c 0,13,14
 285 353 285 353 252 85 c 1,15,16
 238 -11 238 -11 169.5 -71 c 128,-1,17
 101 -131 101 -131 -35 -164 c 1,18,-1
 -70 -116 l 1,19,-1
 -66 -101 l 1,20,21
 -1 -54 -1 -54 24 -9.5 c 128,-1,22
 49 35 49 35 62 132 c 1,0,1
EndSplineSet
EndChar

StartChar: K
Encoding: 75 75 46
Width: 676
GlyphClass: 2
Flags: W
LayerCount: 2
Fore
SplineSet
73 162 m 1,0,1
 118 521 118 521 118 532 c 128,-1,2
 118 543 118 543 113 551 c 128,-1,3
 108 559 108 559 88 559 c 2,4,-1
 63 558 l 1,5,-1
 56 572 l 1,6,-1
 74 648 l 1,7,8
 215 647 215 647 232 647 c 2,9,-1
 403 652 l 1,10,-1
 385 562 l 1,11,12
 347 552 347 552 334.5 541.5 c 128,-1,13
 322 531 322 531 320 506 c 1,14,-1
 270 156 l 2,15,16
 267 133 267 133 267 120 c 128,-1,17
 267 107 267 107 269 101 c 0,18,19
 273 87 273 87 292 87 c 1,20,-1
 323 90 l 1,21,-1
 330 80 l 1,22,-1
 311 -4 l 1,23,24
 188 0 188 0 147 0 c 1,25,-1
 -17 -5 l 1,26,-1
 1 80 l 1,27,28
 40 88 40 88 54.5 104 c 128,-1,29
 69 120 69 120 73 162 c 1,0,1
454 532 m 0,30,31
 454 545 454 545 446 551 c 128,-1,32
 438 557 438 557 419 558 c 1,33,-1
 414 568 l 1,34,-1
 433 650 l 1,35,36
 528 647 528 647 573 647 c 1,37,-1
 716 652 l 1,38,-1
 723 637 l 1,39,-1
 705 562 l 1,40,41
 627 519 627 519 561 435 c 1,42,-1
 501 356 l 1,43,-1
 566 174 l 2,44,45
 582 130 582 130 600.5 109.5 c 128,-1,46
 619 89 619 89 648 84 c 1,47,-1
 657 69 l 1,48,-1
 637 -5 l 1,49,50
 508 -16 508 -16 476.5 -16 c 128,-1,51
 445 -16 445 -16 424.5 1.5 c 128,-1,52
 404 19 404 19 387 65 c 2,53,-1
 298 317 l 1,54,-1
 307 347 l 1,55,-1
 420 472 l 1,56,57
 454 508 454 508 454 532 c 0,30,31
EndSplineSet
EndChar

StartChar: L
Encoding: 76 76 47
Width: 543
GlyphClass: 2
Flags: W
LayerCount: 2
Fore
SplineSet
475 -7 m 1,0,1
 331 0 331 0 238 0 c 0,2,3
 100 0 100 0 -20 -10 c 1,4,-1
 0 82 l 1,5,6
 37 88 37 88 52.5 106.5 c 128,-1,7
 68 125 68 125 73 170 c 0,8,9
 117 521 117 521 117 532 c 128,-1,10
 117 543 117 543 112 551 c 128,-1,11
 107 559 107 559 87 559 c 2,12,-1
 62 558 l 1,13,-1
 55 572 l 1,14,-1
 72 647 l 1,15,-1
 231 647 l 1,16,-1
 437 652 l 1,17,-1
 414 554 l 1,18,19
 363 549 363 549 344 538.5 c 128,-1,20
 325 528 325 528 321 502 c 0,21,22
 269 210 269 210 269 147 c 0,23,24
 269 115 269 115 298 115 c 0,25,26
 348 115 348 115 369.5 146.5 c 128,-1,27
 391 178 391 178 408 278 c 1,28,-1
 538 291 l 1,29,-1
 548 276 l 1,30,31
 518 148 518 148 492 9 c 1,32,-1
 475 -7 l 1,0,1
EndSplineSet
EndChar

StartChar: M
Encoding: 77 77 48
Width: 808
GlyphClass: 2
Flags: W
LayerCount: 2
Fore
SplineSet
293 -12 m 1,0,-1
 239 363 l 1,1,-1
 226 363 l 1,2,3
 193 128 193 128 193 115 c 0,4,5
 193 88 193 88 221 88 c 1,6,-1
 246 90 l 1,7,-1
 254 82 l 1,8,-1
 231 -4 l 1,9,10
 123 0 123 0 98 0 c 128,-1,11
 73 0 73 0 44 -2 c 0,12,13
 -25 -7 -25 -7 -25 -8 c 2,14,-1
 -6 82 l 1,15,16
 21 85 21 85 35 100 c 128,-1,17
 49 115 49 115 59.5 161 c 128,-1,18
 70 207 70 207 102 359.5 c 128,-1,19
 134 512 134 512 134 527.5 c 128,-1,20
 134 543 134 543 124.5 548.5 c 128,-1,21
 115 554 115 554 79 558 c 1,22,-1
 72 566 l 1,23,-1
 92 652 l 1,24,25
 195 647 195 647 236 647 c 1,26,-1
 390 651 l 1,27,28
 396 519 396 519 418 333 c 1,29,-1
 431 333 l 1,30,31
 498 502 498 502 547 647 c 1,32,33
 716 647 716 647 732 648 c 2,34,-1
 823 653 l 1,35,-1
 830 649 l 1,36,-1
 811 561 l 1,37,38
 772 560 772 560 759 550 c 128,-1,39
 746 540 746 540 742 510 c 0,40,41
 733 435 733 435 729 300 c 128,-1,42
 725 165 725 165 725 144 c 128,-1,43
 725 123 725 123 731 106 c 128,-1,44
 737 89 737 89 759 89 c 1,45,-1
 788 91 l 1,46,-1
 794 83 l 1,47,-1
 775 -3 l 1,48,49
 664 1 664 1 574.5 -2 c 128,-1,50
 485 -5 485 -5 476 -8 c 1,51,-1
 499 83 l 1,52,53
 526 86 526 86 538.5 97 c 128,-1,54
 551 108 551 108 554 132 c 2,55,-1
 580 363 l 1,56,-1
 567 363 l 1,57,58
 566 362 566 362 558 342 c 128,-1,59
 550 322 550 322 536 287.5 c 128,-1,60
 522 253 522 253 504 210 c 0,61,62
 463 108 463 108 421 -2 c 1,63,-1
 293 -12 l 1,0,-1
EndSplineSet
EndChar

StartChar: N
Encoding: 78 78 49
Width: 718
GlyphClass: 2
Flags: W
LayerCount: 2
Fore
SplineSet
496 333 m 1,0,1
 515 521 515 521 515 532 c 128,-1,2
 515 543 515 543 510 551 c 128,-1,3
 505 559 505 559 488 559 c 2,4,-1
 458 559 l 1,5,-1
 454 570 l 1,6,-1
 469 651 l 1,7,8
 578 647 578 647 674 647 c 128,-1,9
 770 647 770 647 770 650 c 2,10,-1
 754 560 l 1,11,12
 723 556 723 556 709.5 542 c 128,-1,13
 696 528 696 528 691 497 c 2,14,-1
 617 0 l 1,15,-1
 425 -12 l 1,16,17
 357 144 357 144 275 315 c 1,18,-1
 260 315 l 1,19,20
 241 128 241 128 241 116.5 c 128,-1,21
 241 105 241 105 246.5 95.5 c 128,-1,22
 252 86 252 86 274 86 c 1,23,-1
 306 90 l 1,24,-1
 314 81 l 1,25,-1
 293 -4 l 1,26,27
 183 0 183 0 147 0 c 0,28,29
 80 0 80 0 -12 -8 c 1,30,-1
 9 82 l 1,31,32
 38 86 38 86 53 100.5 c 128,-1,33
 68 115 68 115 72 145 c 0,34,35
 127 504 127 504 127 518 c 128,-1,36
 127 532 127 532 117 542 c 128,-1,37
 107 552 107 552 62 557 c 1,38,-1
 52 571 l 1,39,-1
 67 652 l 1,40,41
 140 647 140 647 213 647 c 1,42,-1
 341 651 l 1,43,44
 397 507 397 507 481 333 c 1,45,-1
 496 333 l 1,0,1
EndSplineSet
EndChar

StartChar: O
Encoding: 79 79 50
Width: 633
GlyphClass: 2
Flags: W
LayerCount: 2
Fore
SplineSet
310 114 m 0,0,1
 362 114 362 114 384.5 181 c 128,-1,2
 407 248 407 248 407 402 c 0,3,4
 407 522 407 522 342 522 c 0,5,6
 292 522 292 522 269.5 454.5 c 128,-1,7
 247 387 247 387 247 234 c 0,8,9
 247 114 247 114 310 114 c 0,0,1
283 -12 m 0,10,11
 158 -12 158 -12 88 57.5 c 128,-1,12
 18 127 18 127 18 256 c 0,13,14
 18 450 18 450 108.5 554.5 c 128,-1,15
 199 659 199 659 372 659 c 0,16,17
 500 659 500 659 569 592.5 c 128,-1,18
 638 526 638 526 638 398 c 0,19,20
 638 204 638 204 546 96 c 128,-1,21
 454 -12 454 -12 283 -12 c 0,10,11
EndSplineSet
EndChar

StartChar: P
Encoding: 80 80 51
Width: 591
GlyphClass: 2
Flags: W
LayerCount: 2
Fore
SplineSet
118 530 m 0,0,1
 118 559 118 559 98 559 c 1,2,-1
 63 557 l 1,3,-1
 55 569 l 1,4,-1
 74 647 l 1,5,-1
 214 647 l 1,6,-1
 383 653 l 1,7,8
 456 653 456 653 508.5 636 c 128,-1,9
 561 619 561 619 587 590 c 0,10,11
 635 538 635 538 635 473 c 0,12,13
 635 367 635 367 550.5 287.5 c 128,-1,14
 466 208 466 208 360 208 c 2,15,-1
 277 208 l 1,16,17
 269 145 269 145 269 129 c 128,-1,18
 269 113 269 113 275.5 100.5 c 128,-1,19
 282 88 282 88 311 88 c 1,20,-1
 342 90 l 1,21,-1
 346 82 l 1,22,-1
 326 -4 l 1,23,24
 206 0 206 0 164 0 c 1,25,-1
 -19 -9 l 1,26,-1
 1 83 l 1,27,28
 37 89 37 89 53 107.5 c 128,-1,29
 69 126 69 126 74 168 c 0,30,31
 118 521 118 521 118 530 c 0,0,1
427 452 m 0,32,33
 427 492 427 492 406 510 c 128,-1,34
 385 528 385 528 341 528 c 0,35,36
 331 528 331 528 328 524 c 0,37,38
 320 513 320 513 294 331 c 1,39,-1
 357 321 l 1,40,41
 427 346 427 346 427 452 c 0,32,33
EndSplineSet
EndChar

StartChar: Q
Encoding: 81 81 52
Width: 637
GlyphClass: 2
Flags: W
LayerCount: 2
Fore
SplineSet
18 256 m 0,0,1
 18 450 18 450 108.5 554.5 c 128,-1,2
 199 659 199 659 372 659 c 0,3,4
 500 659 500 659 569 592.5 c 128,-1,5
 638 526 638 526 638 392 c 128,-1,6
 638 258 638 258 589.5 161.5 c 128,-1,7
 541 65 541 65 448 21 c 1,8,-1
 448 18 l 1,9,10
 492 -23 492 -23 547 -47.5 c 128,-1,11
 602 -72 602 -72 650 -72 c 0,12,13
 688 -72 688 -72 740 -62 c 1,14,-1
 750 -73 l 1,15,-1
 759 -141 l 1,16,17
 609 -242 609 -242 572 -242 c 0,18,19
 513 -242 513 -242 458 -200 c 128,-1,20
 403 -158 403 -158 273 -12 c 1,21,22
 152 -9 152 -9 85 60 c 128,-1,23
 18 129 18 129 18 256 c 0,0,1
310 114 m 0,24,25
 362 114 362 114 384.5 181 c 128,-1,26
 407 248 407 248 407 402 c 0,27,28
 407 522 407 522 342 522 c 0,29,30
 292 522 292 522 269.5 454.5 c 128,-1,31
 247 387 247 387 247 234 c 0,32,33
 247 114 247 114 310 114 c 0,24,25
EndSplineSet
EndChar

StartChar: R
Encoding: 82 82 53
Width: 661
GlyphClass: 2
Flags: W
LayerCount: 2
Fore
SplineSet
279 228 m 1,0,1
 269 145 269 145 269 127 c 128,-1,2
 269 109 269 109 277 99.5 c 128,-1,3
 285 90 285 90 331 88 c 1,4,-1
 335 80 l 1,5,-1
 315 -4 l 1,6,7
 194 0 194 0 158 0 c 0,8,9
 78 0 78 0 -19 -9 c 1,10,-1
 1 83 l 1,11,12
 37 89 37 89 53 107 c 128,-1,13
 69 125 69 125 74 168 c 0,14,15
 118 525 118 525 118 534.5 c 128,-1,16
 118 544 118 544 115 551.5 c 128,-1,17
 112 559 112 559 98 559 c 2,18,-1
 63 557 l 1,19,-1
 55 569 l 1,20,-1
 75 648 l 1,21,22
 174 647 174 647 214 647 c 1,23,-1
 388 653 l 1,24,25
 514 653 514 653 581 611.5 c 128,-1,26
 648 570 648 570 648 489 c 0,27,28
 648 356 648 356 508 276 c 1,29,-1
 553 172 l 2,30,31
 592 84 592 84 635 84 c 1,32,-1
 644 68 l 1,33,-1
 626 -5 l 1,34,-1
 471 -16 l 1,35,36
 429 -16 429 -16 406.5 4.5 c 128,-1,37
 384 25 384 25 371 75 c 2,38,-1
 332 228 l 1,39,-1
 279 228 l 1,0,1
439 458 m 0,40,41
 439 528 439 528 342 528 c 0,42,43
 332 528 332 528 328.5 524 c 128,-1,44
 325 520 325 520 314.5 462 c 128,-1,45
 304 404 304 404 297 354 c 1,46,-1
 369 344 l 1,47,48
 439 371 439 371 439 458 c 0,40,41
EndSplineSet
EndChar

StartChar: S
Encoding: 83 83 54
Width: 536
GlyphClass: 2
Flags: W
LayerCount: 2
Fore
SplineSet
195 -12 m 0,0,1
 144 -12 144 -12 94.5 -1.5 c 128,-1,2
 45 9 45 9 21 20 c 2,3,-1
 -3 31 l 1,4,-1
 -13 49 l 1,5,6
 18 148 18 148 29 214 c 1,7,-1
 156 223 l 1,8,9
 155 213 155 213 155 203 c 0,10,11
 155 169 155 169 171 145 c 128,-1,12
 187 121 187 121 221.5 121 c 128,-1,13
 256 121 256 121 274 133.5 c 128,-1,14
 292 146 292 146 292 164 c 128,-1,15
 292 182 292 182 278 196 c 0,16,17
 258 216 258 216 198 243 c 0,18,19
 79 296 79 296 52 360 c 0,20,21
 39 389 39 389 39 425 c 0,22,23
 39 531 39 531 127 595 c 128,-1,24
 215 659 215 659 360 659 c 0,25,26
 455 659 455 659 528 638 c 2,27,-1
 553 631 l 1,28,-1
 563 609 l 1,29,30
 534 525 534 525 516 435 c 1,31,-1
 398 427 l 1,32,-1
 387 435 l 1,33,34
 390 458 390 458 390 463 c 0,35,36
 390 521 390 521 328 521 c 0,37,38
 300 521 300 521 282.5 507 c 128,-1,39
 265 493 265 493 265 473 c 128,-1,40
 265 453 265 453 282 438.5 c 128,-1,41
 299 424 299 424 317.5 414.5 c 128,-1,42
 336 405 336 405 365.5 391.5 c 128,-1,43
 395 378 395 378 403.5 373 c 128,-1,44
 412 368 412 368 436.5 354 c 128,-1,45
 461 340 461 340 470.5 328.5 c 128,-1,46
 480 317 480 317 494 300 c 0,47,48
 519 268 519 268 519 216 c 0,49,50
 519 110 519 110 432.5 49 c 128,-1,51
 346 -12 346 -12 195 -12 c 0,0,1
EndSplineSet
EndChar

StartChar: T
Encoding: 84 84 55
Width: 578
GlyphClass: 2
Flags: W
LayerCount: 2
Fore
SplineSet
472 382 m 1,0,1
 474 422 474 422 474 455 c 128,-1,2
 474 488 474 488 470 502 c 0,3,4
 463 526 463 526 428 526 c 1,5,6
 377 189 377 189 377 151.5 c 128,-1,7
 377 114 377 114 387 102.5 c 128,-1,8
 397 91 397 91 420 91 c 1,9,-1
 470 94 l 1,10,-1
 474 88 l 1,11,-1
 454 -6 l 1,12,13
 311 0 311 0 255 0 c 1,14,-1
 55 -9 l 1,15,-1
 74 83 l 1,16,17
 134 88 134 88 154.5 104.5 c 128,-1,18
 175 121 175 121 181 168 c 2,19,-1
 225 526 l 1,20,21
 189 526 189 526 174.5 501 c 128,-1,22
 160 476 160 476 143 390 c 1,23,-1
 17 382 l 1,24,25
 42 530 42 530 57 644 c 1,26,-1
 72 658 l 1,27,-1
 187 647 l 1,28,-1
 492 647 l 1,29,-1
 613 658 l 1,30,-1
 624 644 l 1,31,-1
 597 390 l 1,32,-1
 472 382 l 1,0,1
EndSplineSet
EndChar

StartChar: U
Encoding: 85 85 56
Width: 605
GlyphClass: 2
Flags: W
LayerCount: 2
Fore
SplineSet
422 531 m 0,0,1
 422 559 422 559 402 559 c 1,2,-1
 381 557 l 1,3,-1
 378 561 l 1,4,-1
 400 650 l 1,5,6
 481 647 481 647 516 647 c 2,7,-1
 659 650 l 1,8,-1
 640 560 l 1,9,10
 609 550 609 550 600 542 c 128,-1,11
 591 534 591 534 589 516 c 2,12,-1
 554 234 l 1,13,14
 537 109 537 109 468.5 48.5 c 128,-1,15
 400 -12 400 -12 279.5 -12 c 128,-1,16
 159 -12 159 -12 103 30 c 128,-1,17
 47 72 47 72 47 159 c 0,18,19
 47 175 47 175 68.5 348.5 c 128,-1,20
 90 522 90 522 90 533 c 128,-1,21
 90 544 90 544 87 551.5 c 128,-1,22
 84 559 84 559 68 559 c 1,23,-1
 40 557 l 1,24,-1
 38 561 l 1,25,-1
 59 650 l 1,26,27
 155 647 155 647 233 647 c 1,28,-1
 365 651 l 1,29,-1
 344 558 l 1,30,31
 318 555 318 555 306.5 544 c 128,-1,32
 295 533 295 533 292 509 c 2,33,-1
 251 220 l 2,34,35
 249 201 249 201 249 187 c 0,36,37
 249 115 249 115 308 115 c 0,38,39
 343 115 343 115 360 135 c 128,-1,40
 377 155 377 155 384 203 c 1,41,42
 422 522 422 522 422 531 c 0,0,1
EndSplineSet
EndChar

StartChar: V
Encoding: 86 86 57
Width: 623
GlyphClass: 2
Flags: W
LayerCount: 2
Fore
SplineSet
449 537 m 0,0,1
 449 557 449 557 423 557 c 2,2,-1
 399 557 l 1,3,-1
 392 567 l 1,4,-1
 410 650 l 1,5,6
 501 647 501 647 560 647 c 2,7,-1
 680 648 l 1,8,-1
 663 561 l 1,9,10
 646 556 646 556 637.5 545.5 c 128,-1,11
 629 535 629 535 617 506 c 2,12,-1
 418 4 l 1,13,-1
 138 -13 l 1,14,15
 97 385 97 385 85 493 c 1,16,17
 80 527 80 527 70.5 542 c 128,-1,18
 61 557 61 557 42 560 c 1,19,-1
 36 570 l 1,20,-1
 54 649 l 1,21,22
 135 647 135 647 188 647 c 1,23,-1
 376 652 l 1,24,-1
 382 643 l 1,25,-1
 366 559 l 1,26,27
 326 554 326 554 313 543.5 c 128,-1,28
 300 533 300 533 300 507 c 2,29,-1
 306 168 l 1,30,-1
 328 168 l 1,31,32
 449 501 449 501 449 537 c 0,0,1
EndSplineSet
EndChar

StartChar: W
Encoding: 87 87 58
Width: 971
GlyphClass: 2
Flags: W
LayerCount: 2
Fore
SplineSet
762 389 m 128,-1,1
 805 524 805 524 805 537.5 c 128,-1,2
 805 551 805 551 800.5 554 c 128,-1,3
 796 557 796 557 780 557 c 2,4,-1
 757 557 l 1,5,-1
 751 567 l 1,6,-1
 769 650 l 1,7,8
 857 647 857 647 913 647 c 2,9,-1
 1028 648 l 1,10,-1
 1011 561 l 1,11,12
 994 555 994 555 985.5 544.5 c 128,-1,13
 977 534 977 534 966 506 c 2,14,-1
 778 4 l 1,15,-1
 508 -13 l 1,16,-1
 502 272 l 1,17,-1
 488 272 l 1,18,-1
 401 4 l 1,19,-1
 131 -13 l 1,20,21
 93 385 93 385 83 493 c 1,22,23
 76 528 76 528 67.5 542 c 128,-1,24
 59 556 59 556 42 560 c 1,25,-1
 36 570 l 1,26,-1
 55 649 l 1,27,28
 132 647 132 647 183 647 c 1,29,-1
 364 652 l 1,30,-1
 370 643 l 1,31,-1
 353 559 l 1,32,33
 316 553 316 553 302 542 c 128,-1,34
 288 531 288 531 288 508 c 2,35,-1
 293 168 l 1,36,-1
 314 168 l 1,37,38
 384 364 384 364 426 502 c 1,39,40
 431 524 431 524 433 529 c 1,41,42
 435 548 435 548 426 554 c 128,-1,43
 417 560 417 560 384 560 c 1,44,-1
 378 570 l 1,45,-1
 397 649 l 1,46,47
 498 647 498 647 556 647 c 1,48,-1
 736 652 l 1,49,-1
 743 643 l 1,50,-1
 726 559 l 1,51,52
 687 555 687 555 673.5 544.5 c 128,-1,53
 660 534 660 534 660 508 c 2,54,-1
 666 168 l 1,55,-1
 687 168 l 1,56,0
 719 254 719 254 762 389 c 128,-1,1
EndSplineSet
EndChar

StartChar: X
Encoding: 88 88 59
Width: 693
GlyphClass: 2
Flags: W
LayerCount: 2
Fore
SplineSet
365 532 m 0,0,1
 365 508 365 508 390 462 c 0,2,3
 399 446 399 446 410 424 c 1,4,5
 440 469 440 469 447.5 481 c 128,-1,6
 455 493 455 493 464 506 c 1,7,8
 480 533 480 533 480 544 c 0,9,10
 480 561 480 561 447 561 c 1,11,-1
 445 567 l 1,12,-1
 461 647 l 1,13,-1
 614 647 l 1,14,-1
 741 650 l 1,15,-1
 744 642 l 1,16,-1
 728 555 l 1,17,18
 678 532 678 532 649 509 c 128,-1,19
 620 486 620 486 591 446 c 2,20,-1
 484 301 l 1,21,-1
 550 179 l 1,22,23
 576 134 576 134 601 114 c 128,-1,24
 626 94 626 94 660 93 c 1,25,-1
 644 -1 l 1,26,27
 549 2 549 2 512 2 c 1,28,-1
 308 -5 l 1,29,-1
 302 2 l 1,30,-1
 319 86 l 1,31,32
 348 88 348 88 348 109 c 0,33,34
 348 119 348 119 340 133 c 2,35,-1
 294 221 l 1,36,-1
 253 158 l 2,37,38
 233 127 233 127 233 113 c 0,39,40
 233 88 233 88 266 88 c 1,41,-1
 271 77 l 1,42,-1
 256 -4 l 1,43,44
 139 2 139 2 108 2 c 1,45,-1
 -24 -4 l 1,46,-1
 -27 10 l 1,47,-1
 -12 90 l 1,48,49
 10 101 10 101 52 140.5 c 128,-1,50
 94 180 94 180 124 219 c 2,51,-1
 224 346 l 1,52,-1
 162 467 l 2,53,54
 133 523 133 523 98 538 c 0,55,56
 85 544 85 544 58 551 c 1,57,-1
 54 557 l 1,58,-1
 74 648 l 1,59,60
 140 647 140 647 246 647 c 1,61,-1
 416 653 l 1,62,-1
 421 642 l 1,63,-1
 404 560 l 1,64,65
 365 560 365 560 365 532 c 0,0,1
EndSplineSet
EndChar

StartChar: Y
Encoding: 89 89 60
Width: 650
GlyphClass: 2
Flags: W
LayerCount: 2
Fore
SplineSet
332 533 m 0,0,1
 332 500 332 500 365 387 c 1,2,-1
 379 387 l 1,3,-1
 429 501 l 1,4,5
 447 534 447 534 447 547.5 c 128,-1,6
 447 561 447 561 413 561 c 1,7,-1
 411 567 l 1,8,-1
 429 646 l 1,9,-1
 584 646 l 1,10,-1
 695 650 l 1,11,-1
 698 642 l 1,12,-1
 680 555 l 1,13,14
 607 514 607 514 558 429 c 1,15,-1
 448 247 l 1,16,17
 429 212 429 212 422 154 c 0,18,19
 420 142 420 142 420 128 c 128,-1,20
 420 114 420 114 427.5 102.5 c 128,-1,21
 435 91 435 91 463 91 c 1,22,-1
 513 94 l 1,23,-1
 517 88 l 1,24,-1
 497 -6 l 1,25,26
 350 0 350 0 293 0 c 1,27,-1
 92 -9 l 1,28,-1
 111 83 l 1,29,30
 174 88 174 88 195.5 103 c 128,-1,31
 217 118 217 118 222 162 c 0,32,33
 225 186 225 186 225 193 c 0,34,35
 225 226 225 226 208 268 c 2,36,-1
 128 467 l 1,37,38
 108 520 108 520 44 551 c 1,39,-1
 40 557 l 1,40,-1
 61 648 l 1,41,42
 177 646 177 646 209 646 c 1,43,-1
 386 653 l 1,44,-1
 392 642 l 1,45,-1
 373 560 l 1,46,47
 332 560 332 560 332 533 c 0,0,1
EndSplineSet
EndChar

StartChar: Z
Encoding: 90 90 61
Width: 578
GlyphClass: 2
Flags: W
LayerCount: 2
Fore
SplineSet
531 19 m 1,0,-1
 508 -3 l 1,1,-1
 89 3 l 1,2,-1
 8 -7 l 1,3,-1
 -21 51 l 1,4,-1
 353 542 l 1,5,-1
 282 532 l 2,6,7
 225 524 225 524 208 503.5 c 128,-1,8
 191 483 191 483 181 418 c 1,9,-1
 53 409 l 1,10,11
 83 556 83 556 97 649 c 1,12,-1
 109 660 l 1,13,-1
 284 649 l 1,14,-1
 609 649 l 1,15,-1
 627 595 l 1,16,17
 490 432 490 432 247 109 c 1,18,-1
 346 124 l 2,19,20
 393 131 393 131 418 163.5 c 128,-1,21
 443 196 443 196 457 266 c 1,22,-1
 585 275 l 1,23,24
 545 119 545 119 531 19 c 1,0,-1
EndSplineSet
EndChar

StartChar: bracketleft
Encoding: 91 91 62
Width: 317
GlyphClass: 2
Flags: W
LayerCount: 2
Fore
SplineSet
263 -127 m 1,0,-1
 18 -116 l 1,1,2
 63 160 63 160 75 260 c 1,3,-1
 111 639 l 1,4,-1
 362 650 l 1,5,-1
 365 640 l 1,6,-1
 347 556 l 1,7,-1
 257 539 l 1,8,-1
 188 -16 l 1,9,-1
 278 -33 l 1,10,-1
 281 -44 l 1,11,-1
 263 -127 l 1,0,-1
EndSplineSet
EndChar

StartChar: backslash
Encoding: 92 92 63
Width: 319
GlyphClass: 2
Flags: W
LayerCount: 2
Fore
SplineSet
34 655 m 1,0,-1
 54 675 l 1,1,-1
 173 675 l 1,2,-1
 229 226 l 1,3,-1
 276 -95 l 1,4,-1
 263 -110 l 1,5,-1
 137 -110 l 1,6,7
 117 50 117 50 96 215 c 1,8,-1
 34 655 l 1,0,-1
EndSplineSet
EndChar

StartChar: bracketright
Encoding: 93 93 64
Width: 317
GlyphClass: 2
Flags: W
LayerCount: 2
Fore
SplineSet
60 650 m 1,0,-1
 305 639 l 1,1,2
 261 363 261 363 248 263 c 1,3,-1
 212 -116 l 1,4,-1
 -39 -127 l 1,5,-1
 -42 -117 l 1,6,-1
 -23 -33 l 1,7,-1
 67 -16 l 1,8,-1
 135 539 l 1,9,-1
 45 556 l 1,10,-1
 42 567 l 1,11,-1
 60 650 l 1,0,-1
EndSplineSet
EndChar

StartChar: asciicircum
Encoding: 94 94 65
Width: 454
GlyphClass: 2
Flags: W
LayerCount: 2
Fore
SplineSet
326 484 m 1,0,-1
 340 476 l 1,1,2
 375 359 375 359 395 290 c 1,3,-1
 441 152 l 1,4,-1
 343 96 l 1,5,-1
 323 105 l 1,6,7
 323 105 323 105 242 352 c 1,8,-1
 235 352 l 1,9,-1
 101 96 l 1,10,-1
 0 130 l 1,11,-1
 -9 148 l 1,12,13
 36 222 36 222 77 299 c 2,14,-1
 173 477 l 1,15,-1
 326 484 l 1,0,-1
EndSplineSet
EndChar

StartChar: underscore
Encoding: 95 95 66
Width: 434
GlyphClass: 2
Flags: W
LayerCount: 2
Fore
SplineSet
377 -218 m 1,0,-1
 -57 -219 l 1,1,-1
 -66 -200 l 1,2,-1
 -42 -95 l 1,3,-1
 312 -95 l 1,4,-1
 397 -93 l 1,5,-1
 404 -112 l 1,6,-1
 377 -218 l 1,0,-1
EndSplineSet
EndChar

StartChar: grave
Encoding: 96 96 67
Width: 386
GlyphClass: 2
Flags: W
LayerCount: 2
Fore
SplineSet
31 642 m 1,0,-1
 29 659 l 1,1,-1
 101 760 l 1,2,-1
 118 760 l 1,3,4
 211 674 211 674 305 593 c 1,5,-1
 264 532 l 1,6,-1
 242 525 l 1,7,8
 128 592 128 592 31 642 c 1,0,-1
EndSplineSet
EndChar

StartChar: a
Encoding: 97 97 68
Width: 528
GlyphClass: 2
Flags: W
LayerCount: 2
Fore
SplineSet
329 -12 m 0,0,1
 278 -12 278 -12 278 36 c 0,2,3
 278 54 278 54 303 158 c 1,4,-1
 293 158 l 1,5,6
 219 28 219 28 160 -12 c 1,7,8
 89 -12 89 -12 49 29.5 c 128,-1,9
 9 71 9 71 9 145 c 0,10,11
 9 264 9 264 90 368 c 128,-1,12
 171 472 171 472 263 472 c 1,13,-1
 335 452 l 1,14,-1
 340 472 l 1,15,-1
 359 484 l 1,16,-1
 493 472 l 1,17,-1
 501 449 l 1,18,19
 463 285 463 285 442 157 c 1,20,-1
 446 154 l 1,21,22
 454 154 454 154 498 195 c 1,23,-1
 521 191 l 1,24,-1
 541 143 l 1,25,26
 458 51 458 51 415 19.5 c 128,-1,27
 372 -12 372 -12 329 -12 c 0,0,1
206 143 m 0,28,29
 222 143 222 143 254.5 206 c 128,-1,30
 287 269 287 269 307 341 c 1,31,32
 266 367 266 367 233 367 c 0,33,34
 219 367 219 367 205.5 315.5 c 128,-1,35
 192 264 192 264 192 203.5 c 128,-1,36
 192 143 192 143 206 143 c 0,28,29
EndSplineSet
EndChar

StartChar: b
Encoding: 98 98 69
Width: 525
GlyphClass: 2
Flags: W
LayerCount: 2
Fore
SplineSet
16 74 m 1,0,1
 101 584 101 584 101 616 c 128,-1,2
 101 648 101 648 68 648 c 2,3,-1
 40 648 l 1,4,-1
 52 730 l 1,5,6
 133 730 133 730 279 742 c 1,7,-1
 295 722 l 1,8,9
 246 483 246 483 214 302 c 1,10,-1
 224 302 l 1,11,12
 297 432 297 432 354 472 c 1,13,14
 430 472 430 472 471.5 428.5 c 128,-1,15
 513 385 513 385 513 307 c 0,16,17
 513 179 513 179 430.5 83.5 c 128,-1,18
 348 -12 348 -12 238 -12 c 0,19,20
 179 -12 179 -12 127 3 c 128,-1,21
 75 18 75 18 52 33 c 2,22,-1
 30 48 l 1,23,-1
 16 74 l 1,0,1
320 334 m 0,24,25
 303 334 303 334 270 269.5 c 128,-1,26
 237 205 237 205 219 136 c 1,27,28
 249 110 249 110 276 110 c 0,29,30
 300 110 300 110 316.5 155 c 128,-1,31
 333 200 333 200 333 267 c 128,-1,32
 333 334 333 334 320 334 c 0,24,25
EndSplineSet
EndChar

StartChar: c
Encoding: 99 99 70
Width: 393
GlyphClass: 2
Flags: W
LayerCount: 2
Fore
SplineSet
313 311 m 1,0,1
 288 363 288 363 256.5 363 c 128,-1,2
 225 363 225 363 206.5 318.5 c 128,-1,3
 188 274 188 274 188 201 c 128,-1,4
 188 128 188 128 236 128 c 0,5,6
 277 128 277 128 311 202 c 1,7,-1
 332 199 l 1,8,-1
 384 141 l 1,9,10
 360 78 360 78 298.5 33 c 128,-1,11
 237 -12 237 -12 169 -12 c 128,-1,12
 101 -12 101 -12 57 36.5 c 128,-1,13
 13 85 13 85 13 167 c 0,14,15
 13 297 13 297 95.5 390 c 128,-1,16
 178 483 178 483 294 483 c 0,17,18
 360 483 360 483 403 459 c 1,19,-1
 407 441 l 1,20,-1
 356 312 l 1,21,-1
 313 311 l 1,0,1
EndSplineSet
EndChar

StartChar: d
Encoding: 100 100 71
Width: 529
GlyphClass: 2
Flags: W
LayerCount: 2
Fore
SplineSet
329 -12 m 0,0,1
 278 -12 278 -12 278 36 c 0,2,3
 278 54 278 54 303 158 c 1,4,-1
 293 158 l 1,5,6
 221 32 221 32 160 -12 c 1,7,8
 89 -12 89 -12 49 29.5 c 128,-1,9
 9 71 9 71 9 145 c 0,10,11
 9 264 9 264 90 368 c 128,-1,12
 171 472 171 472 263 472 c 1,13,-1
 330 453 l 1,14,15
 353 611 353 611 353 621 c 0,16,17
 353 648 353 648 320 648 c 2,18,-1
 292 648 l 1,19,-1
 304 730 l 1,20,21
 385 730 385 730 531 742 c 1,22,-1
 547 722 l 1,23,24
 475 339 475 339 442 157 c 1,25,-1
 446 154 l 1,26,27
 450 154 450 154 454.5 157.5 c 128,-1,28
 459 161 459 161 498 195 c 1,29,-1
 521 191 l 1,30,-1
 541 143 l 1,31,32
 458 51 458 51 415 19.5 c 128,-1,33
 372 -12 372 -12 329 -12 c 0,0,1
206 143 m 0,34,35
 222 143 222 143 254 205.5 c 128,-1,36
 286 268 286 268 307 341 c 1,37,38
 269 367 269 367 233 367 c 0,39,40
 219 367 219 367 205.5 315 c 128,-1,41
 192 263 192 263 192 203 c 128,-1,42
 192 143 192 143 206 143 c 0,34,35
EndSplineSet
EndChar

StartChar: e
Encoding: 101 101 72
Width: 429
GlyphClass: 2
Flags: W
LayerCount: 2
Fore
SplineSet
434 371 m 0,0,1
 434 302 434 302 378 259 c 128,-1,2
 322 216 322 216 185 175 c 1,3,4
 193 126 193 126 241.5 126 c 128,-1,5
 290 126 290 126 331 197 c 1,6,-1
 353 194 l 1,7,-1
 405 136 l 1,8,9
 380 74 380 74 314 31 c 128,-1,10
 248 -12 248 -12 176 -12 c 128,-1,11
 104 -12 104 -12 59 38.5 c 128,-1,12
 14 89 14 89 14 173 c 0,13,14
 14 300 14 300 97 391.5 c 128,-1,15
 180 483 180 483 296 483 c 0,16,17
 360 483 360 483 397 453 c 128,-1,18
 434 423 434 423 434 371 c 0,0,1
259 363 m 0,19,20
 203 363 203 363 188 257 c 1,21,22
 284 294 284 294 284 340 c 0,23,24
 284 363 284 363 259 363 c 0,19,20
EndSplineSet
EndChar

StartChar: f
Encoding: 102 102 73
Width: 326
GlyphClass: 2
Flags: W
LayerCount: 2
Fore
SplineSet
399 742 m 0,0,1
 465 742 465 742 510 727 c 1,2,-1
 514 716 l 1,3,-1
 455 585 l 1,4,-1
 435 582 l 1,5,6
 380 625 380 625 347.5 625 c 128,-1,7
 315 625 315 625 299.5 606.5 c 128,-1,8
 284 588 284 588 278 541 c 2,9,-1
 269 461 l 1,10,-1
 394 461 l 1,11,-1
 401 454 l 1,12,-1
 389 379 l 1,13,-1
 267 380 l 1,14,-1
 259 375 l 1,15,-1
 218 -6 l 2,16,17
 209 -90 209 -90 131 -166 c 128,-1,18
 53 -242 53 -242 -24 -242 c 0,19,20
 -72 -242 -72 -242 -110 -224 c 128,-1,21
 -148 -206 -148 -206 -158 -180 c 1,22,23
 -149 -151 -149 -151 -127.5 -110 c 128,-1,24
 -106 -69 -106 -69 -88 -48 c 1,25,-1
 -68 -48 l 1,26,27
 -64 -92 -64 -92 -48 -109.5 c 128,-1,28
 -32 -127 -32 -127 1 -127 c 128,-1,29
 34 -127 34 -127 51.5 -106 c 128,-1,30
 69 -85 69 -85 69 -46 c 2,31,-1
 69 8 l 1,32,-1
 94 369 l 1,33,-1
 83 379 l 1,34,-1
 9 379 l 1,35,-1
 6 384 l 1,36,-1
 14 450 l 1,37,-1
 102 463 l 1,38,-1
 107 511 l 2,39,40
 116 597 116 597 209 669.5 c 128,-1,41
 302 742 302 742 399 742 c 0,0,1
EndSplineSet
EndChar

StartChar: g
Encoding: 103 103 74
Width: 501
GlyphClass: 2
Flags: W
LayerCount: 2
Fore
SplineSet
211 143 m 128,-1,1
 227 143 227 143 259 206 c 128,-1,2
 291 269 291 269 311 342 c 1,3,4
 273 367 273 367 238 367 c 0,5,6
 223 367 223 367 209 316 c 128,-1,7
 195 265 195 265 195 204 c 128,-1,0
 195 143 195 143 211 143 c 128,-1,1
87 -72 m 0,8,9
 87 -91 87 -91 113.5 -104 c 128,-1,10
 140 -117 140 -117 184.5 -117 c 128,-1,11
 229 -117 229 -117 260.5 -87 c 128,-1,12
 292 -57 292 -57 299 0 c 2,13,-1
 320 174 l 1,14,-1
 310 177 l 1,15,16
 246 78 246 78 219 43 c 128,-1,17
 192 8 192 8 166.5 -8.5 c 128,-1,18
 141 -25 141 -25 114 -46.5 c 128,-1,19
 87 -68 87 -68 87 -72 c 0,8,9
-23.5 -203.5 m 128,-1,21
 -75 -165 -75 -165 -75 -111 c 0,22,23
 -75 -98 -75 -98 -70 -82 c 1,24,25
 -14 -51 -14 -51 87 -5 c 1,26,-1
 88 2 l 1,27,28
 13 35 13 35 13 149 c 128,-1,29
 13 263 13 263 94.5 368 c 128,-1,30
 176 473 176 473 267 473 c 1,31,-1
 339 452 l 1,32,-1
 344 473 l 1,33,-1
 364 484 l 1,34,-1
 497 473 l 1,35,-1
 512 445 l 1,36,37
 481 370 481 370 471 281 c 0,38,39
 469 269 469 269 462 170 c 128,-1,40
 455 71 455 71 451 35 c 0,41,42
 441 -48 441 -48 326 -144 c 1,43,44
 211 -242 211 -242 119.5 -242 c 128,-1,20
 28 -242 28 -242 -23.5 -203.5 c 128,-1,21
EndSplineSet
EndChar

StartChar: h
Encoding: 104 104 75
Width: 524
GlyphClass: 2
Flags: W
LayerCount: 2
Fore
SplineSet
15 16 m 1,0,1
 110 611 110 611 110 621 c 0,2,3
 110 648 110 648 77 648 c 2,4,-1
 49 648 l 1,5,-1
 61 730 l 1,6,7
 141 730 141 730 289 742 c 1,8,-1
 304 721 l 1,9,10
 253 484 253 484 223 302 c 1,11,-1
 230 303 l 1,12,13
 293 448 293 448 348 485 c 1,14,15
 418 485 418 485 457.5 456.5 c 128,-1,16
 497 428 497 428 497 378 c 0,17,18
 497 354 497 354 468.5 263.5 c 128,-1,19
 440 173 440 173 438 160 c 1,20,-1
 441 157 l 1,21,22
 448 157 448 157 493 198 c 1,23,-1
 517 194 l 1,24,-1
 536 146 l 1,25,26
 457 57 457 57 412.5 24 c 128,-1,27
 368 -9 368 -9 330 -9 c 128,-1,28
 292 -9 292 -9 276 5 c 128,-1,29
 260 19 260 19 260 45.5 c 128,-1,30
 260 72 260 72 290.5 172 c 128,-1,31
 321 272 321 272 321 295.5 c 128,-1,32
 321 319 321 319 303 319 c 0,33,34
 287 319 287 319 255 258.5 c 128,-1,35
 223 198 223 198 190 104 c 1,36,-1
 183 45 l 2,37,38
 180 24 180 24 136 8.5 c 128,-1,39
 92 -7 92 -7 35 -7 c 1,40,-1
 15 16 l 1,0,1
EndSplineSet
EndChar

StartChar: i
Encoding: 105 105 76
Width: 304
GlyphClass: 2
Flags: W
LayerCount: 2
Fore
SplineSet
264.5 579.5 m 128,-1,1
 233 547 233 547 188 547 c 0,2,3
 104 547 104 547 104 625 c 0,4,5
 104 679 104 679 135.5 710.5 c 128,-1,6
 167 742 167 742 220 742 c 0,7,8
 296 742 296 742 296 667 c 0,9,0
 296 612 296 612 264.5 579.5 c 128,-1,1
101 -12 m 0,10,11
 35 -12 35 -12 35 55 c 1,12,13
 80 317 80 317 80 348 c 128,-1,14
 80 379 80 379 47 379 c 2,15,-1
 19 379 l 1,16,-1
 31 461 l 1,17,18
 110 461 110 461 254 473 c 1,19,-1
 270 453 l 1,20,21
 233 308 233 308 212 157 c 1,22,-1
 216 154 l 1,23,24
 222 154 222 154 268 195 c 1,25,-1
 291 191 l 1,26,-1
 311 143 l 1,27,28
 233 53 233 53 188 20.5 c 128,-1,29
 143 -12 143 -12 101 -12 c 0,10,11
EndSplineSet
EndChar

StartChar: j
Encoding: 106 106 77
Width: 300
GlyphClass: 2
Flags: W
LayerCount: 2
Fore
SplineSet
50 33 m 1,0,1
 99 317 99 317 99 348 c 128,-1,2
 99 379 99 379 66 379 c 2,3,-1
 38 379 l 1,4,-1
 50 461 l 1,5,6
 129 461 129 461 273 473 c 1,7,-1
 289 453 l 1,8,9
 252 305 252 305 208 14 c 1,10,11
 198 -63 198 -63 136 -134 c 128,-1,12
 74 -205 74 -205 -22 -248 c 1,13,-1
 -64 -205 l 1,14,-1
 -60 -190 l 1,15,16
 -6 -148 -6 -148 16.5 -102.5 c 128,-1,17
 39 -57 39 -57 50 33 c 1,0,1
283.5 579.5 m 128,-1,19
 252 547 252 547 208 547 c 0,20,21
 123 547 123 547 123 625 c 0,22,23
 123 679 123 679 154.5 710.5 c 128,-1,24
 186 742 186 742 239 742 c 0,25,26
 315 742 315 742 315 667 c 0,27,18
 315 612 315 612 283.5 579.5 c 128,-1,19
EndSplineSet
EndChar

StartChar: k
Encoding: 107 107 78
Width: 491
GlyphClass: 2
Flags: W
LayerCount: 2
Fore
SplineSet
332 296 m 128,-1,1
 332 319 332 319 313 319 c 128,-1,2
 294 319 294 319 259.5 258.5 c 128,-1,3
 225 198 225 198 190 104 c 1,4,-1
 183 45 l 2,5,6
 180 24 180 24 136 8.5 c 128,-1,7
 92 -7 92 -7 35 -7 c 1,8,-1
 15 16 l 1,9,10
 110 581 110 581 110 614.5 c 128,-1,11
 110 648 110 648 77 648 c 2,12,-1
 49 648 l 1,13,-1
 61 730 l 1,14,15
 141 730 141 730 289 742 c 1,16,-1
 304 721 l 1,17,18
 253 484 253 484 223 302 c 1,19,-1
 230 303 l 1,20,21
 293 449 293 449 348 485 c 1,22,23
 422 485 422 485 464 455.5 c 128,-1,24
 506 426 506 426 506 374 c 0,25,26
 506 280 506 280 394 197 c 1,27,-1
 476 30 l 1,28,-1
 472 9 l 1,29,-1
 310 -13 l 1,30,-1
 297 -6 l 1,31,-1
 245 197 l 1,32,-1
 255 216 l 1,33,34
 283 225 283 225 307.5 249 c 128,-1,0
 332 273 332 273 332 296 c 128,-1,1
EndSplineSet
EndChar

StartChar: l
Encoding: 108 108 79
Width: 291
GlyphClass: 2
Flags: W
LayerCount: 2
Fore
SplineSet
88 -12 m 0,0,1
 22 -12 22 -12 22 55 c 0,2,3
 22 74 22 74 66 338 c 128,-1,4
 110 602 110 602 110 615 c 0,5,6
 110 648 110 648 77 648 c 2,7,-1
 49 648 l 1,8,-1
 61 730 l 1,9,10
 142 730 142 730 288 742 c 1,11,-1
 304 722 l 1,12,13
 220 308 220 308 199 157 c 1,14,-1
 203 154 l 1,15,16
 209 154 209 154 255 195 c 1,17,-1
 278 191 l 1,18,-1
 298 143 l 1,19,20
 220 53 220 53 175 20.5 c 128,-1,21
 130 -12 130 -12 88 -12 c 0,0,1
EndSplineSet
EndChar

StartChar: m
Encoding: 109 109 80
Width: 795
GlyphClass: 2
Flags: W
LayerCount: 2
Fore
SplineSet
29 16 m 1,0,1
 82 338 82 338 82 350 c 0,2,3
 82 379 82 379 49 379 c 2,4,-1
 21 379 l 1,5,-1
 33 461 l 1,6,7
 112 461 112 461 256 473 c 1,8,-1
 270 452 l 1,9,10
 248 375 248 375 237 302 c 1,11,-1
 244 303 l 1,12,13
 307 449 307 449 362 485 c 1,14,15
 430 485 430 485 469 457 c 128,-1,16
 508 429 508 429 508 379 c 0,17,18
 508 356 508 356 494 302 c 1,19,-1
 501 303 l 1,20,21
 564 449 564 449 619 485 c 1,22,23
 689 485 689 485 728.5 456.5 c 128,-1,24
 768 428 768 428 768 378 c 0,25,26
 768 354 768 354 739.5 263.5 c 128,-1,27
 711 173 711 173 709 160 c 1,28,-1
 712 157 l 1,29,30
 717 157 717 157 764 198 c 1,31,-1
 788 194 l 1,32,-1
 807 146 l 1,33,34
 728 57 728 57 683 24 c 128,-1,35
 638 -9 638 -9 600.5 -9 c 128,-1,36
 563 -9 563 -9 547 5 c 128,-1,37
 531 19 531 19 531 45.5 c 128,-1,38
 531 72 531 72 561.5 172 c 128,-1,39
 592 272 592 272 592 295.5 c 128,-1,40
 592 319 592 319 574 319 c 128,-1,41
 556 319 556 319 519 254.5 c 128,-1,42
 482 190 482 190 445 93 c 1,43,-1
 440 45 l 2,44,45
 438 24 438 24 393.5 8.5 c 128,-1,46
 349 -7 349 -7 292 -7 c 1,47,-1
 272 16 l 1,48,49
 336 258 336 258 336 296 c 0,50,51
 336 319 336 319 317 319 c 0,52,53
 301 319 301 319 269 258.5 c 128,-1,54
 237 198 237 198 204 104 c 1,55,-1
 197 45 l 2,56,57
 194 24 194 24 150 8.5 c 128,-1,58
 106 -7 106 -7 49 -7 c 1,59,-1
 29 16 l 1,0,1
EndSplineSet
EndChar

StartChar: n
Encoding: 110 110 81
Width: 538
GlyphClass: 2
Flags: W
LayerCount: 2
Fore
SplineSet
29 16 m 1,0,1
 82 338 82 338 82 350 c 0,2,3
 82 379 82 379 49 379 c 2,4,-1
 21 379 l 1,5,-1
 33 461 l 1,6,7
 112 461 112 461 256 473 c 1,8,-1
 270 452 l 1,9,10
 248 375 248 375 237 302 c 1,11,-1
 244 303 l 1,12,13
 307 448 307 448 362 485 c 1,14,15
 432 485 432 485 471.5 456.5 c 128,-1,16
 511 428 511 428 511 378 c 0,17,18
 511 354 511 354 482.5 263.5 c 128,-1,19
 454 173 454 173 452 160 c 1,20,-1
 455 157 l 1,21,22
 462 157 462 157 507 198 c 1,23,-1
 531 194 l 1,24,-1
 550 146 l 1,25,26
 471 57 471 57 426.5 24 c 128,-1,27
 382 -9 382 -9 344 -9 c 128,-1,28
 306 -9 306 -9 290 5 c 128,-1,29
 274 19 274 19 274 45.5 c 128,-1,30
 274 72 274 72 304.5 172 c 128,-1,31
 335 272 335 272 335 295.5 c 128,-1,32
 335 319 335 319 317 319 c 0,33,34
 301 319 301 319 269 258.5 c 128,-1,35
 237 198 237 198 204 104 c 1,36,-1
 197 45 l 2,37,38
 194 24 194 24 150 8.5 c 128,-1,39
 106 -7 106 -7 49 -7 c 1,40,-1
 29 16 l 1,0,1
EndSplineSet
EndChar

StartChar: o
Encoding: 111 111 82
Width: 486
GlyphClass: 2
Flags: W
LayerCount: 2
Fore
SplineSet
236 95 m 0,0,1
 263 95 263 95 275 135.5 c 128,-1,2
 287 176 287 176 287 248.5 c 128,-1,3
 287 321 287 321 278.5 342.5 c 128,-1,4
 270 364 270 364 249 364 c 0,5,6
 225 364 225 364 211 318.5 c 128,-1,7
 197 273 197 273 197 195 c 0,8,9
 197 95 197 95 236 95 c 0,0,1
198 -12 m 0,10,11
 112 -12 112 -12 65.5 39 c 128,-1,12
 19 90 19 90 19 184 c 0,13,14
 19 320 19 320 93 402 c 128,-1,15
 167 484 167 484 289 484 c 0,16,17
 376 484 376 484 422 435.5 c 128,-1,18
 468 387 468 387 468 295 c 0,19,20
 468 156 468 156 394 72 c 128,-1,21
 320 -12 320 -12 198 -12 c 0,10,11
EndSplineSet
EndChar

StartChar: p
Encoding: 112 112 83
Width: 539
GlyphClass: 2
Flags: W
LayerCount: 2
Fore
SplineSet
76 346 m 128,-1,1
 76 379 76 379 43 379 c 2,2,-1
 15 379 l 1,3,-1
 27 461 l 1,4,5
 106 461 106 461 250 473 c 1,6,-1
 266 454 l 1,7,8
 247 390 247 390 232 314 c 1,9,-1
 241 314 l 1,10,11
 303 433 303 433 369 484 c 1,12,13
 445 484 445 484 487.5 442 c 128,-1,14
 530 400 530 400 530 326 c 0,15,16
 530 206 530 206 447.5 103 c 128,-1,17
 365 0 365 0 276 0 c 1,18,-1
 179 20 l 1,19,20
 162 -105 162 -105 162 -116.5 c 128,-1,21
 162 -128 162 -128 169 -136.5 c 128,-1,22
 176 -145 176 -145 205 -145 c 2,23,-1
 251 -145 l 1,24,-1
 252 -151 l 1,25,-1
 236 -230 l 1,26,-1
 -68 -237 l 1,27,-1
 -52 -155 l 1,28,29
 -24 -151 -24 -151 -12 -138 c 128,-1,30
 0 -125 0 -125 12.5 -69.5 c 128,-1,31
 25 -14 25 -14 50.5 149.5 c 128,-1,0
 76 313 76 313 76 346 c 128,-1,1
336 347 m 0,32,33
 327 347 327 347 309.5 322.5 c 128,-1,34
 292 298 292 298 270.5 250.5 c 128,-1,35
 249 203 249 203 234 149 c 1,36,37
 272 123 272 123 308 123 c 0,38,39
 324 123 324 123 336.5 177 c 128,-1,40
 349 231 349 231 349 289 c 128,-1,41
 349 347 349 347 336 347 c 0,32,33
EndSplineSet
EndChar

StartChar: q
Encoding: 113 113 84
Width: 506
GlyphClass: 2
Flags: W
LayerCount: 2
Fore
SplineSet
9 145 m 0,0,1
 9 264 9 264 90 368 c 128,-1,2
 171 472 171 472 263 472 c 1,3,-1
 335 452 l 1,4,-1
 348 500 l 1,5,-1
 368 512 l 1,6,-1
 500 498 l 1,7,-1
 507 475 l 1,8,9
 405 -7 405 -7 405 -118 c 0,10,11
 405 -134 405 -134 409.5 -140 c 128,-1,12
 414 -146 414 -146 427 -146 c 2,13,-1
 453 -145 l 1,14,-1
 456 -149 l 1,15,-1
 439 -230 l 1,16,17
 268 -230 268 -230 150 -242 c 1,18,-1
 166 -160 l 1,19,20
 214 -158 214 -158 229.5 -146.5 c 128,-1,21
 245 -135 245 -135 252 -97 c 2,22,-1
 279 47 l 1,23,-1
 303 158 l 1,24,-1
 293 158 l 1,25,26
 221 32 221 32 160 -12 c 1,27,28
 89 -12 89 -12 49 29.5 c 128,-1,29
 9 71 9 71 9 145 c 0,0,1
206 143 m 0,30,31
 222 143 222 143 254 205.5 c 128,-1,32
 286 268 286 268 307 341 c 1,33,34
 269 367 269 367 233 367 c 0,35,36
 219 367 219 367 205.5 315 c 128,-1,37
 192 263 192 263 192 203 c 128,-1,38
 192 143 192 143 206 143 c 0,30,31
EndSplineSet
EndChar

StartChar: r
Encoding: 114 114 85
Width: 416
GlyphClass: 2
Flags: W
LayerCount: 2
Fore
SplineSet
29 16 m 1,0,1
 82 311 82 311 82 345 c 128,-1,2
 82 379 82 379 49 379 c 2,3,-1
 21 379 l 1,4,-1
 33 461 l 1,5,6
 112 461 112 461 256 473 c 1,7,-1
 270 452 l 1,8,9
 251 385 251 385 242 322 c 1,10,-1
 249 323 l 1,11,12
 271 386 271 386 308.5 435 c 128,-1,13
 346 484 346 484 371 484 c 1,14,15
 432 442 432 442 432 356 c 0,16,17
 432 328 432 328 415 283 c 1,18,-1
 396 274 l 1,19,20
 376 294 376 294 343 294 c 0,21,22
 268 294 268 294 205 114 c 1,23,-1
 197 45 l 2,24,25
 194 24 194 24 150 8.5 c 128,-1,26
 106 -7 106 -7 49 -7 c 1,27,-1
 29 16 l 1,0,1
EndSplineSet
EndChar

StartChar: s
Encoding: 115 115 86
Width: 402
GlyphClass: 2
Flags: W
LayerCount: 2
Fore
SplineSet
107 127 m 128,-1,1
 131 106 131 106 166.5 106 c 128,-1,2
 202 106 202 106 202 131 c 0,3,4
 202 146 202 146 186 156 c 0,5,6
 181 159 181 159 178 161 c 128,-1,7
 175 163 175 163 168.5 166 c 128,-1,8
 162 169 162 169 159 170 c 0,9,10
 140 180 140 180 124.5 187.5 c 128,-1,11
 109 195 109 195 91.5 206 c 128,-1,12
 74 217 74 217 58 242.5 c 128,-1,13
 42 268 42 268 42 301 c 0,14,15
 42 380 42 380 105.5 432 c 128,-1,16
 169 484 169 484 265 484 c 128,-1,17
 361 484 361 484 416 442 c 1,18,19
 384 364 384 364 353 314 c 1,20,-1
 328 314 l 1,21,22
 305 361 305 361 268 361 c 0,23,24
 254 361 254 361 244 353 c 128,-1,25
 234 345 234 345 234 333 c 0,26,27
 234 316 234 316 264 301 c 0,28,29
 268 299 268 299 293.5 287 c 128,-1,30
 319 275 319 275 330 268 c 128,-1,31
 341 261 341 261 358 246 c 0,32,33
 391 218 391 218 391 168 c 0,34,35
 391 90 391 90 323.5 39 c 128,-1,36
 256 -12 256 -12 153 -12 c 0,37,38
 93 -12 93 -12 48 6.5 c 128,-1,39
 3 25 3 25 -7 53 c 1,40,41
 -2 81 -2 81 16 119.5 c 128,-1,42
 34 158 34 158 53 180 c 1,43,-1
 80 178 l 1,44,0
 83 148 83 148 107 127 c 128,-1,1
EndSplineSet
EndChar

StartChar: t
Encoding: 116 116 87
Width: 331
GlyphClass: 2
Flags: W
LayerCount: 2
Fore
SplineSet
176 -12 m 0,0,1
 106 -12 106 -12 74.5 20.5 c 128,-1,2
 43 53 43 53 43 102 c 0,3,4
 43 112 43 112 44 123 c 2,5,-1
 88 371 l 1,6,-1
 79 379 l 1,7,-1
 25 379 l 1,8,-1
 22 384 l 1,9,-1
 30 450 l 1,10,-1
 102 461 l 1,11,-1
 116 572 l 1,12,-1
 284 607 l 1,13,-1
 298 595 l 1,14,15
 281 529 281 529 267 461 c 1,16,-1
 362 461 l 1,17,-1
 369 454 l 1,18,-1
 357 379 l 1,19,-1
 263 380 l 1,20,-1
 250 372 l 1,21,22
 215 178 215 178 215 173 c 0,23,24
 215 150 215 150 233 150 c 128,-1,25
 251 150 251 150 291 195 c 1,26,-1
 313 191 l 1,27,-1
 334 141 l 1,28,29
 285 72 285 72 242 30 c 128,-1,30
 199 -12 199 -12 176 -12 c 0,0,1
EndSplineSet
EndChar

StartChar: u
Encoding: 117 117 88
Width: 531
GlyphClass: 2
Flags: W
LayerCount: 2
Fore
SplineSet
35 98 m 0,0,1
 35 124 35 124 63.5 223 c 128,-1,2
 92 322 92 322 92 346 c 0,3,4
 92 379 92 379 59 379 c 2,5,-1
 31 379 l 1,6,-1
 43 461 l 1,7,8
 122 461 122 461 266 473 c 1,9,-1
 282 453 l 1,10,11
 209 211 209 211 209 184 c 128,-1,12
 209 157 209 157 225 157 c 0,13,14
 243 157 243 157 275.5 216 c 128,-1,15
 308 275 308 275 342 372 c 1,16,-1
 353 462 l 1,17,-1
 373 474 l 1,18,-1
 482 472 l 1,19,-1
 502 449 l 1,20,21
 465 285 465 285 444 157 c 1,22,-1
 448 154 l 1,23,24
 454 154 454 154 500 195 c 1,25,-1
 523 191 l 1,26,-1
 543 143 l 1,27,28
 460 51 460 51 417 19.5 c 128,-1,29
 374 -12 374 -12 331 -12 c 0,30,31
 280 -12 280 -12 280 36 c 0,32,33
 280 49 280 49 310 174 c 1,34,-1
 301 173 l 1,35,36
 236 27 236 27 184 -9 c 1,37,38
 114 -9 114 -9 74.5 19.5 c 128,-1,39
 35 48 35 48 35 98 c 0,0,1
EndSplineSet
EndChar

StartChar: v
Encoding: 118 118 89
Width: 482
GlyphClass: 2
Flags: W
LayerCount: 2
Fore
SplineSet
237 145 m 1,0,-1
 254 145 l 1,1,2
 313 295 313 295 313 342.5 c 128,-1,3
 313 390 313 390 261 409 c 1,4,-1
 272 457 l 1,5,-1
 460 484 l 1,6,7
 487 452 487 452 487 385 c 0,8,9
 487 275 487 275 289 0 c 1,10,-1
 116 -12 l 1,11,-1
 98 8 l 1,12,13
 84 207 84 207 57 352 c 0,14,15
 52 382 52 382 31 382 c 2,16,-1
 -1 381 l 1,17,-1
 5 460 l 1,18,-1
 213 476 l 1,19,-1
 224 467 l 1,20,21
 237 331 237 331 237 145 c 1,0,-1
EndSplineSet
EndChar

StartChar: w
Encoding: 119 119 90
Width: 725
GlyphClass: 2
Flags: W
LayerCount: 2
Fore
SplineSet
237 145 m 1,0,-1
 254 145 l 1,1,2
 298 261 298 261 313 312 c 1,3,-1
 290 433 l 1,4,-1
 300 452 l 1,5,-1
 452 484 l 1,6,7
 480 451 480 451 480 391 c 0,8,9
 480 367 480 367 468 326 c 1,10,-1
 480 145 l 1,11,-1
 497 145 l 1,12,13
 556 297 556 297 556 343.5 c 128,-1,14
 556 390 556 390 504 409 c 1,15,-1
 515 457 l 1,16,-1
 703 484 l 1,17,18
 730 450 730 450 730 382 c 0,19,20
 730 275 730 275 532 0 c 1,21,-1
 389 -12 l 1,22,-1
 371 8 l 1,23,-1
 359 143 l 1,24,-1
 348 143 l 1,25,26
 314 65 314 65 279 0 c 1,27,-1
 116 -12 l 1,28,-1
 98 8 l 1,29,30
 84 207 84 207 57 352 c 0,31,32
 52 382 52 382 31 382 c 2,33,-1
 -1 381 l 1,34,-1
 5 460 l 1,35,-1
 213 476 l 1,36,-1
 224 467 l 1,37,38
 237 331 237 331 237 145 c 1,0,-1
EndSplineSet
EndChar

StartChar: x
Encoding: 120 120 91
Width: 502
GlyphClass: 2
Flags: W
LayerCount: 2
Fore
SplineSet
432 484 m 0,0,1
 484 484 484 484 526 445 c 1,2,3
 493 362 493 362 459 296 c 1,4,-1
 433 296 l 1,5,6
 426 325 426 325 416 338 c 128,-1,7
 406 351 406 351 390 351 c 0,8,9
 357 351 357 351 326 273 c 1,10,11
 353 180 353 180 366.5 150 c 128,-1,12
 380 120 380 120 399 120 c 128,-1,13
 418 120 418 120 445 156 c 1,14,-1
 456 156 l 1,15,-1
 482 99 l 1,16,17
 423 39 423 39 382.5 13.5 c 128,-1,18
 342 -12 342 -12 302 -12 c 128,-1,19
 262 -12 262 -12 241.5 13 c 128,-1,20
 221 38 221 38 198 114 c 1,21,22
 139 -12 139 -12 70 -12 c 0,23,24
 15 -12 15 -12 -25 27 c 1,25,26
 2 101 2 101 42 176 c 1,27,-1
 68 176 l 1,28,29
 80 121 80 121 111.5 121 c 128,-1,30
 143 121 143 121 174 199 c 1,31,32
 147 292 147 292 133.5 322 c 128,-1,33
 120 352 120 352 101.5 352 c 128,-1,34
 83 352 83 352 56 316 c 1,35,-1
 45 316 l 1,36,-1
 19 373 l 1,37,38
 77 433 77 433 118 458.5 c 128,-1,39
 159 484 159 484 198 484 c 128,-1,40
 237 484 237 484 257.5 459 c 128,-1,41
 278 434 278 434 302 358 c 1,42,43
 361 484 361 484 432 484 c 0,0,1
EndSplineSet
EndChar

StartChar: y
Encoding: 121 121 92
Width: 488
GlyphClass: 2
Flags: W
LayerCount: 2
Fore
SplineSet
493 385 m 0,0,1
 493 271 493 271 295 0 c 1,2,3
 195 -133 195 -133 123.5 -187.5 c 128,-1,4
 52 -242 52 -242 -22 -242 c 0,5,6
 -65 -242 -65 -242 -102.5 -222.5 c 128,-1,7
 -140 -203 -140 -203 -148 -177 c 1,8,9
 -142 -146 -142 -146 -121.5 -103 c 128,-1,10
 -101 -60 -101 -60 -81 -36 c 1,11,-1
 -55 -38 l 1,12,13
 -54 -75 -54 -75 -32.5 -99.5 c 128,-1,14
 -11 -124 -11 -124 20 -124 c 0,15,16
 64 -124 64 -124 124 -56 c 1,17,18
 85 257 85 257 63 352 c 0,19,20
 56 382 56 382 32 382 c 2,21,-1
 5 381 l 1,22,-1
 11 460 l 1,23,-1
 219 476 l 1,24,-1
 230 467 l 1,25,26
 237 349 237 349 239 133 c 1,27,-1
 253 133 l 1,28,29
 319 274 319 274 319 340 c 0,30,31
 319 390 319 390 267 409 c 1,32,-1
 278 457 l 1,33,-1
 466 484 l 1,34,35
 493 452 493 452 493 385 c 0,0,1
EndSplineSet
EndChar

StartChar: z
Encoding: 122 122 93
Width: 454
GlyphClass: 2
Flags: W
LayerCount: 2
Fore
SplineSet
229 152 m 1,0,-1
 324 145 l 1,1,2
 348 145 348 145 366 168.5 c 128,-1,3
 384 192 384 192 388 230 c 1,4,-1
 419 230 l 1,5,6
 437 198 437 198 437 134.5 c 128,-1,7
 437 71 437 71 398 29.5 c 128,-1,8
 359 -12 359 -12 301 -12 c 0,9,10
 270 -12 270 -12 214 10 c 128,-1,11
 158 32 158 32 131 32 c 0,12,13
 70 32 70 32 10 -6 c 1,14,-1
 -18 39 l 1,15,-1
 249 330 l 1,16,-1
 208 331 l 1,17,18
 165 331 165 331 144 316 c 128,-1,19
 123 301 123 301 110 262 c 1,20,-1
 37 257 l 1,21,22
 66 372 66 372 82 473 c 1,23,-1
 125 484 l 1,24,25
 257 455 257 455 310.5 455 c 128,-1,26
 364 455 364 455 385 479 c 2,27,-1
 411 508 l 1,28,-1
 479 444 l 1,29,-1
 483 424 l 1,30,31
 343 292 343 292 207 149 c 1,32,-1
 229 152 l 1,0,-1
EndSplineSet
EndChar

StartChar: braceleft
Encoding: 123 123 94
Width: 326
GlyphClass: 2
Flags: W
LayerCount: 2
Fore
SplineSet
260 495 m 1,0,-1
 272 385 l 1,1,2
 272 350 272 350 250.5 325 c 128,-1,3
 229 300 229 300 190 290 c 1,4,-1
 189 285 l 1,5,6
 250 264 250 264 250 206 c 0,7,8
 250 182 250 182 227 121 c 128,-1,9
 204 60 204 60 204 38.5 c 128,-1,10
 204 17 204 17 216.5 4 c 128,-1,11
 229 -9 229 -9 251 -9 c 1,12,-1
 281 -4 l 1,13,-1
 292 -17 l 1,14,-1
 268 -100 l 1,15,16
 229 -123 229 -123 165 -123 c 128,-1,17
 101 -123 101 -123 63 -92.5 c 128,-1,18
 25 -62 25 -62 25 -22.5 c 128,-1,19
 25 17 25 17 62.5 83.5 c 128,-1,20
 100 150 100 150 100 170 c 0,21,22
 100 217 100 217 39 235 c 1,23,-1
 53 311 l 1,24,25
 88 322 88 322 107 340.5 c 128,-1,26
 126 359 126 359 126 379.5 c 128,-1,27
 126 400 126 400 109.5 454 c 128,-1,28
 93 508 93 508 93 533 c 0,29,30
 93 588 93 588 146 623.5 c 128,-1,31
 199 659 199 659 280 659 c 0,32,33
 316 659 316 659 368 647 c 1,34,-1
 376 631 l 1,35,-1
 348 548 l 1,36,37
 329 553 329 553 309 553 c 128,-1,38
 289 553 289 553 274.5 537.5 c 128,-1,39
 260 522 260 522 260 495 c 1,0,-1
EndSplineSet
EndChar

StartChar: bar
Encoding: 124 124 95
Width: 280
GlyphClass: 2
Flags: W
LayerCount: 2
Fore
SplineSet
257 807 m 1,0,-1
 276 791 l 1,1,2
 229 457 229 457 209 291 c 2,3,-1
 143 -258 l 1,4,-1
 25 -269 l 1,5,-1
 12 -253 l 1,6,7
 19 -195 19 -195 143 796 c 1,8,-1
 257 807 l 1,0,-1
EndSplineSet
EndChar

StartChar: braceright
Encoding: 125 125 96
Width: 326
GlyphClass: 2
Flags: W
LayerCount: 2
Fore
SplineSet
74 43 m 1,0,-1
 63 159 l 1,1,2
 63 233 63 233 145 256 c 1,3,-1
 146 261 l 1,4,5
 85 282 85 282 85 340 c 0,6,7
 85 363 85 363 107.5 420 c 128,-1,8
 130 477 130 477 130 498 c 128,-1,9
 130 519 130 519 117.5 532 c 128,-1,10
 105 545 105 545 83 545 c 1,11,-1
 53 540 l 1,12,-1
 42 553 l 1,13,-1
 66 636 l 1,14,15
 105 659 105 659 169 659 c 128,-1,16
 233 659 233 659 271 628.5 c 128,-1,17
 309 598 309 598 309 559.5 c 128,-1,18
 309 521 309 521 272.5 458 c 128,-1,19
 236 395 236 395 236 376 c 0,20,21
 236 322 236 322 296 311 c 1,22,-1
 283 235 l 1,23,24
 250 227 250 227 230 207.5 c 128,-1,25
 210 188 210 188 210 167 c 128,-1,26
 210 146 210 146 226 92 c 128,-1,27
 242 38 242 38 242 13 c 0,28,29
 242 -47 242 -47 189 -85 c 128,-1,30
 136 -123 136 -123 54 -123 c 0,31,32
 18 -123 18 -123 -34 -111 c 1,33,-1
 -42 -95 l 1,34,-1
 -14 -12 l 1,35,36
 5 -17 5 -17 25 -17 c 128,-1,37
 45 -17 45 -17 59.5 -1 c 128,-1,38
 74 15 74 15 74 43 c 1,0,-1
EndSplineSet
EndChar

StartChar: asciitilde
Encoding: 126 126 97
Width: 490
GlyphClass: 2
Flags: W
LayerCount: 2
Fore
SplineSet
245.5 325 m 128,-1,1
 320 308 320 308 336 308 c 0,2,3
 365 308 365 308 416 352 c 1,4,-1
 433 366 l 1,5,-1
 449 366 l 1,6,-1
 491 310 l 1,7,-1
 489 294 l 1,8,-1
 369 179 l 1,9,-1
 347 175 l 1,10,11
 324 175 324 175 249.5 192 c 128,-1,12
 175 209 175 209 159 209 c 0,13,14
 130 209 130 209 79 166 c 1,15,-1
 62 151 l 1,16,-1
 46 151 l 1,17,-1
 4 207 l 1,18,-1
 6 223 l 1,19,-1
 126 338 l 1,20,-1
 148 342 l 1,21,0
 171 342 171 342 245.5 325 c 128,-1,1
EndSplineSet
EndChar

StartChar: exclamdown
Encoding: 161 161 99
Width: 275
GlyphClass: 2
Flags: W
LayerCount: 2
Fore
SplineSet
94.5 451.5 m 128,-1,1
 126 484 126 484 172 484 c 0,2,3
 260 484 260 484 260 404 c 0,4,5
 260 350 260 350 228.5 317.5 c 128,-1,6
 197 285 197 285 151.5 285 c 128,-1,7
 106 285 106 285 84.5 306.5 c 128,-1,8
 63 328 63 328 63 373.5 c 128,-1,0
 63 419 63 419 94.5 451.5 c 128,-1,1
198 210 m 1,9,-1
 183 -192 l 1,10,-1
 162 -216 l 1,11,-1
 -29 -242 l 1,12,-1
 -51 -216 l 1,13,-1
 74 214 l 1,14,-1
 180 230 l 1,15,-1
 198 210 l 1,9,-1
EndSplineSet
EndChar

StartChar: cent
Encoding: 162 162 100
Width: 393
GlyphClass: 2
Flags: W
LayerCount: 2
Fore
SplineSet
313 311 m 1,0,1
 288 363 288 363 256.5 363 c 128,-1,2
 225 363 225 363 206.5 318.5 c 128,-1,3
 188 274 188 274 188 201 c 128,-1,4
 188 128 188 128 236 128 c 0,5,6
 277 128 277 128 311 202 c 1,7,-1
 332 199 l 1,8,-1
 384 141 l 1,9,10
 366 93 366 93 323.5 54 c 128,-1,11
 281 15 281 15 231 -2 c 1,12,-1
 195 -151 l 1,13,-1
 78 -164 l 1,14,-1
 71 -158 l 1,15,-1
 110 0 l 1,16,17
 64 18 64 18 38.5 61.5 c 128,-1,18
 13 105 13 105 13 167 c 0,19,20
 13 276 13 276 73.5 361.5 c 128,-1,21
 134 447 134 447 226 474 c 1,22,-1
 268 644 l 1,23,-1
 387 658 l 1,24,-1
 392 649 l 1,25,-1
 349 477 l 1,26,27
 380 471 380 471 403 459 c 1,28,-1
 407 441 l 1,29,-1
 356 312 l 1,30,-1
 313 311 l 1,0,1
EndSplineSet
EndChar

StartChar: sterling
Encoding: 163 163 101
Width: 495
GlyphClass: 2
Flags: W
LayerCount: 2
Fore
SplineSet
462 216 m 1,0,1
 481 189 481 189 481 127 c 128,-1,2
 481 65 481 65 442.5 26.5 c 128,-1,3
 404 -12 404 -12 347 -12 c 0,4,5
 316 -12 316 -12 255.5 15 c 128,-1,6
 195 42 195 42 165 42 c 0,7,8
 101 42 101 42 24 -1 c 1,9,-1
 10 5 l 1,10,-1
 -4 96 l 1,11,12
 78 138 78 138 85 201 c 1,13,-1
 90 235 l 1,14,15
 91 258 91 258 79 265.5 c 128,-1,16
 67 273 67 273 29 275 c 1,17,-1
 26 281 l 1,18,-1
 43 351 l 1,19,-1
 105 360 l 1,20,-1
 108 387 l 1,21,22
 118 464 118 464 208.5 531 c 128,-1,23
 299 598 299 598 385.5 598 c 128,-1,24
 472 598 472 598 512 583 c 1,25,-1
 516 572 l 1,26,-1
 457 441 l 1,27,-1
 438 438 l 1,28,29
 371 481 371 481 339 481 c 128,-1,30
 307 481 307 481 295.5 467 c 128,-1,31
 284 453 284 453 280 417 c 1,32,-1
 271 360 l 1,33,-1
 405 363 l 1,34,-1
 409 356 l 1,35,-1
 388 271 l 1,36,37
 334 274 334 274 258 274 c 1,38,-1
 252 236 l 1,39,40
 249 210 249 210 238 183 c 128,-1,41
 227 156 227 156 214 144 c 1,42,-1
 274 158 l 1,43,44
 283 158 283 158 320 149.5 c 128,-1,45
 357 141 357 141 375.5 141 c 128,-1,46
 394 141 394 141 410.5 162 c 128,-1,47
 427 183 427 183 431 216 c 1,48,-1
 462 216 l 1,0,1
EndSplineSet
EndChar

StartChar: currency
Encoding: 164 164 102
Width: 431
GlyphClass: 2
Flags: W
LayerCount: 2
Fore
SplineSet
-9 214 m 1,0,-1
 75 280 l 1,1,2
 71 296 71 296 71 330 c 128,-1,3
 71 364 71 364 91 407 c 1,4,-1
 22 479 l 1,5,-1
 29 502 l 1,6,-1
 144 579 l 1,7,8
 179 531 179 531 198 502 c 1,9,10
 230 515 230 515 261 515 c 128,-1,11
 292 515 292 515 323 502 c 1,12,-1
 399 581 l 1,13,-1
 422 577 l 1,14,-1
 486 472 l 1,15,-1
 406 408 l 1,16,17
 411 385 411 385 411 351 c 128,-1,18
 411 317 411 317 388 274 c 1,19,-1
 455 207 l 1,20,-1
 448 184 l 1,21,-1
 334 107 l 1,22,-1
 280 181 l 1,23,24
 250 170 250 170 218 170 c 128,-1,25
 186 170 186 170 156 184 c 1,26,-1
 79 105 l 1,27,-1
 56 109 l 1,28,-1
 -9 214 l 1,0,-1
194 392.5 m 128,-1,30
 170 368 170 368 170 337 c 128,-1,31
 170 306 170 306 187.5 287 c 128,-1,32
 205 268 205 268 234.5 268 c 128,-1,33
 264 268 264 268 288.5 292.5 c 128,-1,34
 313 317 313 317 313 347.5 c 128,-1,35
 313 378 313 378 295 397.5 c 128,-1,36
 277 417 277 417 247.5 417 c 128,-1,29
 218 417 218 417 194 392.5 c 128,-1,30
EndSplineSet
EndChar

StartChar: yen
Encoding: 165 165 103
Width: 573
GlyphClass: 2
Flags: W
LayerCount: 2
Fore
SplineSet
353 502 m 1,0,-1
 487 503 l 1,1,-1
 581 506 l 1,2,-1
 585 500 l 1,3,-1
 568 425 l 1,4,5
 535 407 535 407 518 394 c 1,6,7
 502 380 502 380 484 348 c 1,8,-1
 554 350 l 1,9,-1
 561 340 l 1,10,-1
 544 254 l 1,11,-1
 419 254 l 1,12,-1
 400 223 l 1,13,-1
 389 208 l 1,14,-1
 534 211 l 1,15,-1
 541 201 l 1,16,-1
 524 115 l 1,17,-1
 354 115 l 1,18,-1
 354 106 l 2,19,20
 354 77 354 77 392 77 c 1,21,-1
 434 80 l 1,22,-1
 438 75 l 1,23,-1
 422 -5 l 1,24,25
 294 0 294 0 247 0 c 1,26,-1
 71 -7 l 1,27,-1
 87 71 l 1,28,29
 132 74 132 74 150 83 c 128,-1,30
 168 92 168 92 175 115 c 1,31,-1
 18 114 l 1,32,-1
 9 122 l 1,33,-1
 31 207 l 1,34,-1
 172 207 l 1,35,-1
 154 254 l 1,36,-1
 38 253 l 1,37,-1
 29 261 l 1,38,-1
 51 346 l 1,39,-1
 108 346 l 1,40,41
 105 352 105 352 68 383 c 128,-1,42
 31 414 31 414 29 427 c 1,43,-1
 47 505 l 1,44,45
 116 503 116 503 210.5 503 c 128,-1,46
 305 503 305 503 325 509 c 1,47,-1
 329 499 l 1,48,-1
 313 429 l 1,49,50
 284 429 284 429 284 413 c 0,51,52
 284 406 284 406 312 312 c 1,53,-1
 320 312 l 1,54,-1
 363 410 l 2,55,56
 366 416 366 416 366 423 c 0,57,58
 366 435 366 435 346 435 c 1,59,-1
 341 444 l 1,60,-1
 353 502 l 1,0,-1
EndSplineSet
EndChar

StartChar: brokenbar
Encoding: 166 166 104
Width: 280
GlyphClass: 2
Flags: W
LayerCount: 2
Fore
SplineSet
219 374 m 1,0,-1
 101 358 l 1,1,-1
 89 369 l 1,2,-1
 143 796 l 1,3,-1
 257 807 l 1,4,-1
 276 791 l 1,5,6
 241 548 241 548 219 374 c 1,0,-1
62 150 m 1,7,-1
 175 167 l 1,8,-1
 191 150 l 1,9,-1
 142 -258 l 1,10,-1
 24 -269 l 1,11,-1
 12 -253 l 1,12,13
 38 -34 38 -34 62 150 c 1,7,-1
EndSplineSet
EndChar

StartChar: section
Encoding: 167 167 105
Width: 470
GlyphClass: 2
Flags: W
LayerCount: 2
Fore
SplineSet
152 -95 m 0,0,1
 95 -95 95 -95 51 -72.5 c 128,-1,2
 7 -50 7 -50 7 -21 c 0,3,4
 7 43 7 43 63 107 c 1,5,-1
 90 105 l 1,6,7
 91 71 91 71 114 47 c 128,-1,8
 137 23 137 23 168 23 c 128,-1,9
 199 23 199 23 199 50 c 0,10,11
 199 67 199 67 181 82 c 128,-1,12
 163 97 163 97 137 111 c 128,-1,13
 111 125 111 125 84.5 141.5 c 128,-1,14
 58 158 58 158 40 185.5 c 128,-1,15
 22 213 22 213 22 248 c 0,16,17
 22 339 22 339 141 400 c 1,18,19
 100 439 100 439 100 488 c 0,20,21
 100 560 100 560 165 609.5 c 128,-1,22
 230 659 230 659 323 659 c 0,23,24
 378 659 378 659 420 644.5 c 128,-1,25
 462 630 462 630 462 610 c 0,26,27
 462 587 462 587 441 539 c 128,-1,28
 420 491 420 491 404 479 c 1,29,-1
 379 479 l 1,30,31
 374 504 374 504 358.5 520 c 128,-1,32
 343 536 343 536 327.5 536 c 128,-1,33
 312 536 312 536 302 528 c 128,-1,34
 292 520 292 520 292 506.5 c 128,-1,35
 292 493 292 493 309.5 478 c 128,-1,36
 327 463 327 463 352 447 c 128,-1,37
 377 431 377 431 402 412.5 c 128,-1,38
 427 394 427 394 444.5 365.5 c 128,-1,39
 462 337 462 337 462 304 c 0,40,41
 462 222 462 222 351 160 c 1,42,43
 389 125 389 125 389 80 c 0,44,45
 389 73 389 73 388 67 c 0,46,47
 379 -2 379 -2 311.5 -48.5 c 128,-1,48
 244 -95 244 -95 152 -95 c 0,0,1
205 354 m 1,49,50
 185 332 185 332 185 311.5 c 128,-1,51
 185 291 185 291 191.5 277.5 c 128,-1,52
 198 264 198 264 214 251 c 0,53,54
 235 235 235 235 278 209 c 1,55,56
 294 228 294 228 294 248.5 c 128,-1,57
 294 269 294 269 287.5 283 c 128,-1,58
 281 297 281 297 266 310 c 0,59,60
 244 330 244 330 205 354 c 1,49,50
EndSplineSet
EndChar

StartChar: dieresis
Encoding: 168 168 106
Width: 386
GlyphClass: 2
Flags: W
LayerCount: 2
Fore
SplineSet
324 559 m 0,0,1
 253 559 253 559 253 626 c 0,2,3
 253 671 253 671 279.5 698.5 c 128,-1,4
 306 726 306 726 345 726 c 0,5,6
 420 726 420 726 420 658 c 0,7,8
 420 614 420 614 393.5 586.5 c 128,-1,9
 367 559 367 559 324 559 c 0,0,1
135 559 m 0,10,11
 65 559 65 559 65 626 c 0,12,13
 65 671 65 671 91.5 698.5 c 128,-1,14
 118 726 118 726 157 726 c 0,15,16
 232 726 232 726 232 658 c 0,17,18
 232 614 232 614 205 586.5 c 128,-1,19
 178 559 178 559 135 559 c 0,10,11
EndSplineSet
EndChar

StartChar: copyright
Encoding: 169 169 107
Width: 678
GlyphClass: 2
Flags: W
LayerCount: 2
Fore
SplineSet
48 261 m 0,0,1
 48 398 48 398 149 498 c 128,-1,2
 250 598 250 598 383 598 c 0,3,4
 495 598 495 598 569.5 518.5 c 128,-1,5
 644 439 644 439 644 324 c 0,6,7
 644 188 644 188 542.5 88 c 128,-1,8
 441 -12 441 -12 308 -12 c 0,9,10
 196 -12 196 -12 122 66.5 c 128,-1,11
 48 145 48 145 48 261 c 0,0,1
108 267 m 0,12,13
 108 174 108 174 167 110.5 c 128,-1,14
 226 47 226 47 315 47 c 0,15,16
 422 47 422 47 503 128 c 128,-1,17
 584 209 584 209 584 319 c 0,18,19
 584 412 584 412 524.5 475.5 c 128,-1,20
 465 539 465 539 376 539 c 0,21,22
 269 539 269 539 188.5 458 c 128,-1,23
 108 377 108 377 108 267 c 0,12,13
332 133 m 128,-1,25
 265 133 265 133 229.5 167.5 c 128,-1,26
 194 202 194 202 194 268 c 0,27,28
 194 463 194 463 385 463 c 0,29,30
 417 463 417 463 504 450 c 1,31,-1
 508 438 l 1,32,33
 492 392 492 392 480 330 c 1,34,-1
 391 325 l 1,35,36
 396 354 396 354 396 362 c 0,37,38
 396 388 396 388 369 388 c 128,-1,39
 342 388 342 388 333 363.5 c 128,-1,40
 324 339 324 339 324 288 c 128,-1,41
 324 237 324 237 329.5 223.5 c 128,-1,42
 335 210 335 210 352 210 c 128,-1,43
 369 210 369 210 376.5 220.5 c 128,-1,44
 384 231 384 231 390 263 c 1,45,-1
 478 269 l 1,46,47
 466 209 466 209 461 160 c 1,48,-1
 453 151 l 1,49,24
 399 133 399 133 332 133 c 128,-1,25
EndSplineSet
EndChar

StartChar: ordfeminine
Encoding: 170 170 108
Width: 390
GlyphClass: 2
Flags: W
LayerCount: 2
Fore
SplineSet
233 319 m 0,0,1
 197 319 197 319 197 354 c 0,2,3
 197 366 197 366 212 427 c 1,4,-1
 205 427 l 1,5,6
 156 345 156 345 118 319 c 1,7,8
 66 319 66 319 36.5 347.5 c 128,-1,9
 7 376 7 376 7 427 c 0,10,11
 7 506 7 506 63.5 575 c 128,-1,12
 120 644 120 644 184 644 c 1,13,-1
 231 631 l 1,14,-1
 234 644 l 1,15,-1
 249 653 l 1,16,-1
 350 645 l 1,17,-1
 356 628 l 1,18,19
 331 521 331 521 318 441 c 1,20,-1
 321 439 l 1,21,22
 327 439 327 439 354 465 c 1,23,-1
 371 462 l 1,24,-1
 385 427 l 1,25,26
 327 363 327 363 296 341 c 128,-1,27
 265 319 265 319 233 319 c 0,0,1
152 430 m 0,28,29
 163 430 163 430 182.5 470 c 128,-1,30
 202 510 202 510 212 553 c 1,31,32
 186 569 186 569 164 569 c 0,33,34
 157 569 157 569 150 536.5 c 128,-1,35
 143 504 143 504 143 467 c 128,-1,36
 143 430 143 430 152 430 c 0,28,29
EndSplineSet
EndChar

StartChar: guillemotleft
Encoding: 171 171 109
Width: 464
GlyphClass: 2
Flags: W
LayerCount: 2
Fore
SplineSet
407 422 m 1,0,-1
 465 387 l 1,1,-1
 470 364 l 1,2,3
 452 339 452 339 388 232 c 1,4,5
 412 159 412 159 437 101 c 1,6,-1
 427 78 l 1,7,-1
 361 42 l 1,8,9
 300 132 300 132 232 219 c 1,10,-1
 235 246 l 1,11,12
 331 339 331 339 407 422 c 1,0,-1
205 422 m 1,13,-1
 263 387 l 1,14,-1
 268 364 l 1,15,16
 250 339 250 339 186 232 c 1,17,18
 210 159 210 159 235 101 c 1,19,-1
 225 78 l 1,20,-1
 159 42 l 1,21,22
 98 132 98 132 30 219 c 1,23,-1
 33 246 l 1,24,25
 129 339 129 339 205 422 c 1,13,-1
EndSplineSet
EndChar

StartChar: logicalnot
Encoding: 172 172 110
Width: 491
GlyphClass: 2
Flags: W
LayerCount: 2
Fore
SplineSet
455 359 m 1,0,-1
 460 344 l 1,1,2
 438 266 438 266 425 164 c 2,3,-1
 409 29 l 1,4,-1
 271 11 l 1,5,-1
 260 20 l 1,6,7
 271 111 271 111 284 207 c 1,8,-1
 239 207 l 1,9,-1
 20 206 l 1,10,-1
 12 219 l 1,11,-1
 47 354 l 1,12,13
 182 353 182 353 268 353 c 1,14,-1
 455 359 l 1,0,-1
EndSplineSet
EndChar

StartChar: registered
Encoding: 174 174 111
Width: 454
GlyphClass: 2
Flags: W
LayerCount: 2
Fore
SplineSet
110.5 356 m 128,-1,1
 61 409 61 409 61 493 c 128,-1,2
 61 577 61 577 128.5 644 c 128,-1,3
 196 711 196 711 278 711 c 128,-1,4
 360 711 360 711 410 658 c 128,-1,5
 460 605 460 605 460 521 c 128,-1,6
 460 437 460 437 392 370 c 128,-1,7
 324 303 324 303 242 303 c 128,-1,0
 160 303 160 303 110.5 356 c 128,-1,1
156 615.5 m 128,-1,9
 102 562 102 562 102 495.5 c 128,-1,10
 102 429 102 429 141.5 387 c 128,-1,11
 181 345 181 345 245.5 345 c 128,-1,12
 310 345 310 345 364 398.5 c 128,-1,13
 418 452 418 452 418 518.5 c 128,-1,14
 418 585 418 585 378.5 627 c 128,-1,15
 339 669 339 669 274.5 669 c 128,-1,8
 210 669 210 669 156 615.5 c 128,-1,9
232 615 m 2,16,17
 253 615 253 615 273 617 c 1,18,19
 355 617 355 617 355 567 c 0,20,21
 355 525 355 525 312 501 c 1,22,23
 332 457 332 457 339 449.5 c 128,-1,24
 346 442 346 442 352 441 c 1,25,-1
 354 438 l 1,26,27
 353 435 353 435 353 427.5 c 128,-1,28
 353 420 353 420 350 419 c 0,29,30
 336 413 336 413 313 412.5 c 128,-1,31
 290 412 290 412 282.5 416.5 c 128,-1,32
 275 421 275 421 270 439 c 2,33,-1
 258 486 l 1,34,-1
 242 486 l 1,35,36
 238 458 238 458 238 453 c 128,-1,37
 238 448 238 448 242 446 c 128,-1,38
 246 444 246 444 259 443 c 1,39,-1
 259 441 l 1,40,-1
 253 415 l 1,41,42
 220 417 220 417 207 417 c 2,43,-1
 196 417 l 1,44,-1
 152 414 l 1,45,-1
 158 441 l 1,46,47
 177 445 177 445 180 468 c 2,48,-1
 193 571 l 2,49,50
 196 589 196 589 188 589 c 2,51,-1
 177 588 l 1,52,-1
 174 590 l 1,53,-1
 180 615 l 1,54,-1
 232 615 l 2,16,17
247 524 m 1,55,-1
 270 523 l 1,56,57
 291 529 291 529 291 557 c 0,58,59
 291 579 291 579 262 579 c 0,60,61
 257 579 257 579 256 572 c 128,-1,62
 255 565 255 565 251.5 548.5 c 128,-1,63
 248 532 248 532 247 524 c 1,55,-1
EndSplineSet
EndChar

StartChar: macron
Encoding: 175 175 112
Width: 386
GlyphClass: 2
Flags: W
LayerCount: 2
Fore
SplineSet
393 693 m 1,0,-1
 402 675 l 1,1,-1
 370 566 l 1,2,-1
 105 564 l 1,3,-1
 91 579 l 1,4,-1
 123 688 l 1,5,6
 215 687 215 687 272 687 c 1,7,-1
 393 693 l 1,0,-1
EndSplineSet
EndChar

StartChar: degree
Encoding: 176 176 113
Width: 293
GlyphClass: 2
Flags: W
LayerCount: 2
Fore
SplineSet
82 424 m 128,-1,1
 49 459 49 459 49 515 c 128,-1,2
 49 571 49 571 94 615 c 128,-1,3
 139 659 139 659 194 659 c 128,-1,4
 249 659 249 659 281.5 624.5 c 128,-1,5
 314 590 314 590 314 533.5 c 128,-1,6
 314 477 314 477 269.5 433 c 128,-1,7
 225 389 225 389 170 389 c 128,-1,0
 115 389 115 389 82 424 c 128,-1,1
142.5 564.5 m 128,-1,9
 124 545 124 545 124 519 c 128,-1,10
 124 493 124 493 137.5 478.5 c 128,-1,11
 151 464 151 464 176.5 464 c 128,-1,12
 202 464 202 464 220.5 483 c 128,-1,13
 239 502 239 502 239 528.5 c 128,-1,14
 239 555 239 555 225.5 569.5 c 128,-1,15
 212 584 212 584 186.5 584 c 128,-1,8
 161 584 161 584 142.5 564.5 c 128,-1,9
EndSplineSet
EndChar

StartChar: plusminus
Encoding: 177 177 114
Width: 491
GlyphClass: 2
Flags: W
LayerCount: 2
Fore
SplineSet
458 200 m 1,0,-1
 309 199 l 1,1,-1
 293 58 l 1,2,-1
 160 40 l 1,3,-1
 148 49 l 1,4,5
 158 123 158 123 168 199 c 1,6,-1
 19 198 l 1,7,-1
 11 211 l 1,8,-1
 46 346 l 1,9,10
 115 345 115 345 186 345 c 1,11,12
 189 371 189 371 196 423.5 c 128,-1,13
 203 476 203 476 206 502 c 1,14,-1
 339 515 l 1,15,-1
 353 508 l 1,16,17
 338 420 338 420 327 345 c 1,18,-1
 483 351 l 1,19,-1
 488 336 l 1,20,-1
 458 200 l 1,0,-1
401 -123 m 1,21,-1
 -3 -124 l 1,22,-1
 -11 -105 l 1,23,-1
 12 0 l 1,24,-1
 335 0 l 1,25,-1
 420 2 l 1,26,-1
 428 -17 l 1,27,-1
 401 -123 l 1,21,-1
EndSplineSet
EndChar

StartChar: two.sups
Encoding: 178 178 115
Width: 369
GlyphClass: 2
Flags: W
LayerCount: 2
Fore
SplineSet
169 585 m 0,0,1
 169 610 169 610 136.5 610 c 128,-1,2
 104 610 104 610 61 566 c 1,3,-1
 47 566 l 1,4,-1
 39 652 l 1,5,6
 115 728 115 728 197 728 c 0,7,8
 252 728 252 728 285 702.5 c 128,-1,9
 318 677 318 677 318 633 c 128,-1,10
 318 589 318 589 287 543.5 c 128,-1,11
 256 498 256 498 175 425 c 1,12,-1
 178 419 l 1,13,-1
 204 419 l 2,14,15
 227 419 227 419 240 432.5 c 128,-1,16
 253 446 253 446 260 480 c 1,17,-1
 347 486 l 1,18,19
 321 393 321 393 311 332 c 1,20,-1
 297 319 l 1,21,22
 139 327 139 327 67 327 c 1,23,-1
 -2 323 l 1,24,-1
 0 396 l 1,25,-1
 104 493 l 1,26,27
 169 556 169 556 169 585 c 0,0,1
EndSplineSet
EndChar

StartChar: three.sups
Encoding: 179 179 116
Width: 322
GlyphClass: 2
Flags: W
LayerCount: 2
Fore
SplineSet
15 431 m 1,0,1
 41 418 41 418 73.5 418 c 128,-1,2
 106 418 106 418 123.5 428 c 128,-1,3
 141 438 141 438 141 455 c 0,4,5
 141 481 141 481 77 481 c 1,6,-1
 68 492 l 1,7,-1
 68 558 l 1,8,-1
 113 566 l 1,9,10
 154 581 154 581 154 614 c 0,11,12
 154 634 154 634 129 634 c 128,-1,13
 104 634 104 634 59 607 c 1,14,-1
 48 607 l 1,15,-1
 34 681 l 1,16,17
 69 703 69 703 111 715.5 c 128,-1,18
 153 728 153 728 193.5 728 c 128,-1,19
 234 728 234 728 262.5 708 c 128,-1,20
 291 688 291 688 291 654.5 c 128,-1,21
 291 621 291 621 267.5 594.5 c 128,-1,22
 244 568 244 568 205 558 c 1,23,-1
 205 550 l 1,24,25
 290 518 290 518 290 461 c 128,-1,26
 290 404 290 404 217.5 361.5 c 128,-1,27
 145 319 145 319 55 319 c 0,28,29
 19 319 19 319 7.5 338.5 c 128,-1,30
 -4 358 -4 358 -4 400 c 0,31,32
 -4 407 -4 407 -4 414 c 1,33,-1
 15 431 l 1,0,1
EndSplineSet
EndChar

StartChar: acute
Encoding: 180 180 117
Width: 386
GlyphClass: 2
Flags: W
LayerCount: 2
Fore
SplineSet
346 659 m 1,0,-1
 344 642 l 1,1,2
 236 586 236 586 133 525 c 1,3,-1
 111 532 l 1,4,-1
 70 593 l 1,5,-1
 257 760 l 1,6,-1
 274 760 l 1,7,-1
 346 659 l 1,0,-1
EndSplineSet
EndChar

StartChar: mu
Encoding: 181 181 118
AltUni2: 0003bc.ffffffff.0
Width: 531
GlyphClass: 2
Flags: W
LayerCount: 2
Fore
SplineSet
477 128 m 0,0,1
 490 128 490 128 508 136 c 1,2,-1
 522 110 l 1,3,4
 494 71 494 71 454.5 35 c 128,-1,5
 415 -1 415 -1 386 -12 c 1,6,7
 284 -12 284 -12 280 61 c 1,8,-1
 270 66 l 1,9,10
 207 -10 207 -10 190.5 -10 c 128,-1,11
 174 -10 174 -10 163 -3 c 1,12,-1
 158 -6 l 1,13,-1
 147 -105 l 1,14,-1
 140 -205 l 1,15,-1
 131 -217 l 1,16,-1
 -28 -242 l 1,17,-1
 -41 -228 l 1,18,19
 -10 -88 -10 -88 15 73 c 2,20,-1
 55 325 l 2,21,22
 59 355 59 355 59 379.5 c 128,-1,23
 59 404 59 404 56 427 c 1,24,-1
 69 455 l 1,25,-1
 254 484 l 1,26,-1
 264 462 l 1,27,28
 245 432 245 432 224 320.5 c 128,-1,29
 203 209 203 209 203 181 c 0,30,31
 203 134 203 134 236 134 c 0,32,33
 250 134 250 134 280 150 c 1,34,-1
 301 323 l 2,35,36
 304 354 304 354 304 377 c 128,-1,37
 304 400 304 400 300 425 c 1,38,-1
 314 452 l 1,39,-1
 511 480 l 1,40,-1
 522 458 l 1,41,42
 507 437 507 437 480 312.5 c 128,-1,43
 453 188 453 188 453 158 c 128,-1,44
 453 128 453 128 477 128 c 0,0,1
EndSplineSet
EndChar

StartChar: paragraph
Encoding: 182 182 119
Width: 557
GlyphClass: 2
Flags: W
LayerCount: 2
Fore
SplineSet
292 652 m 1,0,-1
 450 647 l 1,1,-1
 611 650 l 1,2,-1
 595 566 l 1,3,-1
 592 562 l 1,4,5
 565 555 565 555 557.5 547.5 c 128,-1,6
 550 540 550 540 543.5 511.5 c 128,-1,7
 537 483 537 483 519 370 c 128,-1,8
 501 257 501 257 493 190 c 0,9,10
 480 80 480 80 382.5 -7 c 128,-1,11
 285 -94 285 -94 177 -94 c 0,12,13
 124 -94 124 -94 85 -66 c 128,-1,14
 46 -38 46 -38 46 -6.5 c 128,-1,15
 46 25 46 25 65 65.5 c 128,-1,16
 84 106 84 106 108 135 c 1,17,-1
 125 135 l 1,18,19
 125 78 125 78 146.5 45 c 128,-1,20
 168 12 168 12 207 12 c 128,-1,21
 246 12 246 12 266 33.5 c 128,-1,22
 286 55 286 55 292 106 c 2,23,-1
 346 545 l 2,24,25
 348 554 348 554 343 557 c 128,-1,26
 338 560 338 560 321 560 c 0,27,28
 286 560 286 560 265.5 508 c 128,-1,29
 245 456 245 456 245 377 c 128,-1,30
 245 298 245 298 283 232 c 1,31,-1
 279 197 l 1,32,33
 161 197 161 197 92.5 251.5 c 128,-1,34
 24 306 24 306 24 406 c 128,-1,35
 24 506 24 506 101.5 579 c 128,-1,36
 179 652 179 652 292 652 c 1,0,-1
EndSplineSet
EndChar

StartChar: periodcentered
Encoding: 183 183 120
Width: 231
GlyphClass: 2
Flags: W
LayerCount: 2
Fore
SplineSet
101 154 m 0,0,1
 19 154 19 154 19 234 c 0,2,3
 19 288 19 288 50.5 320.5 c 128,-1,4
 82 353 82 353 128 353 c 0,5,6
 215 353 215 353 215 272 c 0,7,8
 215 219 215 219 183.5 186.5 c 128,-1,9
 152 154 152 154 101 154 c 0,0,1
EndSplineSet
EndChar

StartChar: cedilla
Encoding: 184 184 121
Width: 391
GlyphClass: 2
Flags: W
LayerCount: 2
Fore
SplineSet
92 -126 m 0,0,1
 92 -174 92 -174 132 -174 c 0,2,3
 163 -174 163 -174 163 -150.5 c 128,-1,4
 163 -127 163 -127 86 -87 c 1,5,-1
 131 36 l 1,6,-1
 193 36 l 1,7,-1
 170 -37 l 1,8,9
 207 -56 207 -56 236.5 -82.5 c 128,-1,10
 266 -109 266 -109 266 -138 c 0,11,12
 266 -181 266 -181 218.5 -212 c 128,-1,13
 171 -243 171 -243 105 -243 c 0,14,15
 75 -243 75 -243 49 -229 c 128,-1,16
 23 -215 23 -215 23 -193 c 128,-1,17
 23 -171 23 -171 84 -118 c 1,18,-1
 92 -118 l 1,19,20
 92 -122 92 -122 92 -126 c 0,0,1
EndSplineSet
EndChar

StartChar: one.sups
Encoding: 185 185 122
Width: 276
GlyphClass: 2
Flags: W
LayerCount: 2
Fore
SplineSet
207 539.5 m 128,-1,1
 192 445 192 445 192 417.5 c 128,-1,2
 192 390 192 390 212 390 c 2,3,-1
 241 391 l 1,4,-1
 243 387 l 1,5,-1
 225 323 l 1,6,7
 156 327 156 327 119 327 c 1,8,-1
 -14 320 l 1,9,-1
 -1 378 l 1,10,11
 60 384 60 384 64 422 c 0,12,13
 87 616 87 616 87 624.5 c 128,-1,14
 87 633 87 633 83.5 638.5 c 128,-1,15
 80 644 80 644 61 644 c 2,16,-1
 29 643 l 1,17,-1
 23 650 l 1,18,-1
 36 703 l 1,19,20
 43 703 43 703 253 728 c 1,21,-1
 262 696 l 1,22,23
 241 682 241 682 231.5 658 c 128,-1,0
 222 634 222 634 207 539.5 c 128,-1,1
EndSplineSet
EndChar

StartChar: ordmasculine
Encoding: 186 186 123
Width: 362
GlyphClass: 2
Flags: W
LayerCount: 2
Fore
SplineSet
170 395 m 0,0,1
 186 395 186 395 193 419.5 c 128,-1,2
 200 444 200 444 200 492.5 c 128,-1,3
 200 541 200 541 195 554 c 128,-1,4
 190 567 190 567 177 567 c 0,5,6
 147 567 147 567 147 459 c 0,7,8
 147 395 147 395 170 395 c 0,0,1
145 319 m 0,9,10
 83 319 83 319 49 354 c 128,-1,11
 15 389 15 389 15 454 c 0,12,13
 15 546 15 546 66 599.5 c 128,-1,14
 117 653 117 653 204 653 c 0,15,16
 267 653 267 653 300.5 619.5 c 128,-1,17
 334 586 334 586 334 522 c 0,18,19
 334 429 334 429 282.5 374 c 128,-1,20
 231 319 231 319 145 319 c 0,9,10
EndSplineSet
EndChar

StartChar: guillemotright
Encoding: 187 187 124
Width: 464
GlyphClass: 2
Flags: W
LayerCount: 2
Fore
SplineSet
305 42 m 1,0,-1
 247 77 l 1,1,-1
 243 100 l 1,2,3
 278 151 278 151 324 232 c 1,4,5
 300 305 300 305 275 363 c 1,6,-1
 285 386 l 1,7,-1
 351 422 l 1,8,9
 399 351 399 351 480 245 c 1,10,-1
 477 218 l 1,11,12
 382 125 382 125 305 42 c 1,0,-1
103 42 m 1,13,-1
 45 77 l 1,14,-1
 41 100 l 1,15,16
 76 151 76 151 122 232 c 1,17,18
 98 305 98 305 73 363 c 1,19,-1
 83 386 l 1,20,-1
 149 422 l 1,21,22
 197 351 197 351 278 245 c 1,23,-1
 275 218 l 1,24,25
 180 125 180 125 103 42 c 1,13,-1
EndSplineSet
EndChar

StartChar: onequarter
Encoding: 188 188 125
Width: 845
GlyphClass: 2
Flags: W
LayerCount: 2
Fore
SplineSet
643 647 m 1,0,-1
 653 623 l 1,1,2
 474 346 474 346 383 207 c 1,3,-1
 194 -91 l 1,4,-1
 101 -56 l 1,5,-1
 95 -39 l 1,6,7
 206 121 206 121 289 253 c 2,8,-1
 556 679 l 1,9,-1
 643 647 l 1,0,-1
207 466.5 m 128,-1,11
 192 372 192 372 192 344.5 c 128,-1,12
 192 317 192 317 212 317 c 2,13,-1
 241 318 l 1,14,-1
 243 314 l 1,15,-1
 225 250 l 1,16,17
 156 254 156 254 119 254 c 1,18,-1
 -14 247 l 1,19,-1
 -1 305 l 1,20,21
 60 311 60 311 64 349 c 0,22,23
 87 543 87 543 87 551.5 c 128,-1,24
 87 560 87 560 83.5 565.5 c 128,-1,25
 80 571 80 571 61 571 c 2,26,-1
 29 570 l 1,27,-1
 23 577 l 1,28,-1
 36 630 l 1,29,30
 43 630 43 630 253 655 c 1,31,-1
 262 623 l 1,32,33
 241 609 241 609 231.5 585 c 128,-1,10
 222 561 222 561 207 466.5 c 128,-1,11
472 85 m 1,34,-1
 481 157 l 1,35,-1
 675 399 l 1,36,-1
 681 401 l 1,37,-1
 787 392 l 1,38,-1
 760 169 l 1,39,-1
 803 169 l 1,40,-1
 810 159 l 1,41,-1
 792 78 l 1,42,-1
 750 79 l 1,43,-1
 744 8 l 1,44,-1
 736 0 l 1,45,-1
 614 -8 l 1,46,-1
 607 0 l 1,47,48
 615 40 615 40 621 83 c 1,49,-1
 472 85 l 1,34,-1
635 250 m 1,50,-1
 579 169 l 1,51,-1
 633 169 l 1,52,-1
 643 250 l 1,53,-1
 635 250 l 1,50,-1
EndSplineSet
EndChar

StartChar: onehalf
Encoding: 189 189 126
Width: 877
GlyphClass: 2
Flags: W
LayerCount: 2
Fore
SplineSet
643 647 m 1,0,-1
 653 623 l 1,1,2
 474 346 474 346 383 207 c 1,3,-1
 194 -91 l 1,4,-1
 101 -56 l 1,5,-1
 95 -39 l 1,6,7
 206 121 206 121 289 253 c 2,8,-1
 556 679 l 1,9,-1
 643 647 l 1,0,-1
207 466.5 m 128,-1,11
 192 372 192 372 192 344.5 c 128,-1,12
 192 317 192 317 212 317 c 2,13,-1
 241 318 l 1,14,-1
 243 314 l 1,15,-1
 225 250 l 1,16,17
 156 254 156 254 119 254 c 1,18,-1
 -14 247 l 1,19,-1
 -1 305 l 1,20,21
 60 311 60 311 64 349 c 0,22,23
 87 543 87 543 87 551.5 c 128,-1,24
 87 560 87 560 83.5 565.5 c 128,-1,25
 80 571 80 571 61 571 c 2,26,-1
 29 570 l 1,27,-1
 23 577 l 1,28,-1
 36 630 l 1,29,30
 43 630 43 630 253 655 c 1,31,-1
 262 623 l 1,32,33
 241 609 241 609 231.5 585 c 128,-1,10
 222 561 222 561 207 466.5 c 128,-1,11
669 258 m 0,34,35
 669 283 669 283 636.5 283 c 128,-1,36
 604 283 604 283 561 239 c 1,37,-1
 547 239 l 1,38,-1
 539 325 l 1,39,40
 615 401 615 401 697 401 c 0,41,42
 752 401 752 401 785 375.5 c 128,-1,43
 818 350 818 350 818 306 c 128,-1,44
 818 262 818 262 787 216.5 c 128,-1,45
 756 171 756 171 675 98 c 1,46,-1
 678 92 l 1,47,-1
 704 92 l 2,48,49
 727 92 727 92 740 105.5 c 128,-1,50
 753 119 753 119 760 153 c 1,51,-1
 847 159 l 1,52,53
 821 66 821 66 811 5 c 1,54,-1
 797 -8 l 1,55,56
 639 0 639 0 567 0 c 1,57,-1
 498 -4 l 1,58,-1
 500 69 l 1,59,-1
 604 166 l 1,60,61
 669 229 669 229 669 258 c 0,34,35
EndSplineSet
EndChar

StartChar: threequarters
Encoding: 190 190 127
Width: 841
GlyphClass: 2
Flags: W
LayerCount: 2
Fore
SplineSet
639 647 m 1,0,-1
 649 623 l 1,1,2
 470 346 470 346 379 207 c 1,3,-1
 190 -91 l 1,4,-1
 97 -56 l 1,5,-1
 91 -39 l 1,6,7
 202 121 202 121 285 253 c 2,8,-1
 552 679 l 1,9,-1
 639 647 l 1,0,-1
468 85 m 1,10,-1
 477 157 l 1,11,-1
 671 399 l 1,12,-1
 677 401 l 1,13,-1
 783 392 l 1,14,-1
 756 169 l 1,15,-1
 799 169 l 1,16,-1
 806 159 l 1,17,-1
 788 78 l 1,18,-1
 746 79 l 1,19,-1
 740 8 l 1,20,-1
 732 0 l 1,21,-1
 610 -8 l 1,22,-1
 603 0 l 1,23,24
 611 40 611 40 617 83 c 1,25,-1
 468 85 l 1,10,-1
631 250 m 1,26,-1
 575 169 l 1,27,-1
 629 169 l 1,28,-1
 639 250 l 1,29,-1
 631 250 l 1,26,-1
15 358 m 1,30,31
 41 345 41 345 73.5 345 c 128,-1,32
 106 345 106 345 123.5 355 c 128,-1,33
 141 365 141 365 141 382 c 0,34,35
 141 408 141 408 77 408 c 1,36,-1
 68 419 l 1,37,-1
 68 485 l 1,38,-1
 113 493 l 1,39,40
 154 508 154 508 154 541 c 0,41,42
 154 561 154 561 129 561 c 128,-1,43
 104 561 104 561 59 534 c 1,44,-1
 48 534 l 1,45,-1
 34 608 l 1,46,47
 69 630 69 630 111 642.5 c 128,-1,48
 153 655 153 655 193.5 655 c 128,-1,49
 234 655 234 655 262.5 635 c 128,-1,50
 291 615 291 615 291 581.5 c 128,-1,51
 291 548 291 548 267.5 521.5 c 128,-1,52
 244 495 244 495 205 485 c 1,53,-1
 205 477 l 1,54,55
 290 445 290 445 290 388 c 128,-1,56
 290 331 290 331 217.5 288.5 c 128,-1,57
 145 246 145 246 55 246 c 0,58,59
 19 246 19 246 7.5 265.5 c 128,-1,60
 -4 285 -4 285 -4 327 c 0,61,62
 -4 334 -4 334 -4 341 c 1,63,-1
 15 358 l 1,30,31
EndSplineSet
EndChar

StartChar: questiondown
Encoding: 191 191 128
Width: 371
GlyphClass: 2
Flags: W
LayerCount: 2
Fore
SplineSet
132 -23 m 0,0,1
 132 -90 132 -90 279 -96 c 1,2,-1
 291 -114 l 1,3,-1
 236 -232 l 1,4,-1
 218 -241 l 1,5,6
 100 -238 100 -238 24.5 -190 c 128,-1,7
 -51 -142 -51 -142 -51 -71 c 0,8,9
 -51 -19 -51 -19 -12.5 25 c 128,-1,10
 26 69 26 69 132 134 c 1,11,-1
 135 140 l 1,12,-1
 137 209 l 1,13,-1
 147 223 l 1,14,-1
 267 243 l 1,15,-1
 281 235 l 1,16,-1
 288 102 l 1,17,-1
 283 87 l 1,18,-1
 185 40 l 1,19,20
 132 13 132 13 132 -23 c 0,0,1
161.5 451.5 m 128,-1,22
 193 484 193 484 238 484 c 0,23,24
 327 484 327 484 327 404 c 0,25,26
 327 350 327 350 295.5 317.5 c 128,-1,27
 264 285 264 285 218 285 c 0,28,29
 130 285 130 285 130 366 c 0,30,21
 130 419 130 419 161.5 451.5 c 128,-1,22
EndSplineSet
EndChar

StartChar: Agrave
Encoding: 192 192 129
Width: 661
GlyphClass: 2
Flags: W
LayerCount: 2
Fore
SplineSet
377 121 m 2,0,-1
 377 178 l 1,1,2
 312 180 312 180 304 180 c 2,3,-1
 227 175 l 1,4,5
 208 111 208 111 208 104 c 0,6,7
 208 89 208 89 231 89 c 2,8,-1
 258 89 l 1,9,-1
 265 79 l 1,10,-1
 247 -4 l 1,11,12
 156 -1 156 -1 97 -1 c 2,13,-1
 -33 -2 l 1,14,-1
 -16 85 l 1,15,16
 20 94 20 94 39 140 c 2,17,-1
 250 642 l 1,18,-1
 517 658 l 1,19,-1
 531 646 l 1,20,21
 579 261 579 261 593 153 c 0,22,23
 597 119 597 119 608 104 c 128,-1,24
 619 89 619 89 640 86 c 1,25,-1
 646 76 l 1,26,-1
 628 -3 l 1,27,28
 544 -1 544 -1 490 -1 c 1,29,-1
 302 -6 l 1,30,-1
 295 3 l 1,31,-1
 311 87 l 1,32,33
 353 92 353 92 365 98 c 128,-1,34
 377 104 377 104 377 121 c 2,0,-1
251 746 m 1,35,-1
 244 762 l 1,36,-1
 280 870 l 1,37,-1
 296 875 l 1,38,39
 422 821 422 821 545 775 c 1,40,-1
 524 704 l 1,41,-1
 505 691 l 1,42,43
 412 715 412 715 251 746 c 1,35,-1
322 301 m 2,44,45
 329 301 329 301 371 303 c 1,46,-1
 361 478 l 1,47,-1
 339 478 l 1,48,-1
 274 301 l 1,49,-1
 322 301 l 2,44,45
EndSplineSet
EndChar

StartChar: Aacute
Encoding: 193 193 130
Width: 661
GlyphClass: 2
Flags: W
LayerCount: 2
Fore
SplineSet
377 121 m 2,0,-1
 377 178 l 1,1,2
 312 180 312 180 304 180 c 2,3,-1
 227 175 l 1,4,5
 208 111 208 111 208 104 c 0,6,7
 208 89 208 89 231 89 c 2,8,-1
 258 89 l 1,9,-1
 265 79 l 1,10,-1
 247 -4 l 1,11,12
 156 -1 156 -1 97 -1 c 2,13,-1
 -33 -2 l 1,14,-1
 -16 85 l 1,15,16
 20 94 20 94 39 140 c 2,17,-1
 250 642 l 1,18,-1
 517 658 l 1,19,-1
 531 646 l 1,20,21
 579 261 579 261 593 153 c 0,22,23
 597 119 597 119 608 104 c 128,-1,24
 619 89 619 89 640 86 c 1,25,-1
 646 76 l 1,26,-1
 628 -3 l 1,27,28
 544 -1 544 -1 490 -1 c 1,29,-1
 302 -6 l 1,30,-1
 295 3 l 1,31,-1
 311 87 l 1,32,33
 353 92 353 92 365 98 c 128,-1,34
 377 104 377 104 377 121 c 2,0,-1
322 301 m 2,35,36
 329 301 329 301 371 303 c 1,37,-1
 361 478 l 1,38,-1
 339 478 l 1,39,-1
 274 301 l 1,40,-1
 322 301 l 2,35,36
551 762 m 1,41,-1
 544 746 l 1,42,43
 414 722 414 722 290 691 c 1,44,-1
 271 704 l 1,45,-1
 250 775 l 1,46,47
 353 813 353 813 499 875 c 1,48,-1
 515 870 l 1,49,-1
 551 762 l 1,41,-1
EndSplineSet
EndChar

StartChar: Acircumflex
Encoding: 194 194 131
Width: 661
GlyphClass: 2
Flags: W
LayerCount: 2
Fore
SplineSet
377 121 m 2,0,-1
 377 178 l 1,1,2
 312 180 312 180 304 180 c 2,3,-1
 227 175 l 1,4,5
 208 111 208 111 208 104 c 0,6,7
 208 89 208 89 231 89 c 2,8,-1
 258 89 l 1,9,-1
 265 79 l 1,10,-1
 247 -4 l 1,11,12
 156 -1 156 -1 97 -1 c 2,13,-1
 -33 -2 l 1,14,-1
 -16 85 l 1,15,16
 20 94 20 94 39 140 c 2,17,-1
 250 642 l 1,18,-1
 517 658 l 1,19,-1
 531 646 l 1,20,21
 579 261 579 261 593 153 c 0,22,23
 597 119 597 119 608 104 c 128,-1,24
 619 89 619 89 640 86 c 1,25,-1
 646 76 l 1,26,-1
 628 -3 l 1,27,28
 544 -1 544 -1 490 -1 c 1,29,-1
 302 -6 l 1,30,-1
 295 3 l 1,31,-1
 311 87 l 1,32,33
 353 92 353 92 365 98 c 128,-1,34
 377 104 377 104 377 121 c 2,0,-1
322 301 m 2,35,36
 329 301 329 301 371 303 c 1,37,-1
 361 478 l 1,38,-1
 339 478 l 1,39,-1
 274 301 l 1,40,-1
 322 301 l 2,35,36
431 908 m 1,41,42
 431 911 431 911 494 853.5 c 128,-1,43
 557 796 557 796 587 770 c 1,44,-1
 544 708 l 1,45,-1
 520 701 l 1,46,47
 476 721 476 721 398 752 c 1,48,49
 348 734 348 734 264 701 c 1,50,-1
 242 708 l 1,51,-1
 214 770 l 1,52,53
 294 824 294 824 404 908 c 1,54,-1
 431 908 l 1,41,42
EndSplineSet
EndChar

StartChar: Atilde
Encoding: 195 195 132
Width: 661
GlyphClass: 2
Flags: W
LayerCount: 2
Fore
SplineSet
377 121 m 2,0,-1
 377 178 l 1,1,2
 312 180 312 180 304 180 c 2,3,-1
 227 175 l 1,4,5
 208 111 208 111 208 104 c 0,6,7
 208 89 208 89 231 89 c 2,8,-1
 258 89 l 1,9,-1
 265 79 l 1,10,-1
 247 -4 l 1,11,12
 156 -1 156 -1 97 -1 c 2,13,-1
 -33 -2 l 1,14,-1
 -16 85 l 1,15,16
 20 94 20 94 39 140 c 2,17,-1
 250 642 l 1,18,-1
 517 658 l 1,19,-1
 531 646 l 1,20,21
 579 261 579 261 593 153 c 0,22,23
 597 119 597 119 608 104 c 128,-1,24
 619 89 619 89 640 86 c 1,25,-1
 646 76 l 1,26,-1
 628 -3 l 1,27,28
 544 -1 544 -1 490 -1 c 1,29,-1
 302 -6 l 1,30,-1
 295 3 l 1,31,-1
 311 87 l 1,32,33
 353 92 353 92 365 98 c 128,-1,34
 377 104 377 104 377 121 c 2,0,-1
322 301 m 2,35,36
 329 301 329 301 371 303 c 1,37,-1
 361 478 l 1,38,-1
 339 478 l 1,39,-1
 274 301 l 1,40,-1
 322 301 l 2,35,36
390.5 847 m 128,-1,42
 447 830 447 830 460 830 c 0,43,44
 482 830 482 830 521 874 c 1,45,-1
 534 888 l 1,46,-1
 550 888 l 1,47,-1
 602 834 l 1,48,-1
 600 818 l 1,49,-1
 507 703 l 1,50,-1
 490 699 l 1,51,52
 472 699 472 699 415.5 716 c 128,-1,53
 359 733 359 733 346.5 733 c 128,-1,54
 334 733 334 733 315.5 718.5 c 128,-1,55
 297 704 297 704 272 675 c 1,56,-1
 256 675 l 1,57,-1
 204 729 l 1,58,-1
 206 745 l 1,59,-1
 299 860 l 1,60,-1
 316 864 l 1,61,41
 334 864 334 864 390.5 847 c 128,-1,42
EndSplineSet
EndChar

StartChar: Adieresis
Encoding: 196 196 133
Width: 661
GlyphClass: 2
Flags: W
LayerCount: 2
Fore
SplineSet
377 121 m 2,0,-1
 377 178 l 1,1,2
 312 180 312 180 304 180 c 2,3,-1
 227 175 l 1,4,5
 208 111 208 111 208 104 c 0,6,7
 208 89 208 89 231 89 c 2,8,-1
 258 89 l 1,9,-1
 265 79 l 1,10,-1
 247 -4 l 1,11,12
 156 -1 156 -1 97 -1 c 2,13,-1
 -33 -2 l 1,14,-1
 -16 85 l 1,15,16
 20 94 20 94 39 140 c 2,17,-1
 250 642 l 1,18,-1
 517 658 l 1,19,-1
 531 646 l 1,20,21
 579 261 579 261 593 153 c 0,22,23
 597 119 597 119 608 104 c 128,-1,24
 619 89 619 89 640 86 c 1,25,-1
 646 76 l 1,26,-1
 628 -3 l 1,27,28
 544 -1 544 -1 490 -1 c 1,29,-1
 302 -6 l 1,30,-1
 295 3 l 1,31,-1
 311 87 l 1,32,33
 353 92 353 92 365 98 c 128,-1,34
 377 104 377 104 377 121 c 2,0,-1
322 301 m 2,35,36
 329 301 329 301 371 303 c 1,37,-1
 361 478 l 1,38,-1
 339 478 l 1,39,-1
 274 301 l 1,40,-1
 322 301 l 2,35,36
482 695 m 0,41,42
 411 695 411 695 411 762 c 0,43,44
 411 807 411 807 437.5 834.5 c 128,-1,45
 464 862 464 862 503 862 c 0,46,47
 578 862 578 862 578 794 c 0,48,49
 578 750 578 750 551.5 722.5 c 128,-1,50
 525 695 525 695 482 695 c 0,41,42
294 695 m 0,51,52
 224 695 224 695 224 762 c 0,53,54
 224 807 224 807 250.5 834.5 c 128,-1,55
 277 862 277 862 316 862 c 0,56,57
 390 862 390 862 390 794 c 0,58,59
 390 750 390 750 363.5 722.5 c 128,-1,60
 337 695 337 695 294 695 c 0,51,52
EndSplineSet
EndChar

StartChar: Aring
Encoding: 197 197 134
Width: 661
GlyphClass: 2
Flags: W
LayerCount: 2
Fore
SplineSet
377 121 m 2,0,-1
 377 178 l 1,1,2
 312 180 312 180 304 180 c 2,3,-1
 227 175 l 1,4,5
 208 111 208 111 208 104 c 0,6,7
 208 89 208 89 231 89 c 2,8,-1
 258 89 l 1,9,-1
 265 79 l 1,10,-1
 247 -4 l 1,11,12
 156 -1 156 -1 97 -1 c 2,13,-1
 -33 -2 l 1,14,-1
 -16 85 l 1,15,16
 20 94 20 94 39 140 c 2,17,-1
 250 642 l 1,18,-1
 517 658 l 1,19,-1
 531 646 l 1,20,21
 579 261 579 261 593 153 c 0,22,23
 597 119 597 119 608 104 c 128,-1,24
 619 89 619 89 640 86 c 1,25,-1
 646 76 l 1,26,-1
 628 -3 l 1,27,28
 544 -1 544 -1 490 -1 c 1,29,-1
 302 -6 l 1,30,-1
 295 3 l 1,31,-1
 311 87 l 1,32,33
 353 92 353 92 365 98 c 128,-1,34
 377 104 377 104 377 121 c 2,0,-1
476.5 719.5 m 128,-1,36
 442 682 442 682 393.5 682 c 128,-1,37
 345 682 345 682 322.5 706 c 128,-1,38
 300 730 300 730 300 776.5 c 128,-1,39
 300 823 300 823 334.5 857.5 c 128,-1,40
 369 892 369 892 418.5 892 c 128,-1,41
 468 892 468 892 489.5 868 c 128,-1,42
 511 844 511 844 511 800.5 c 128,-1,35
 511 757 511 757 476.5 719.5 c 128,-1,36
322 301 m 2,43,44
 329 301 329 301 371 303 c 1,45,-1
 361 478 l 1,46,-1
 339 478 l 1,47,-1
 274 301 l 1,48,-1
 322 301 l 2,43,44
403 752 m 0,49,50
 417 752 417 752 429 760.5 c 128,-1,51
 441 769 441 769 441 790 c 0,52,53
 441 820 441 820 407 820 c 0,54,55
 370 820 370 820 370 783 c 0,56,57
 370 752 370 752 403 752 c 0,49,50
EndSplineSet
EndChar

StartChar: AE
Encoding: 198 198 135
Width: 916
GlyphClass: 2
Flags: W
LayerCount: 2
Fore
SplineSet
210 101 m 0,0,1
 210 92 210 92 218.5 90.5 c 128,-1,2
 227 89 227 89 262 89 c 1,3,-1
 265 79 l 1,4,-1
 248 -4 l 1,5,6
 242 -1 242 -1 54 -1 c 1,7,-1
 -24 -2 l 1,8,-1
 -16 85 l 1,9,10
 22 94 22 94 46 140 c 2,11,-1
 247 531 l 1,12,13
 246 559 246 559 225 559 c 1,14,-1
 200 557 l 1,15,-1
 189 571 l 1,16,-1
 208 650 l 1,17,18
 371 647 371 647 587.5 648 c 128,-1,19
 804 649 804 649 877 659 c 1,20,-1
 888 643 l 1,21,22
 858 538 858 538 841 444 c 1,23,-1
 702 435 l 1,24,25
 709 467 709 467 709 488.5 c 128,-1,26
 709 510 709 510 691 518.5 c 128,-1,27
 673 527 673 527 623 527 c 0,28,29
 589 527 589 527 589 503 c 1,30,-1
 595 372 l 1,31,-1
 665 385 l 1,32,-1
 766 411 l 1,33,-1
 781 394 l 1,34,-1
 756 278 l 1,35,-1
 660 266 l 1,36,-1
 598 254 l 1,37,-1
 599 181 l 2,38,39
 600 114 600 114 643 114 c 0,40,41
 696 114 696 114 716.5 133.5 c 128,-1,42
 737 153 737 153 754 221 c 1,43,-1
 883 230 l 1,44,-1
 894 215 l 1,45,46
 864 118 864 118 841 9 c 1,47,-1
 824 -7 l 1,48,49
 664 0 664 0 470 0 c 1,50,-1
 302 -6 l 1,51,-1
 296 3 l 1,52,-1
 312 87 l 1,53,54
 352 91 352 91 366 100 c 0,55,56
 385 111 385 111 385 162 c 1,57,-1
 388 219 l 1,58,-1
 315 206 l 1,59,-1
 238 183 l 1,60,61
 210 105 210 105 210 101 c 0,0,1
304 324 m 1,62,-1
 344 328 l 1,63,-1
 393 337 l 1,64,-1
 397 478 l 1,65,-1
 375 478 l 1,66,-1
 304 324 l 1,62,-1
EndSplineSet
EndChar

StartChar: Ccedilla
Encoding: 199 199 136
Width: 584
GlyphClass: 2
Flags: W
LayerCount: 2
Fore
SplineSet
222 -126 m 0,0,1
 222 -174 222 -174 262 -174 c 0,2,3
 293 -174 293 -174 293 -150.5 c 128,-1,4
 293 -127 293 -127 216 -87 c 1,5,-1
 244 -9 l 1,6,7
 135 0 135 0 76.5 69 c 128,-1,8
 18 138 18 138 18 259 c 0,9,10
 18 455 18 455 112 557 c 128,-1,11
 206 659 206 659 386 659 c 0,12,13
 460 659 460 659 608 633 c 1,14,-1
 614 613 l 1,15,16
 582 521 582 521 560 399 c 1,17,-1
 404 390 l 1,18,19
 415 447 415 447 415 465 c 0,20,21
 415 521 415 521 349 521 c 0,22,23
 294 521 294 521 271 463 c 128,-1,24
 248 405 248 405 248 268 c 0,25,26
 248 193 248 193 263.5 161.5 c 128,-1,27
 279 130 279 130 316 130 c 128,-1,28
 353 130 353 130 370.5 153.5 c 128,-1,29
 388 177 388 177 402 246 c 1,30,-1
 557 256 l 1,31,32
 531 139 531 139 520 43 c 1,33,-1
 505 27 l 1,34,35
 420 -5 420 -5 308 -10 c 1,36,-1
 300 -37 l 1,37,38
 337 -56 337 -56 366.5 -82.5 c 128,-1,39
 396 -109 396 -109 396 -138 c 0,40,41
 396 -181 396 -181 348.5 -212 c 128,-1,42
 301 -243 301 -243 235 -243 c 0,43,44
 205 -243 205 -243 179 -229 c 128,-1,45
 153 -215 153 -215 153 -193 c 128,-1,46
 153 -171 153 -171 214 -118 c 1,47,-1
 222 -118 l 1,48,49
 222 -122 222 -122 222 -126 c 0,0,1
EndSplineSet
EndChar

StartChar: Egrave
Encoding: 200 200 137
Width: 586
GlyphClass: 2
Flags: W
LayerCount: 2
Fore
SplineSet
303 387 m 1,0,-1
 382 386 l 1,1,-1
 489 392 l 1,2,-1
 499 378 l 1,3,-1
 471 263 l 1,4,5
 400 266 400 266 368.5 266 c 128,-1,6
 337 266 337 266 283 260 c 1,7,8
 269 165 269 165 269 147 c 128,-1,9
 269 129 269 129 277.5 122 c 128,-1,10
 286 115 286 115 309 115 c 0,11,12
 369 115 369 115 391.5 134.5 c 128,-1,13
 414 154 414 154 431 221 c 1,14,-1
 560 230 l 1,15,-1
 571 215 l 1,16,17
 541 118 541 118 518 9 c 1,18,-1
 501 -7 l 1,19,20
 343 0 343 0 244 0 c 0,21,22
 100 0 100 0 -20 -10 c 1,23,-1
 0 82 l 1,24,25
 37 88 37 88 52.5 106.5 c 128,-1,26
 68 125 68 125 73 170 c 0,27,28
 118 521 118 521 118 531.5 c 128,-1,29
 118 542 118 542 115 550.5 c 128,-1,30
 112 559 112 559 96 559 c 1,31,-1
 71 557 l 1,32,-1
 61 571 l 1,33,-1
 80 650 l 1,34,35
 220 647 220 647 369 647 c 128,-1,36
 518 647 518 647 612 659 c 1,37,-1
 623 643 l 1,38,39
 592 538 592 538 576 444 c 1,40,-1
 436 435 l 1,41,42
 444 467 444 467 444 488.5 c 128,-1,43
 444 510 444 510 426 518.5 c 128,-1,44
 408 527 408 527 373.5 527 c 128,-1,45
 339 527 339 527 332.5 522 c 128,-1,46
 326 517 326 517 323 500 c 2,47,-1
 303 387 l 1,0,-1
221 746 m 1,48,-1
 214 762 l 1,49,-1
 250 870 l 1,50,-1
 266 875 l 1,51,52
 392 821 392 821 515 775 c 1,53,-1
 494 704 l 1,54,-1
 475 691 l 1,55,56
 382 715 382 715 221 746 c 1,48,-1
EndSplineSet
EndChar

StartChar: Eacute
Encoding: 201 201 138
Width: 586
GlyphClass: 2
Flags: W
LayerCount: 2
Fore
SplineSet
303 387 m 1,0,-1
 382 386 l 1,1,-1
 489 392 l 1,2,-1
 499 378 l 1,3,-1
 471 263 l 1,4,5
 400 266 400 266 368.5 266 c 128,-1,6
 337 266 337 266 283 260 c 1,7,8
 269 165 269 165 269 147 c 128,-1,9
 269 129 269 129 277.5 122 c 128,-1,10
 286 115 286 115 309 115 c 0,11,12
 369 115 369 115 391.5 134.5 c 128,-1,13
 414 154 414 154 431 221 c 1,14,-1
 560 230 l 1,15,-1
 571 215 l 1,16,17
 541 118 541 118 518 9 c 1,18,-1
 501 -7 l 1,19,20
 343 0 343 0 244 0 c 0,21,22
 100 0 100 0 -20 -10 c 1,23,-1
 0 82 l 1,24,25
 37 88 37 88 52.5 106.5 c 128,-1,26
 68 125 68 125 73 170 c 0,27,28
 118 521 118 521 118 531.5 c 128,-1,29
 118 542 118 542 115 550.5 c 128,-1,30
 112 559 112 559 96 559 c 1,31,-1
 71 557 l 1,32,-1
 61 571 l 1,33,-1
 80 650 l 1,34,35
 220 647 220 647 369 647 c 128,-1,36
 518 647 518 647 612 659 c 1,37,-1
 623 643 l 1,38,39
 592 538 592 538 576 444 c 1,40,-1
 436 435 l 1,41,42
 444 467 444 467 444 488.5 c 128,-1,43
 444 510 444 510 426 518.5 c 128,-1,44
 408 527 408 527 373.5 527 c 128,-1,45
 339 527 339 527 332.5 522 c 128,-1,46
 326 517 326 517 323 500 c 2,47,-1
 303 387 l 1,0,-1
516 762 m 1,48,-1
 509 746 l 1,49,50
 379 722 379 722 255 691 c 1,51,-1
 236 704 l 1,52,-1
 215 775 l 1,53,54
 318 813 318 813 464 875 c 1,55,-1
 480 870 l 1,56,-1
 516 762 l 1,48,-1
EndSplineSet
EndChar

StartChar: Ecircumflex
Encoding: 202 202 139
Width: 586
GlyphClass: 2
Flags: W
LayerCount: 2
Fore
SplineSet
303 387 m 1,0,-1
 382 386 l 1,1,-1
 489 392 l 1,2,-1
 499 378 l 1,3,-1
 471 263 l 1,4,5
 400 266 400 266 368.5 266 c 128,-1,6
 337 266 337 266 283 260 c 1,7,8
 269 165 269 165 269 147 c 128,-1,9
 269 129 269 129 277.5 122 c 128,-1,10
 286 115 286 115 309 115 c 0,11,12
 369 115 369 115 391.5 134.5 c 128,-1,13
 414 154 414 154 431 221 c 1,14,-1
 560 230 l 1,15,-1
 571 215 l 1,16,17
 541 118 541 118 518 9 c 1,18,-1
 501 -7 l 1,19,20
 343 0 343 0 244 0 c 0,21,22
 100 0 100 0 -20 -10 c 1,23,-1
 0 82 l 1,24,25
 37 88 37 88 52.5 106.5 c 128,-1,26
 68 125 68 125 73 170 c 0,27,28
 118 521 118 521 118 531.5 c 128,-1,29
 118 542 118 542 115 550.5 c 128,-1,30
 112 559 112 559 96 559 c 1,31,-1
 71 557 l 1,32,-1
 61 571 l 1,33,-1
 80 650 l 1,34,35
 220 647 220 647 369 647 c 128,-1,36
 518 647 518 647 612 659 c 1,37,-1
 623 643 l 1,38,39
 592 538 592 538 576 444 c 1,40,-1
 436 435 l 1,41,42
 444 467 444 467 444 488.5 c 128,-1,43
 444 510 444 510 426 518.5 c 128,-1,44
 408 527 408 527 373.5 527 c 128,-1,45
 339 527 339 527 332.5 522 c 128,-1,46
 326 517 326 517 323 500 c 2,47,-1
 303 387 l 1,0,-1
416 908 m 1,48,49
 416 911 416 911 479 853.5 c 128,-1,50
 542 796 542 796 572 770 c 1,51,-1
 529 708 l 1,52,-1
 505 701 l 1,53,54
 461 721 461 721 383 752 c 1,55,56
 333 734 333 734 249 701 c 1,57,-1
 227 708 l 1,58,-1
 199 770 l 1,59,60
 279 824 279 824 389 908 c 1,61,-1
 416 908 l 1,48,49
EndSplineSet
EndChar

StartChar: Edieresis
Encoding: 203 203 140
Width: 586
GlyphClass: 2
Flags: W
LayerCount: 2
Fore
SplineSet
303 387 m 1,0,-1
 382 386 l 1,1,-1
 489 392 l 1,2,-1
 499 378 l 1,3,-1
 471 263 l 1,4,5
 400 266 400 266 368.5 266 c 128,-1,6
 337 266 337 266 283 260 c 1,7,8
 269 165 269 165 269 147 c 128,-1,9
 269 129 269 129 277.5 122 c 128,-1,10
 286 115 286 115 309 115 c 0,11,12
 369 115 369 115 391.5 134.5 c 128,-1,13
 414 154 414 154 431 221 c 1,14,-1
 560 230 l 1,15,-1
 571 215 l 1,16,17
 541 118 541 118 518 9 c 1,18,-1
 501 -7 l 1,19,20
 343 0 343 0 244 0 c 0,21,22
 100 0 100 0 -20 -10 c 1,23,-1
 0 82 l 1,24,25
 37 88 37 88 52.5 106.5 c 128,-1,26
 68 125 68 125 73 170 c 0,27,28
 118 521 118 521 118 531.5 c 128,-1,29
 118 542 118 542 115 550.5 c 128,-1,30
 112 559 112 559 96 559 c 1,31,-1
 71 557 l 1,32,-1
 61 571 l 1,33,-1
 80 650 l 1,34,35
 220 647 220 647 369 647 c 128,-1,36
 518 647 518 647 612 659 c 1,37,-1
 623 643 l 1,38,39
 592 538 592 538 576 444 c 1,40,-1
 436 435 l 1,41,42
 444 467 444 467 444 488.5 c 128,-1,43
 444 510 444 510 426 518.5 c 128,-1,44
 408 527 408 527 373.5 527 c 128,-1,45
 339 527 339 527 332.5 522 c 128,-1,46
 326 517 326 517 323 500 c 2,47,-1
 303 387 l 1,0,-1
467 695 m 0,48,49
 396 695 396 695 396 762 c 0,50,51
 396 807 396 807 422.5 834.5 c 128,-1,52
 449 862 449 862 488 862 c 0,53,54
 563 862 563 862 563 794 c 0,55,56
 563 750 563 750 536.5 722.5 c 128,-1,57
 510 695 510 695 467 695 c 0,48,49
279 695 m 0,58,59
 209 695 209 695 209 762 c 0,60,61
 209 807 209 807 235.5 834.5 c 128,-1,62
 262 862 262 862 300 862 c 0,63,64
 375 862 375 862 375 794 c 0,65,66
 375 750 375 750 348.5 722.5 c 128,-1,67
 322 695 322 695 279 695 c 0,58,59
EndSplineSet
EndChar

StartChar: Igrave
Encoding: 204 204 141
Width: 359
GlyphClass: 2
Flags: W
LayerCount: 2
Fore
SplineSet
287.5 290 m 128,-1,1
 267 152 267 152 267 127.5 c 128,-1,2
 267 103 267 103 272.5 95 c 128,-1,3
 278 87 278 87 292 87 c 1,4,-1
 323 90 l 1,5,-1
 329 80 l 1,6,-1
 310 -4 l 1,7,8
 188 0 188 0 147 0 c 1,9,-1
 -17 -5 l 1,10,-1
 1 80 l 1,11,12
 41 89 41 89 54.5 104.5 c 128,-1,13
 68 120 68 120 73 162 c 0,14,15
 118 521 118 521 118 532 c 128,-1,16
 118 543 118 543 113 551 c 128,-1,17
 108 559 108 559 88 559 c 2,18,-1
 64 558 l 1,19,-1
 56 572 l 1,20,-1
 73 647 l 1,21,-1
 232 647 l 1,22,-1
 402 652 l 1,23,-1
 384 562 l 1,24,25
 351 557 351 557 340 547.5 c 128,-1,26
 329 538 329 538 323 510 c 0,27,0
 308 428 308 428 287.5 290 c 128,-1,1
89 746 m 1,28,-1
 82 762 l 1,29,-1
 118 870 l 1,30,-1
 134 875 l 1,31,32
 260 821 260 821 383 775 c 1,33,-1
 362 704 l 1,34,-1
 343 691 l 1,35,36
 250 715 250 715 89 746 c 1,28,-1
EndSplineSet
EndChar

StartChar: Iacute
Encoding: 205 205 142
Width: 359
GlyphClass: 2
Flags: W
LayerCount: 2
Fore
SplineSet
287.5 290 m 128,-1,1
 267 152 267 152 267 127.5 c 128,-1,2
 267 103 267 103 272.5 95 c 128,-1,3
 278 87 278 87 292 87 c 1,4,-1
 323 90 l 1,5,-1
 329 80 l 1,6,-1
 310 -4 l 1,7,8
 188 0 188 0 147 0 c 1,9,-1
 -17 -5 l 1,10,-1
 1 80 l 1,11,12
 41 89 41 89 54.5 104.5 c 128,-1,13
 68 120 68 120 73 162 c 0,14,15
 118 521 118 521 118 532 c 128,-1,16
 118 543 118 543 113 551 c 128,-1,17
 108 559 108 559 88 559 c 2,18,-1
 64 558 l 1,19,-1
 56 572 l 1,20,-1
 73 647 l 1,21,-1
 232 647 l 1,22,-1
 402 652 l 1,23,-1
 384 562 l 1,24,25
 351 557 351 557 340 547.5 c 128,-1,26
 329 538 329 538 323 510 c 0,27,0
 308 428 308 428 287.5 290 c 128,-1,1
397 762 m 1,28,-1
 390 746 l 1,29,30
 260 722 260 722 136 691 c 1,31,-1
 117 704 l 1,32,-1
 96 775 l 1,33,34
 199 813 199 813 345 875 c 1,35,-1
 361 870 l 1,36,-1
 397 762 l 1,28,-1
EndSplineSet
EndChar

StartChar: Icircumflex
Encoding: 206 206 143
Width: 359
GlyphClass: 2
Flags: W
LayerCount: 2
Fore
SplineSet
287.5 290 m 128,-1,1
 267 152 267 152 267 127.5 c 128,-1,2
 267 103 267 103 272.5 95 c 128,-1,3
 278 87 278 87 292 87 c 1,4,-1
 323 90 l 1,5,-1
 329 80 l 1,6,-1
 310 -4 l 1,7,8
 188 0 188 0 147 0 c 1,9,-1
 -17 -5 l 1,10,-1
 1 80 l 1,11,12
 41 89 41 89 54.5 104.5 c 128,-1,13
 68 120 68 120 73 162 c 0,14,15
 118 521 118 521 118 532 c 128,-1,16
 118 543 118 543 113 551 c 128,-1,17
 108 559 108 559 88 559 c 2,18,-1
 64 558 l 1,19,-1
 56 572 l 1,20,-1
 73 647 l 1,21,-1
 232 647 l 1,22,-1
 402 652 l 1,23,-1
 384 562 l 1,24,25
 351 557 351 557 340 547.5 c 128,-1,26
 329 538 329 538 323 510 c 0,27,0
 308 428 308 428 287.5 290 c 128,-1,1
277 908 m 1,28,29
 277 911 277 911 340 853.5 c 128,-1,30
 403 796 403 796 433 770 c 1,31,-1
 390 708 l 1,32,-1
 366 701 l 1,33,34
 322 721 322 721 244 752 c 1,35,36
 194 734 194 734 110 701 c 1,37,-1
 88 708 l 1,38,-1
 60 770 l 1,39,40
 140 824 140 824 250 908 c 1,41,-1
 277 908 l 1,28,29
EndSplineSet
EndChar

StartChar: Idieresis
Encoding: 207 207 144
Width: 359
GlyphClass: 2
Flags: W
LayerCount: 2
Fore
SplineSet
287.5 290 m 128,-1,1
 267 152 267 152 267 127.5 c 128,-1,2
 267 103 267 103 272.5 95 c 128,-1,3
 278 87 278 87 292 87 c 1,4,-1
 323 90 l 1,5,-1
 329 80 l 1,6,-1
 310 -4 l 1,7,8
 188 0 188 0 147 0 c 1,9,-1
 -17 -5 l 1,10,-1
 1 80 l 1,11,12
 41 89 41 89 54.5 104.5 c 128,-1,13
 68 120 68 120 73 162 c 0,14,15
 118 521 118 521 118 532 c 128,-1,16
 118 543 118 543 113 551 c 128,-1,17
 108 559 108 559 88 559 c 2,18,-1
 64 558 l 1,19,-1
 56 572 l 1,20,-1
 73 647 l 1,21,-1
 232 647 l 1,22,-1
 402 652 l 1,23,-1
 384 562 l 1,24,25
 351 557 351 557 340 547.5 c 128,-1,26
 329 538 329 538 323 510 c 0,27,0
 308 428 308 428 287.5 290 c 128,-1,1
328 695 m 0,28,29
 257 695 257 695 257 762 c 0,30,31
 257 807 257 807 283.5 834.5 c 128,-1,32
 310 862 310 862 349 862 c 0,33,34
 424 862 424 862 424 794 c 0,35,36
 424 750 424 750 397.5 722.5 c 128,-1,37
 371 695 371 695 328 695 c 0,28,29
140 695 m 0,38,39
 70 695 70 695 70 762 c 0,40,41
 70 807 70 807 96.5 834.5 c 128,-1,42
 123 862 123 862 162 862 c 0,43,44
 236 862 236 862 236 794 c 0,45,46
 236 750 236 750 209.5 722.5 c 128,-1,47
 183 695 183 695 140 695 c 0,38,39
EndSplineSet
EndChar

StartChar: Eth
Encoding: 208 208 145
Width: 680
GlyphClass: 2
Flags: W
LayerCount: 2
Fore
SplineSet
139 531 m 0,0,1
 139 557 139 557 120 557 c 1,2,-1
 89 555 l 1,3,-1
 81 569 l 1,4,-1
 100 650 l 1,5,6
 209 647 209 647 249 647 c 1,7,-1
 402 653 l 1,8,9
 539 653 539 653 612 589 c 128,-1,10
 685 525 685 525 685 402 c 0,11,12
 685 215 685 215 579 101.5 c 128,-1,13
 473 -12 473 -12 299 -12 c 1,14,15
 207 0 207 0 146 0 c 1,16,-1
 4 -8 l 1,17,-1
 24 85 l 1,18,19
 60 91 60 91 74.5 108 c 128,-1,20
 89 125 89 125 96 168 c 1,21,-1
 108 266 l 1,22,-1
 20 266 l 1,23,-1
 11 274 l 1,24,-1
 35 363 l 1,25,-1
 120 363 l 1,26,27
 139 521 139 521 139 531 c 0,0,1
363 526 m 0,28,29
 353 526 353 526 348 520.5 c 128,-1,30
 343 515 343 515 340 499 c 128,-1,31
 337 483 337 483 318 364 c 1,32,-1
 388 367 l 1,33,-1
 395 357 l 1,34,-1
 377 267 l 1,35,-1
 304 267 l 1,36,37
 287 157 287 157 287 142 c 0,38,39
 287 113 287 113 313 113 c 0,40,41
 455 113 455 113 455 398 c 0,42,43
 455 469 455 469 434.5 497.5 c 128,-1,44
 414 526 414 526 363 526 c 0,28,29
EndSplineSet
EndChar

StartChar: Ntilde
Encoding: 209 209 146
Width: 718
GlyphClass: 2
Flags: W
LayerCount: 2
Fore
SplineSet
496 333 m 1,0,1
 515 521 515 521 515 532 c 128,-1,2
 515 543 515 543 510 551 c 128,-1,3
 505 559 505 559 488 559 c 2,4,-1
 458 559 l 1,5,-1
 454 570 l 1,6,-1
 469 651 l 1,7,8
 578 647 578 647 674 647 c 128,-1,9
 770 647 770 647 770 650 c 2,10,-1
 754 560 l 1,11,12
 723 556 723 556 709.5 542 c 128,-1,13
 696 528 696 528 691 497 c 2,14,-1
 617 0 l 1,15,-1
 425 -12 l 1,16,17
 357 144 357 144 275 315 c 1,18,-1
 260 315 l 1,19,20
 241 128 241 128 241 116.5 c 128,-1,21
 241 105 241 105 246.5 95.5 c 128,-1,22
 252 86 252 86 274 86 c 1,23,-1
 306 90 l 1,24,-1
 314 81 l 1,25,-1
 293 -4 l 1,26,27
 183 0 183 0 147 0 c 0,28,29
 80 0 80 0 -12 -8 c 1,30,-1
 9 82 l 1,31,32
 38 86 38 86 53 100.5 c 128,-1,33
 68 115 68 115 72 145 c 0,34,35
 127 504 127 504 127 518 c 128,-1,36
 127 532 127 532 117 542 c 128,-1,37
 107 552 107 552 62 557 c 1,38,-1
 52 571 l 1,39,-1
 67 652 l 1,40,41
 140 647 140 647 213 647 c 1,42,-1
 341 651 l 1,43,44
 397 507 397 507 481 333 c 1,45,-1
 496 333 l 1,0,1
423.5 847 m 128,-1,47
 480 830 480 830 492 830 c 0,48,49
 515 830 515 830 554 874 c 1,50,-1
 567 888 l 1,51,-1
 583 888 l 1,52,-1
 635 834 l 1,53,-1
 633 818 l 1,54,-1
 540 703 l 1,55,-1
 523 699 l 1,56,57
 505 699 505 699 448.5 716 c 128,-1,58
 392 733 392 733 379.5 733 c 128,-1,59
 367 733 367 733 348.5 718.5 c 128,-1,60
 330 704 330 704 305 675 c 1,61,-1
 289 675 l 1,62,-1
 237 729 l 1,63,-1
 239 745 l 1,64,-1
 332 860 l 1,65,-1
 349 864 l 1,66,46
 367 864 367 864 423.5 847 c 128,-1,47
EndSplineSet
EndChar

StartChar: Ograve
Encoding: 210 210 147
Width: 633
GlyphClass: 2
Flags: W
LayerCount: 2
Fore
SplineSet
310 114 m 0,0,1
 362 114 362 114 384.5 181 c 128,-1,2
 407 248 407 248 407 402 c 0,3,4
 407 522 407 522 342 522 c 0,5,6
 292 522 292 522 269.5 454.5 c 128,-1,7
 247 387 247 387 247 234 c 0,8,9
 247 114 247 114 310 114 c 0,0,1
283 -12 m 0,10,11
 158 -12 158 -12 88 57.5 c 128,-1,12
 18 127 18 127 18 256 c 0,13,14
 18 450 18 450 108.5 554.5 c 128,-1,15
 199 659 199 659 372 659 c 0,16,17
 500 659 500 659 569 592.5 c 128,-1,18
 638 526 638 526 638 398 c 0,19,20
 638 204 638 204 546 96 c 128,-1,21
 454 -12 454 -12 283 -12 c 0,10,11
235 746 m 1,22,-1
 228 762 l 1,23,-1
 264 870 l 1,24,-1
 280 875 l 1,25,26
 406 821 406 821 529 775 c 1,27,-1
 508 704 l 1,28,-1
 489 691 l 1,29,30
 396 715 396 715 235 746 c 1,22,-1
EndSplineSet
EndChar

StartChar: Oacute
Encoding: 211 211 148
Width: 633
GlyphClass: 2
Flags: W
LayerCount: 2
Fore
SplineSet
310 114 m 0,0,1
 362 114 362 114 384.5 181 c 128,-1,2
 407 248 407 248 407 402 c 0,3,4
 407 522 407 522 342 522 c 0,5,6
 292 522 292 522 269.5 454.5 c 128,-1,7
 247 387 247 387 247 234 c 0,8,9
 247 114 247 114 310 114 c 0,0,1
283 -12 m 0,10,11
 158 -12 158 -12 88 57.5 c 128,-1,12
 18 127 18 127 18 256 c 0,13,14
 18 450 18 450 108.5 554.5 c 128,-1,15
 199 659 199 659 372 659 c 0,16,17
 500 659 500 659 569 592.5 c 128,-1,18
 638 526 638 526 638 398 c 0,19,20
 638 204 638 204 546 96 c 128,-1,21
 454 -12 454 -12 283 -12 c 0,10,11
528 762 m 1,22,-1
 521 746 l 1,23,24
 391 722 391 722 267 691 c 1,25,-1
 248 704 l 1,26,-1
 227 775 l 1,27,28
 330 813 330 813 476 875 c 1,29,-1
 492 870 l 1,30,-1
 528 762 l 1,22,-1
EndSplineSet
EndChar

StartChar: Ocircumflex
Encoding: 212 212 149
Width: 633
GlyphClass: 2
Flags: W
LayerCount: 2
Fore
SplineSet
310 114 m 0,0,1
 362 114 362 114 384.5 181 c 128,-1,2
 407 248 407 248 407 402 c 0,3,4
 407 522 407 522 342 522 c 0,5,6
 292 522 292 522 269.5 454.5 c 128,-1,7
 247 387 247 387 247 234 c 0,8,9
 247 114 247 114 310 114 c 0,0,1
283 -12 m 0,10,11
 158 -12 158 -12 88 57.5 c 128,-1,12
 18 127 18 127 18 256 c 0,13,14
 18 450 18 450 108.5 554.5 c 128,-1,15
 199 659 199 659 372 659 c 0,16,17
 500 659 500 659 569 592.5 c 128,-1,18
 638 526 638 526 638 398 c 0,19,20
 638 204 638 204 546 96 c 128,-1,21
 454 -12 454 -12 283 -12 c 0,10,11
414 908 m 1,22,23
 414 911 414 911 477 853.5 c 128,-1,24
 540 796 540 796 570 770 c 1,25,-1
 527 708 l 1,26,-1
 503 701 l 1,27,28
 459 721 459 721 381 752 c 1,29,30
 331 734 331 734 247 701 c 1,31,-1
 225 708 l 1,32,-1
 197 770 l 1,33,34
 277 824 277 824 387 908 c 1,35,-1
 414 908 l 1,22,23
EndSplineSet
EndChar

StartChar: Otilde
Encoding: 213 213 150
Width: 633
GlyphClass: 2
Flags: W
LayerCount: 2
Fore
SplineSet
310 114 m 0,0,1
 362 114 362 114 384.5 181 c 128,-1,2
 407 248 407 248 407 402 c 0,3,4
 407 522 407 522 342 522 c 0,5,6
 292 522 292 522 269.5 454.5 c 128,-1,7
 247 387 247 387 247 234 c 0,8,9
 247 114 247 114 310 114 c 0,0,1
283 -12 m 0,10,11
 158 -12 158 -12 88 57.5 c 128,-1,12
 18 127 18 127 18 256 c 0,13,14
 18 450 18 450 108.5 554.5 c 128,-1,15
 199 659 199 659 372 659 c 0,16,17
 500 659 500 659 569 592.5 c 128,-1,18
 638 526 638 526 638 398 c 0,19,20
 638 204 638 204 546 96 c 128,-1,21
 454 -12 454 -12 283 -12 c 0,10,11
373.5 847 m 128,-1,23
 430 830 430 830 442 830 c 0,24,25
 465 830 465 830 504 874 c 1,26,-1
 517 888 l 1,27,-1
 533 888 l 1,28,-1
 585 834 l 1,29,-1
 583 818 l 1,30,-1
 490 703 l 1,31,-1
 473 699 l 1,32,33
 455 699 455 699 398.5 716 c 128,-1,34
 342 733 342 733 329.5 733 c 128,-1,35
 317 733 317 733 298.5 718.5 c 128,-1,36
 280 704 280 704 255 675 c 1,37,-1
 239 675 l 1,38,-1
 187 729 l 1,39,-1
 189 745 l 1,40,-1
 282 860 l 1,41,-1
 299 864 l 1,42,22
 317 864 317 864 373.5 847 c 128,-1,23
EndSplineSet
EndChar

StartChar: Odieresis
Encoding: 214 214 151
Width: 633
GlyphClass: 2
Flags: W
LayerCount: 2
Fore
SplineSet
310 114 m 0,0,1
 362 114 362 114 384.5 181 c 128,-1,2
 407 248 407 248 407 402 c 0,3,4
 407 522 407 522 342 522 c 0,5,6
 292 522 292 522 269.5 454.5 c 128,-1,7
 247 387 247 387 247 234 c 0,8,9
 247 114 247 114 310 114 c 0,0,1
283 -12 m 0,10,11
 158 -12 158 -12 88 57.5 c 128,-1,12
 18 127 18 127 18 256 c 0,13,14
 18 450 18 450 108.5 554.5 c 128,-1,15
 199 659 199 659 372 659 c 0,16,17
 500 659 500 659 569 592.5 c 128,-1,18
 638 526 638 526 638 398 c 0,19,20
 638 204 638 204 546 96 c 128,-1,21
 454 -12 454 -12 283 -12 c 0,10,11
465 695 m 0,22,23
 394 695 394 695 394 762 c 0,24,25
 394 807 394 807 420.5 834.5 c 128,-1,26
 447 862 447 862 486 862 c 0,27,28
 561 862 561 862 561 794 c 0,29,30
 561 750 561 750 534.5 722.5 c 128,-1,31
 508 695 508 695 465 695 c 0,22,23
277 695 m 0,32,33
 207 695 207 695 207 762 c 0,34,35
 207 807 207 807 233.5 834.5 c 128,-1,36
 260 862 260 862 298 862 c 0,37,38
 373 862 373 862 373 794 c 0,39,40
 373 750 373 750 346.5 722.5 c 128,-1,41
 320 695 320 695 277 695 c 0,32,33
EndSplineSet
EndChar

StartChar: multiply
Encoding: 215 215 152
Width: 491
GlyphClass: 2
Flags: W
LayerCount: 2
Fore
SplineSet
379 455 m 1,0,-1
 393 449 l 1,1,-1
 464 347 l 1,2,-1
 346 236 l 1,3,-1
 442 129 l 1,4,-1
 434 113 l 1,5,-1
 319 26 l 1,6,-1
 229 132 l 1,7,-1
 115 26 l 1,8,-1
 100 29 l 1,9,-1
 34 133 l 1,10,11
 86 182 86 182 141 232 c 1,12,-1
 46 345 l 1,13,-1
 51 361 l 1,14,-1
 169 444 l 1,15,16
 213 389 213 389 257 336 c 1,17,-1
 379 455 l 1,0,-1
EndSplineSet
EndChar

StartChar: Oslash
Encoding: 216 216 153
Width: 633
GlyphClass: 2
Flags: W
LayerCount: 2
Fore
SplineSet
18 256 m 0,0,1
 18 450 18 450 108.5 554.5 c 128,-1,2
 199 659 199 659 372 659 c 0,3,4
 427 659 427 659 474 645 c 1,5,-1
 543 752 l 1,6,-1
 640 698 l 1,7,-1
 642 685 l 1,8,-1
 576 585 l 1,9,10
 638 517 638 517 638 398 c 0,11,12
 638 204 638 204 546 96 c 128,-1,13
 454 -12 454 -12 283 -12 c 0,14,15
 230 -12 230 -12 187 0 c 1,16,-1
 108 -117 l 1,17,-1
 13 -62 l 1,18,-1
 9 -52 l 1,19,-1
 85 60 l 1,20,21
 18 130 18 130 18 256 c 0,0,1
310 114 m 0,22,23
 362 114 362 114 384.5 181 c 128,-1,24
 407 248 407 248 407 402 c 0,25,26
 407 522 407 522 342 522 c 0,27,28
 292 522 292 522 269.5 454.5 c 128,-1,29
 247 387 247 387 247 234 c 0,30,31
 247 114 247 114 310 114 c 0,22,23
EndSplineSet
EndChar

StartChar: Ugrave
Encoding: 217 217 154
Width: 605
GlyphClass: 2
Flags: W
LayerCount: 2
Fore
SplineSet
422 531 m 0,0,1
 422 559 422 559 402 559 c 1,2,-1
 381 557 l 1,3,-1
 378 561 l 1,4,-1
 400 650 l 1,5,6
 481 647 481 647 516 647 c 2,7,-1
 659 650 l 1,8,-1
 640 560 l 1,9,10
 609 550 609 550 600 542 c 128,-1,11
 591 534 591 534 589 516 c 2,12,-1
 554 234 l 1,13,14
 537 109 537 109 468.5 48.5 c 128,-1,15
 400 -12 400 -12 279.5 -12 c 128,-1,16
 159 -12 159 -12 103 30 c 128,-1,17
 47 72 47 72 47 159 c 0,18,19
 47 175 47 175 68.5 348.5 c 128,-1,20
 90 522 90 522 90 533 c 128,-1,21
 90 544 90 544 87 551.5 c 128,-1,22
 84 559 84 559 68 559 c 1,23,-1
 40 557 l 1,24,-1
 38 561 l 1,25,-1
 59 650 l 1,26,27
 155 647 155 647 233 647 c 1,28,-1
 365 651 l 1,29,-1
 344 558 l 1,30,31
 318 555 318 555 306.5 544 c 128,-1,32
 295 533 295 533 292 509 c 2,33,-1
 251 220 l 2,34,35
 249 201 249 201 249 187 c 0,36,37
 249 115 249 115 308 115 c 0,38,39
 343 115 343 115 360 135 c 128,-1,40
 377 155 377 155 384 203 c 1,41,42
 422 522 422 522 422 531 c 0,0,1
227 746 m 1,43,-1
 220 762 l 1,44,-1
 256 870 l 1,45,-1
 272 875 l 1,46,47
 398 821 398 821 521 775 c 1,48,-1
 500 704 l 1,49,-1
 481 691 l 1,50,51
 388 715 388 715 227 746 c 1,43,-1
EndSplineSet
EndChar

StartChar: Uacute
Encoding: 218 218 155
Width: 605
GlyphClass: 2
Flags: W
LayerCount: 2
Fore
SplineSet
422 531 m 0,0,1
 422 559 422 559 402 559 c 1,2,-1
 381 557 l 1,3,-1
 378 561 l 1,4,-1
 400 650 l 1,5,6
 481 647 481 647 516 647 c 2,7,-1
 659 650 l 1,8,-1
 640 560 l 1,9,10
 609 550 609 550 600 542 c 128,-1,11
 591 534 591 534 589 516 c 2,12,-1
 554 234 l 1,13,14
 537 109 537 109 468.5 48.5 c 128,-1,15
 400 -12 400 -12 279.5 -12 c 128,-1,16
 159 -12 159 -12 103 30 c 128,-1,17
 47 72 47 72 47 159 c 0,18,19
 47 175 47 175 68.5 348.5 c 128,-1,20
 90 522 90 522 90 533 c 128,-1,21
 90 544 90 544 87 551.5 c 128,-1,22
 84 559 84 559 68 559 c 1,23,-1
 40 557 l 1,24,-1
 38 561 l 1,25,-1
 59 650 l 1,26,27
 155 647 155 647 233 647 c 1,28,-1
 365 651 l 1,29,-1
 344 558 l 1,30,31
 318 555 318 555 306.5 544 c 128,-1,32
 295 533 295 533 292 509 c 2,33,-1
 251 220 l 2,34,35
 249 201 249 201 249 187 c 0,36,37
 249 115 249 115 308 115 c 0,38,39
 343 115 343 115 360 135 c 128,-1,40
 377 155 377 155 384 203 c 1,41,42
 422 522 422 522 422 531 c 0,0,1
522 762 m 1,43,-1
 515 746 l 1,44,45
 385 722 385 722 261 691 c 1,46,-1
 242 704 l 1,47,-1
 221 775 l 1,48,49
 324 813 324 813 470 875 c 1,50,-1
 486 870 l 1,51,-1
 522 762 l 1,43,-1
EndSplineSet
EndChar

StartChar: Ucircumflex
Encoding: 219 219 156
Width: 605
GlyphClass: 2
Flags: W
LayerCount: 2
Fore
SplineSet
422 531 m 0,0,1
 422 559 422 559 402 559 c 1,2,-1
 381 557 l 1,3,-1
 378 561 l 1,4,-1
 400 650 l 1,5,6
 481 647 481 647 516 647 c 2,7,-1
 659 650 l 1,8,-1
 640 560 l 1,9,10
 609 550 609 550 600 542 c 128,-1,11
 591 534 591 534 589 516 c 2,12,-1
 554 234 l 1,13,14
 537 109 537 109 468.5 48.5 c 128,-1,15
 400 -12 400 -12 279.5 -12 c 128,-1,16
 159 -12 159 -12 103 30 c 128,-1,17
 47 72 47 72 47 159 c 0,18,19
 47 175 47 175 68.5 348.5 c 128,-1,20
 90 522 90 522 90 533 c 128,-1,21
 90 544 90 544 87 551.5 c 128,-1,22
 84 559 84 559 68 559 c 1,23,-1
 40 557 l 1,24,-1
 38 561 l 1,25,-1
 59 650 l 1,26,27
 155 647 155 647 233 647 c 1,28,-1
 365 651 l 1,29,-1
 344 558 l 1,30,31
 318 555 318 555 306.5 544 c 128,-1,32
 295 533 295 533 292 509 c 2,33,-1
 251 220 l 2,34,35
 249 201 249 201 249 187 c 0,36,37
 249 115 249 115 308 115 c 0,38,39
 343 115 343 115 360 135 c 128,-1,40
 377 155 377 155 384 203 c 1,41,42
 422 522 422 522 422 531 c 0,0,1
422 908 m 1,43,44
 422 911 422 911 485 853.5 c 128,-1,45
 548 796 548 796 578 770 c 1,46,-1
 535 708 l 1,47,-1
 511 701 l 1,48,49
 467 721 467 721 389 752 c 1,50,51
 339 734 339 734 255 701 c 1,52,-1
 233 708 l 1,53,-1
 205 770 l 1,54,55
 285 824 285 824 395 908 c 1,56,-1
 422 908 l 1,43,44
EndSplineSet
EndChar

StartChar: Udieresis
Encoding: 220 220 157
Width: 605
GlyphClass: 2
Flags: W
LayerCount: 2
Fore
SplineSet
422 531 m 0,0,1
 422 559 422 559 402 559 c 1,2,-1
 381 557 l 1,3,-1
 378 561 l 1,4,-1
 400 650 l 1,5,6
 481 647 481 647 516 647 c 2,7,-1
 659 650 l 1,8,-1
 640 560 l 1,9,10
 609 550 609 550 600 542 c 128,-1,11
 591 534 591 534 589 516 c 2,12,-1
 554 234 l 1,13,14
 537 109 537 109 468.5 48.5 c 128,-1,15
 400 -12 400 -12 279.5 -12 c 128,-1,16
 159 -12 159 -12 103 30 c 128,-1,17
 47 72 47 72 47 159 c 0,18,19
 47 175 47 175 68.5 348.5 c 128,-1,20
 90 522 90 522 90 533 c 128,-1,21
 90 544 90 544 87 551.5 c 128,-1,22
 84 559 84 559 68 559 c 1,23,-1
 40 557 l 1,24,-1
 38 561 l 1,25,-1
 59 650 l 1,26,27
 155 647 155 647 233 647 c 1,28,-1
 365 651 l 1,29,-1
 344 558 l 1,30,31
 318 555 318 555 306.5 544 c 128,-1,32
 295 533 295 533 292 509 c 2,33,-1
 251 220 l 2,34,35
 249 201 249 201 249 187 c 0,36,37
 249 115 249 115 308 115 c 0,38,39
 343 115 343 115 360 135 c 128,-1,40
 377 155 377 155 384 203 c 1,41,42
 422 522 422 522 422 531 c 0,0,1
473 695 m 0,43,44
 402 695 402 695 402 762 c 0,45,46
 402 807 402 807 428.5 834.5 c 128,-1,47
 455 862 455 862 494 862 c 0,48,49
 569 862 569 862 569 794 c 0,50,51
 569 750 569 750 542.5 722.5 c 128,-1,52
 516 695 516 695 473 695 c 0,43,44
285 695 m 0,53,54
 215 695 215 695 215 762 c 0,55,56
 215 807 215 807 241.5 834.5 c 128,-1,57
 268 862 268 862 306 862 c 0,58,59
 381 862 381 862 381 794 c 0,60,61
 381 750 381 750 354.5 722.5 c 128,-1,62
 328 695 328 695 285 695 c 0,53,54
EndSplineSet
EndChar

StartChar: Yacute
Encoding: 221 221 158
Width: 650
GlyphClass: 2
Flags: W
LayerCount: 2
Fore
SplineSet
332 533 m 0,0,1
 332 500 332 500 365 387 c 1,2,-1
 379 387 l 1,3,-1
 429 501 l 1,4,5
 447 534 447 534 447 547.5 c 128,-1,6
 447 561 447 561 413 561 c 1,7,-1
 411 567 l 1,8,-1
 429 646 l 1,9,-1
 584 646 l 1,10,-1
 695 650 l 1,11,-1
 698 642 l 1,12,-1
 680 555 l 1,13,14
 607 514 607 514 558 429 c 1,15,-1
 448 247 l 1,16,17
 429 212 429 212 422 154 c 0,18,19
 420 142 420 142 420 128 c 128,-1,20
 420 114 420 114 427.5 102.5 c 128,-1,21
 435 91 435 91 463 91 c 1,22,-1
 513 94 l 1,23,-1
 517 88 l 1,24,-1
 497 -6 l 1,25,26
 350 0 350 0 293 0 c 1,27,-1
 92 -9 l 1,28,-1
 111 83 l 1,29,30
 174 88 174 88 195.5 103 c 128,-1,31
 217 118 217 118 222 162 c 0,32,33
 225 186 225 186 225 193 c 0,34,35
 225 226 225 226 208 268 c 2,36,-1
 128 467 l 1,37,38
 108 520 108 520 44 551 c 1,39,-1
 40 557 l 1,40,-1
 61 648 l 1,41,42
 177 646 177 646 209 646 c 1,43,-1
 386 653 l 1,44,-1
 392 642 l 1,45,-1
 373 560 l 1,46,47
 332 560 332 560 332 533 c 0,0,1
554 762 m 1,48,-1
 547 746 l 1,49,50
 417 722 417 722 293 691 c 1,51,-1
 274 704 l 1,52,-1
 253 775 l 1,53,54
 356 813 356 813 502 875 c 1,55,-1
 518 870 l 1,56,-1
 554 762 l 1,48,-1
EndSplineSet
EndChar

StartChar: Thorn
Encoding: 222 222 159
Width: 590
GlyphClass: 2
Flags: W
LayerCount: 2
Fore
SplineSet
390 522 m 2,0,1
 605 522 605 522 605 360 c 0,2,3
 605 261 605 261 530 200 c 128,-1,4
 455 139 455 139 337 139 c 2,5,-1
 268 139 l 1,6,-1
 265 116 l 2,7,8
 263 98 263 98 268.5 92.5 c 128,-1,9
 274 87 274 87 292 87 c 1,10,-1
 333 90 l 1,11,-1
 340 80 l 1,12,-1
 321 -4 l 1,13,14
 191 0 191 0 147 0 c 1,15,-1
 -17 -5 l 1,16,-1
 1 80 l 1,17,18
 40 88 40 88 54.5 104 c 128,-1,19
 69 120 69 120 73 162 c 1,20,21
 118 521 118 521 118 532 c 128,-1,22
 118 543 118 543 113 551 c 128,-1,23
 108 559 108 559 88 559 c 2,24,-1
 64 558 l 1,25,-1
 56 572 l 1,26,-1
 73 647 l 1,27,-1
 232 647 l 1,28,-1
 402 652 l 1,29,-1
 384 562 l 1,30,31
 347 554 347 554 338 548 c 1,32,33
 328 543 328 543 324 522 c 1,34,-1
 390 522 l 2,0,1
398 344 m 0,35,36
 398 407 398 407 323 407 c 0,37,38
 304 407 304 407 301 385 c 0,39,40
 291 313 291 313 284 256 c 1,41,42
 326 246 326 246 342 246 c 1,43,44
 398 262 398 262 398 344 c 0,35,36
EndSplineSet
EndChar

StartChar: germandbls
Encoding: 223 223 160
Width: 676
GlyphClass: 2
Flags: W
LayerCount: 2
Fore
SplineSet
206.5 669.5 m 128,-1,1
 297 742 297 742 392.5 742 c 128,-1,2
 488 742 488 742 543.5 703.5 c 128,-1,3
 599 665 599 665 599 598 c 0,4,5
 599 563 599 563 582.5 531.5 c 128,-1,6
 566 500 566 500 546 482 c 0,7,8
 493 432 493 432 493 395 c 0,9,10
 493 376 493 376 511 360.5 c 128,-1,11
 529 345 529 345 555.5 331 c 128,-1,12
 582 317 582 317 608 300 c 128,-1,13
 634 283 634 283 652 253 c 128,-1,14
 670 223 670 223 670 183 c 0,15,16
 670 99 670 99 600.5 43.5 c 128,-1,17
 531 -12 531 -12 428 -12 c 0,18,19
 376 -12 376 -12 335.5 6.5 c 128,-1,20
 295 25 295 25 286 53 c 1,21,22
 292 83 292 83 312 125 c 128,-1,23
 332 167 332 167 351 190 c 1,24,-1
 378 188 l 1,25,26
 377 153 377 153 394.5 129.5 c 128,-1,27
 412 106 412 106 435 106 c 128,-1,28
 458 106 458 106 469.5 117.5 c 128,-1,29
 481 129 481 129 481 149.5 c 128,-1,30
 481 170 481 170 454.5 188.5 c 128,-1,31
 428 207 428 207 396.5 221 c 128,-1,32
 365 235 365 235 338.5 266.5 c 128,-1,33
 312 298 312 298 312 337.5 c 128,-1,34
 312 377 312 377 328.5 408.5 c 128,-1,35
 345 440 345 440 366 459 c 0,36,37
 419 509 419 509 419 555 c 0,38,39
 419 625 419 625 363 625 c 0,40,41
 290 625 290 625 278 541 c 1,42,-1
 218 -6 l 2,43,44
 209 -90 209 -90 131 -166 c 128,-1,45
 53 -242 53 -242 -24 -242 c 0,46,47
 -72 -242 -72 -242 -110 -224 c 128,-1,48
 -148 -206 -148 -206 -158 -180 c 1,49,50
 -149 -151 -149 -151 -127.5 -110 c 128,-1,51
 -106 -69 -106 -69 -88 -48 c 1,52,-1
 -68 -48 l 1,53,54
 -64 -92 -64 -92 -48 -109.5 c 128,-1,55
 -32 -127 -32 -127 1 -127 c 128,-1,56
 34 -127 34 -127 51.5 -106 c 128,-1,57
 69 -85 69 -85 69 -46 c 2,58,-1
 69 8 l 1,59,-1
 94 369 l 1,60,-1
 83 379 l 1,61,-1
 9 379 l 1,62,-1
 6 384 l 1,63,-1
 14 450 l 1,64,-1
 102 463 l 1,65,-1
 107 511 l 2,66,0
 116 597 116 597 206.5 669.5 c 128,-1,1
EndSplineSet
EndChar

StartChar: agrave
Encoding: 224 224 161
Width: 528
GlyphClass: 2
Flags: W
LayerCount: 2
Fore
SplineSet
329 -12 m 0,0,1
 278 -12 278 -12 278 36 c 0,2,3
 278 54 278 54 303 158 c 1,4,-1
 293 158 l 1,5,6
 219 28 219 28 160 -12 c 1,7,8
 89 -12 89 -12 49 29.5 c 128,-1,9
 9 71 9 71 9 145 c 0,10,11
 9 264 9 264 90 368 c 128,-1,12
 171 472 171 472 263 472 c 1,13,-1
 335 452 l 1,14,-1
 340 472 l 1,15,-1
 359 484 l 1,16,-1
 493 472 l 1,17,-1
 501 449 l 1,18,19
 463 285 463 285 442 157 c 1,20,-1
 446 154 l 1,21,22
 454 154 454 154 498 195 c 1,23,-1
 521 191 l 1,24,-1
 541 143 l 1,25,26
 458 51 458 51 415 19.5 c 128,-1,27
 372 -12 372 -12 329 -12 c 0,0,1
206 143 m 0,28,29
 222 143 222 143 254.5 206 c 128,-1,30
 287 269 287 269 307 341 c 1,31,32
 266 367 266 367 233 367 c 0,33,34
 219 367 219 367 205.5 315.5 c 128,-1,35
 192 264 192 264 192 203.5 c 128,-1,36
 192 143 192 143 206 143 c 0,28,29
164 644 m 1,37,-1
 162 661 l 1,38,-1
 234 762 l 1,39,-1
 251 762 l 1,40,41
 344 676 344 676 438 595 c 1,42,-1
 397 534 l 1,43,-1
 375 527 l 1,44,45
 261 594 261 594 164 644 c 1,37,-1
EndSplineSet
EndChar

StartChar: aacute
Encoding: 225 225 162
Width: 528
GlyphClass: 2
Flags: W
LayerCount: 2
Fore
SplineSet
329 -12 m 0,0,1
 278 -12 278 -12 278 36 c 0,2,3
 278 54 278 54 303 158 c 1,4,-1
 293 158 l 1,5,6
 219 28 219 28 160 -12 c 1,7,8
 89 -12 89 -12 49 29.5 c 128,-1,9
 9 71 9 71 9 145 c 0,10,11
 9 264 9 264 90 368 c 128,-1,12
 171 472 171 472 263 472 c 1,13,-1
 335 452 l 1,14,-1
 340 472 l 1,15,-1
 359 484 l 1,16,-1
 493 472 l 1,17,-1
 501 449 l 1,18,19
 463 285 463 285 442 157 c 1,20,-1
 446 154 l 1,21,22
 454 154 454 154 498 195 c 1,23,-1
 521 191 l 1,24,-1
 541 143 l 1,25,26
 458 51 458 51 415 19.5 c 128,-1,27
 372 -12 372 -12 329 -12 c 0,0,1
206 143 m 0,28,29
 222 143 222 143 254.5 206 c 128,-1,30
 287 269 287 269 307 341 c 1,31,32
 266 367 266 367 233 367 c 0,33,34
 219 367 219 367 205.5 315.5 c 128,-1,35
 192 264 192 264 192 203.5 c 128,-1,36
 192 143 192 143 206 143 c 0,28,29
465 659 m 1,37,-1
 463 642 l 1,38,39
 355 586 355 586 252 525 c 1,40,-1
 230 532 l 1,41,-1
 189 593 l 1,42,-1
 376 760 l 1,43,-1
 393 760 l 1,44,-1
 465 659 l 1,37,-1
EndSplineSet
EndChar

StartChar: acircumflex
Encoding: 226 226 163
Width: 528
GlyphClass: 2
Flags: W
LayerCount: 2
Fore
SplineSet
329 -12 m 0,0,1
 278 -12 278 -12 278 36 c 0,2,3
 278 54 278 54 303 158 c 1,4,-1
 293 158 l 1,5,6
 219 28 219 28 160 -12 c 1,7,8
 89 -12 89 -12 49 29.5 c 128,-1,9
 9 71 9 71 9 145 c 0,10,11
 9 264 9 264 90 368 c 128,-1,12
 171 472 171 472 263 472 c 1,13,-1
 335 452 l 1,14,-1
 340 472 l 1,15,-1
 359 484 l 1,16,-1
 493 472 l 1,17,-1
 501 449 l 1,18,19
 463 285 463 285 442 157 c 1,20,-1
 446 154 l 1,21,22
 454 154 454 154 498 195 c 1,23,-1
 521 191 l 1,24,-1
 541 143 l 1,25,26
 458 51 458 51 415 19.5 c 128,-1,27
 372 -12 372 -12 329 -12 c 0,0,1
206 143 m 0,28,29
 222 143 222 143 254.5 206 c 128,-1,30
 287 269 287 269 307 341 c 1,31,32
 266 367 266 367 233 367 c 0,33,34
 219 367 219 367 205.5 315.5 c 128,-1,35
 192 264 192 264 192 203.5 c 128,-1,36
 192 143 192 143 206 143 c 0,28,29
181 543 m 1,37,-1
 143 605 l 1,38,39
 219 667 219 667 325 761 c 1,40,-1
 352 761 l 1,41,42
 428 674 428 674 496 605 c 1,43,-1
 443 543 l 1,44,-1
 419 536 l 1,45,46
 392 557 392 557 319 605 c 1,47,48
 247 565 247 565 204 536 c 1,49,-1
 181 543 l 1,37,-1
EndSplineSet
EndChar

StartChar: atilde
Encoding: 227 227 164
Width: 528
GlyphClass: 2
Flags: W
LayerCount: 2
Fore
SplineSet
329 -12 m 0,0,1
 278 -12 278 -12 278 36 c 0,2,3
 278 54 278 54 303 158 c 1,4,-1
 293 158 l 1,5,6
 219 28 219 28 160 -12 c 1,7,8
 89 -12 89 -12 49 29.5 c 128,-1,9
 9 71 9 71 9 145 c 0,10,11
 9 264 9 264 90 368 c 128,-1,12
 171 472 171 472 263 472 c 1,13,-1
 335 452 l 1,14,-1
 340 472 l 1,15,-1
 359 484 l 1,16,-1
 493 472 l 1,17,-1
 501 449 l 1,18,19
 463 285 463 285 442 157 c 1,20,-1
 446 154 l 1,21,22
 454 154 454 154 498 195 c 1,23,-1
 521 191 l 1,24,-1
 541 143 l 1,25,26
 458 51 458 51 415 19.5 c 128,-1,27
 372 -12 372 -12 329 -12 c 0,0,1
206 143 m 0,28,29
 222 143 222 143 254.5 206 c 128,-1,30
 287 269 287 269 307 341 c 1,31,32
 266 367 266 367 233 367 c 0,33,34
 219 367 219 367 205.5 315.5 c 128,-1,35
 192 264 192 264 192 203.5 c 128,-1,36
 192 143 192 143 206 143 c 0,28,29
294 699 m 128,-1,38
 351 682 351 682 363 682 c 0,39,40
 385 682 385 682 424 726 c 1,41,-1
 437 740 l 1,42,-1
 453 740 l 1,43,-1
 506 686 l 1,44,-1
 504 670 l 1,45,-1
 411 555 l 1,46,-1
 394 551 l 1,47,48
 376 551 376 551 319 568 c 128,-1,49
 262 585 262 585 249.5 585 c 128,-1,50
 237 585 237 585 219 570.5 c 128,-1,51
 201 556 201 556 176 527 c 1,52,-1
 160 527 l 1,53,-1
 107 581 l 1,54,-1
 109 597 l 1,55,-1
 202 712 l 1,56,-1
 219 716 l 1,57,37
 237 716 237 716 294 699 c 128,-1,38
EndSplineSet
EndChar

StartChar: adieresis
Encoding: 228 228 165
Width: 528
GlyphClass: 2
Flags: W
LayerCount: 2
Fore
SplineSet
329 -12 m 0,0,1
 278 -12 278 -12 278 36 c 0,2,3
 278 54 278 54 303 158 c 1,4,-1
 293 158 l 1,5,6
 219 28 219 28 160 -12 c 1,7,8
 89 -12 89 -12 49 29.5 c 128,-1,9
 9 71 9 71 9 145 c 0,10,11
 9 264 9 264 90 368 c 128,-1,12
 171 472 171 472 263 472 c 1,13,-1
 335 452 l 1,14,-1
 340 472 l 1,15,-1
 359 484 l 1,16,-1
 493 472 l 1,17,-1
 501 449 l 1,18,19
 463 285 463 285 442 157 c 1,20,-1
 446 154 l 1,21,22
 454 154 454 154 498 195 c 1,23,-1
 521 191 l 1,24,-1
 541 143 l 1,25,26
 458 51 458 51 415 19.5 c 128,-1,27
 372 -12 372 -12 329 -12 c 0,0,1
206 143 m 0,28,29
 222 143 222 143 254.5 206 c 128,-1,30
 287 269 287 269 307 341 c 1,31,32
 266 367 266 367 233 367 c 0,33,34
 219 367 219 367 205.5 315.5 c 128,-1,35
 192 264 192 264 192 203.5 c 128,-1,36
 192 143 192 143 206 143 c 0,28,29
413 561 m 0,37,38
 342 561 342 561 342 628 c 0,39,40
 342 673 342 673 368.5 700.5 c 128,-1,41
 395 728 395 728 434 728 c 0,42,43
 509 728 509 728 509 660 c 0,44,45
 509 616 509 616 482.5 588.5 c 128,-1,46
 456 561 456 561 413 561 c 0,37,38
224 561 m 0,47,48
 154 561 154 561 154 628 c 0,49,50
 154 673 154 673 180.5 700.5 c 128,-1,51
 207 728 207 728 246 728 c 0,52,53
 321 728 321 728 321 660 c 0,54,55
 321 616 321 616 294 588.5 c 128,-1,56
 267 561 267 561 224 561 c 0,47,48
EndSplineSet
EndChar

StartChar: aring
Encoding: 229 229 166
Width: 528
GlyphClass: 2
Flags: W
LayerCount: 2
Fore
SplineSet
329 -12 m 0,0,1
 278 -12 278 -12 278 36 c 0,2,3
 278 54 278 54 303 158 c 1,4,-1
 293 158 l 1,5,6
 219 28 219 28 160 -12 c 1,7,8
 89 -12 89 -12 49 29.5 c 128,-1,9
 9 71 9 71 9 145 c 0,10,11
 9 264 9 264 90 368 c 128,-1,12
 171 472 171 472 263 472 c 1,13,-1
 335 452 l 1,14,-1
 340 472 l 1,15,-1
 359 484 l 1,16,-1
 493 472 l 1,17,-1
 501 449 l 1,18,19
 463 285 463 285 442 157 c 1,20,-1
 446 154 l 1,21,22
 454 154 454 154 498 195 c 1,23,-1
 521 191 l 1,24,-1
 541 143 l 1,25,26
 458 51 458 51 415 19.5 c 128,-1,27
 372 -12 372 -12 329 -12 c 0,0,1
206 143 m 0,28,29
 222 143 222 143 254.5 206 c 128,-1,30
 287 269 287 269 307 341 c 1,31,32
 266 367 266 367 233 367 c 0,33,34
 219 367 219 367 205.5 315.5 c 128,-1,35
 192 264 192 264 192 203.5 c 128,-1,36
 192 143 192 143 206 143 c 0,28,29
303 612 m 0,37,38
 317 612 317 612 329 620.5 c 128,-1,39
 341 629 341 629 341 650 c 0,40,41
 341 680 341 680 308 680 c 0,42,43
 270 680 270 680 270 643 c 0,44,45
 270 612 270 612 303 612 c 0,37,38
377 579.5 m 128,-1,47
 343 542 343 542 294 542 c 128,-1,48
 245 542 245 542 222.5 566 c 128,-1,49
 200 590 200 590 200 636 c 128,-1,50
 200 682 200 682 234.5 717 c 128,-1,51
 269 752 269 752 318.5 752 c 128,-1,52
 368 752 368 752 389.5 728 c 128,-1,53
 411 704 411 704 411 660.5 c 128,-1,46
 411 617 411 617 377 579.5 c 128,-1,47
EndSplineSet
EndChar

StartChar: ae
Encoding: 230 230 167
Width: 686
GlyphClass: 2
Flags: W
LayerCount: 2
Fore
SplineSet
691 371 m 0,0,1
 691 302 691 302 635 259 c 128,-1,2
 579 216 579 216 442 175 c 1,3,4
 450 126 450 126 498.5 126 c 128,-1,5
 547 126 547 126 588 197 c 1,6,-1
 610 194 l 1,7,-1
 662 136 l 1,8,9
 637 74 637 74 571 31 c 128,-1,10
 505 -12 505 -12 438 -12 c 128,-1,11
 371 -12 371 -12 328.5 25 c 128,-1,12
 286 62 286 62 275 127 c 1,13,14
 212 23 212 23 160 -12 c 1,15,16
 89 -12 89 -12 49 29.5 c 128,-1,17
 9 71 9 71 9 145 c 0,18,19
 9 264 9 264 90 368 c 128,-1,20
 171 472 171 472 263 472 c 1,21,-1
 415 443 l 1,22,23
 481 483 481 483 549 483 c 128,-1,24
 617 483 617 483 654 453 c 128,-1,25
 691 423 691 423 691 371 c 0,0,1
206 143 m 0,26,27
 223 143 223 143 255 209 c 128,-1,28
 287 275 287 275 307 351 c 1,29,30
 264 367 264 367 233 367 c 0,31,32
 219 367 219 367 205.5 315.5 c 128,-1,33
 192 264 192 264 192 203.5 c 128,-1,34
 192 143 192 143 206 143 c 0,26,27
516 363 m 0,35,36
 460 363 460 363 445 257 c 1,37,38
 541 294 541 294 541 340 c 0,39,40
 541 363 541 363 516 363 c 0,35,36
EndSplineSet
EndChar

StartChar: ccedilla
Encoding: 231 231 168
Width: 393
GlyphClass: 2
Flags: W
LayerCount: 2
Fore
SplineSet
136 -126 m 0,0,1
 136 -174 136 -174 176 -174 c 0,2,3
 207 -174 207 -174 207 -150.5 c 128,-1,4
 207 -127 207 -127 130 -87 c 1,5,-1
 157 -11 l 1,6,7
 90 -5 90 -5 51.5 42.5 c 128,-1,8
 13 90 13 90 13 167 c 0,9,10
 13 297 13 297 95.5 390 c 128,-1,11
 178 483 178 483 294 483 c 0,12,13
 360 483 360 483 403 459 c 1,14,-1
 407 441 l 1,15,-1
 356 312 l 1,16,-1
 313 311 l 1,17,18
 288 363 288 363 256.5 363 c 128,-1,19
 225 363 225 363 206.5 318.5 c 128,-1,20
 188 274 188 274 188 201 c 128,-1,21
 188 128 188 128 236 128 c 0,22,23
 277 128 277 128 311 202 c 1,24,-1
 332 199 l 1,25,-1
 384 141 l 1,26,27
 365 90 365 90 320.5 50 c 128,-1,28
 276 10 276 10 224 -4 c 1,29,-1
 214 -37 l 1,30,31
 251 -56 251 -56 280.5 -82.5 c 128,-1,32
 310 -109 310 -109 310 -138 c 0,33,34
 310 -181 310 -181 262.5 -212 c 128,-1,35
 215 -243 215 -243 149 -243 c 0,36,37
 119 -243 119 -243 93 -229 c 128,-1,38
 67 -215 67 -215 67 -193 c 128,-1,39
 67 -171 67 -171 128 -118 c 1,40,-1
 136 -118 l 1,41,42
 136 -122 136 -122 136 -126 c 0,0,1
EndSplineSet
EndChar

StartChar: egrave
Encoding: 232 232 169
Width: 429
GlyphClass: 2
Flags: W
LayerCount: 2
Fore
SplineSet
434 371 m 0,0,1
 434 302 434 302 378 259 c 128,-1,2
 322 216 322 216 185 175 c 1,3,4
 193 126 193 126 241.5 126 c 128,-1,5
 290 126 290 126 331 197 c 1,6,-1
 353 194 l 1,7,-1
 405 136 l 1,8,9
 380 74 380 74 314 31 c 128,-1,10
 248 -12 248 -12 176 -12 c 128,-1,11
 104 -12 104 -12 59 38.5 c 128,-1,12
 14 89 14 89 14 173 c 0,13,14
 14 300 14 300 97 391.5 c 128,-1,15
 180 483 180 483 296 483 c 0,16,17
 360 483 360 483 397 453 c 128,-1,18
 434 423 434 423 434 371 c 0,0,1
259 363 m 0,19,20
 203 363 203 363 188 257 c 1,21,22
 284 294 284 294 284 340 c 0,23,24
 284 363 284 363 259 363 c 0,19,20
134 642 m 1,25,-1
 132 659 l 1,26,-1
 204 760 l 1,27,-1
 221 760 l 1,28,29
 314 674 314 674 408 593 c 1,30,-1
 367 532 l 1,31,-1
 345 525 l 1,32,33
 231 592 231 592 134 642 c 1,25,-1
EndSplineSet
EndChar

StartChar: eacute
Encoding: 233 233 170
Width: 429
GlyphClass: 2
Flags: W
LayerCount: 2
Fore
SplineSet
434 371 m 0,0,1
 434 302 434 302 378 259 c 128,-1,2
 322 216 322 216 185 175 c 1,3,4
 193 126 193 126 241.5 126 c 128,-1,5
 290 126 290 126 331 197 c 1,6,-1
 353 194 l 1,7,-1
 405 136 l 1,8,9
 380 74 380 74 314 31 c 128,-1,10
 248 -12 248 -12 176 -12 c 128,-1,11
 104 -12 104 -12 59 38.5 c 128,-1,12
 14 89 14 89 14 173 c 0,13,14
 14 300 14 300 97 391.5 c 128,-1,15
 180 483 180 483 296 483 c 0,16,17
 360 483 360 483 397 453 c 128,-1,18
 434 423 434 423 434 371 c 0,0,1
259 363 m 0,19,20
 203 363 203 363 188 257 c 1,21,22
 284 294 284 294 284 340 c 0,23,24
 284 363 284 363 259 363 c 0,19,20
408 661 m 1,25,-1
 406 644 l 1,26,27
 298 588 298 588 195 527 c 1,28,-1
 173 534 l 1,29,-1
 132 595 l 1,30,-1
 319 762 l 1,31,-1
 336 762 l 1,32,-1
 408 661 l 1,25,-1
EndSplineSet
EndChar

StartChar: ecircumflex
Encoding: 234 234 171
Width: 429
GlyphClass: 2
Flags: W
LayerCount: 2
Fore
SplineSet
434 371 m 0,0,1
 434 302 434 302 378 259 c 128,-1,2
 322 216 322 216 185 175 c 1,3,4
 193 126 193 126 241.5 126 c 128,-1,5
 290 126 290 126 331 197 c 1,6,-1
 353 194 l 1,7,-1
 405 136 l 1,8,9
 380 74 380 74 314 31 c 128,-1,10
 248 -12 248 -12 176 -12 c 128,-1,11
 104 -12 104 -12 59 38.5 c 128,-1,12
 14 89 14 89 14 173 c 0,13,14
 14 300 14 300 97 391.5 c 128,-1,15
 180 483 180 483 296 483 c 0,16,17
 360 483 360 483 397 453 c 128,-1,18
 434 423 434 423 434 371 c 0,0,1
259 363 m 0,19,20
 203 363 203 363 188 257 c 1,21,22
 284 294 284 294 284 340 c 0,23,24
 284 363 284 363 259 363 c 0,19,20
161 541 m 1,25,-1
 123 603 l 1,26,27
 199 665 199 665 305 759 c 1,28,-1
 332 759 l 1,29,30
 408 672 408 672 476 603 c 1,31,-1
 423 541 l 1,32,-1
 399 534 l 1,33,34
 372 555 372 555 299 603 c 1,35,36
 227 563 227 563 184 534 c 1,37,-1
 161 541 l 1,25,-1
EndSplineSet
EndChar

StartChar: edieresis
Encoding: 235 235 172
Width: 429
GlyphClass: 2
Flags: W
LayerCount: 2
Fore
SplineSet
434 371 m 0,0,1
 434 302 434 302 378 259 c 128,-1,2
 322 216 322 216 185 175 c 1,3,4
 193 126 193 126 241.5 126 c 128,-1,5
 290 126 290 126 331 197 c 1,6,-1
 353 194 l 1,7,-1
 405 136 l 1,8,9
 380 74 380 74 314 31 c 128,-1,10
 248 -12 248 -12 176 -12 c 128,-1,11
 104 -12 104 -12 59 38.5 c 128,-1,12
 14 89 14 89 14 173 c 0,13,14
 14 300 14 300 97 391.5 c 128,-1,15
 180 483 180 483 296 483 c 0,16,17
 360 483 360 483 397 453 c 128,-1,18
 434 423 434 423 434 371 c 0,0,1
259 363 m 0,19,20
 203 363 203 363 188 257 c 1,21,22
 284 294 284 294 284 340 c 0,23,24
 284 363 284 363 259 363 c 0,19,20
379 559 m 0,25,26
 308 559 308 559 308 626 c 0,27,28
 308 671 308 671 334.5 698.5 c 128,-1,29
 361 726 361 726 400 726 c 0,30,31
 475 726 475 726 475 658 c 0,32,33
 475 614 475 614 448.5 586.5 c 128,-1,34
 422 559 422 559 379 559 c 0,25,26
190 559 m 0,35,36
 120 559 120 559 120 626 c 0,37,38
 120 671 120 671 146.5 698.5 c 128,-1,39
 173 726 173 726 212 726 c 0,40,41
 287 726 287 726 287 658 c 0,42,43
 287 614 287 614 260 586.5 c 128,-1,44
 233 559 233 559 190 559 c 0,35,36
EndSplineSet
EndChar

StartChar: igrave
Encoding: 236 236 173
Width: 304
GlyphClass: 2
Flags: W
LayerCount: 2
Fore
SplineSet
38 642 m 1,0,-1
 36 659 l 1,1,-1
 108 760 l 1,2,-1
 125 760 l 1,3,4
 218 674 218 674 312 593 c 1,5,-1
 271 532 l 1,6,-1
 249 525 l 1,7,8
 135 592 135 592 38 642 c 1,0,-1
101 -12 m 0,9,10
 35 -12 35 -12 35 55 c 1,11,12
 80 317 80 317 80 348 c 128,-1,13
 80 379 80 379 47 379 c 2,14,-1
 19 379 l 1,15,-1
 31 461 l 1,16,17
 110 461 110 461 254 473 c 1,18,-1
 270 453 l 1,19,20
 233 308 233 308 212 157 c 1,21,-1
 216 154 l 1,22,23
 222 154 222 154 268 195 c 1,24,-1
 291 191 l 1,25,-1
 311 143 l 1,26,27
 233 53 233 53 188 20.5 c 128,-1,28
 143 -12 143 -12 101 -12 c 0,9,10
EndSplineSet
EndChar

StartChar: iacute
Encoding: 237 237 174
Width: 304
GlyphClass: 2
Flags: W
LayerCount: 2
Fore
SplineSet
309 659 m 1,0,-1
 307 642 l 1,1,2
 199 586 199 586 96 525 c 1,3,-1
 74 532 l 1,4,-1
 33 593 l 1,5,-1
 220 760 l 1,6,-1
 237 760 l 1,7,-1
 309 659 l 1,0,-1
101 -12 m 0,8,9
 35 -12 35 -12 35 55 c 1,10,11
 80 317 80 317 80 348 c 128,-1,12
 80 379 80 379 47 379 c 2,13,-1
 19 379 l 1,14,-1
 31 461 l 1,15,16
 110 461 110 461 254 473 c 1,17,-1
 270 453 l 1,18,19
 233 308 233 308 212 157 c 1,20,-1
 216 154 l 1,21,22
 222 154 222 154 268 195 c 1,23,-1
 291 191 l 1,24,-1
 311 143 l 1,25,26
 233 53 233 53 188 20.5 c 128,-1,27
 143 -12 143 -12 101 -12 c 0,8,9
EndSplineSet
EndChar

StartChar: icircumflex
Encoding: 238 238 175
Width: 304
GlyphClass: 2
Flags: W
LayerCount: 2
Fore
SplineSet
101 -12 m 0,0,1
 35 -12 35 -12 35 55 c 1,2,3
 80 317 80 317 80 348 c 128,-1,4
 80 379 80 379 47 379 c 2,5,-1
 19 379 l 1,6,-1
 31 461 l 1,7,8
 110 461 110 461 254 473 c 1,9,-1
 270 453 l 1,10,11
 233 308 233 308 212 157 c 1,12,-1
 216 154 l 1,13,14
 222 154 222 154 268 195 c 1,15,-1
 291 191 l 1,16,-1
 311 143 l 1,17,18
 233 53 233 53 188 20.5 c 128,-1,19
 143 -12 143 -12 101 -12 c 0,0,1
55 541 m 1,20,-1
 17 603 l 1,21,22
 93 665 93 665 199 759 c 1,23,-1
 226 759 l 1,24,25
 302 672 302 672 370 603 c 1,26,-1
 317 541 l 1,27,-1
 293 534 l 1,28,29
 266 555 266 555 193 603 c 1,30,31
 121 563 121 563 78 534 c 1,32,-1
 55 541 l 1,20,-1
EndSplineSet
EndChar

StartChar: idieresis
Encoding: 239 239 176
Width: 304
GlyphClass: 2
Flags: W
LayerCount: 2
Fore
SplineSet
277 559 m 0,0,1
 206 559 206 559 206 626 c 0,2,3
 206 671 206 671 232.5 698.5 c 128,-1,4
 259 726 259 726 298 726 c 0,5,6
 373 726 373 726 373 658 c 0,7,8
 373 614 373 614 346.5 586.5 c 128,-1,9
 320 559 320 559 277 559 c 0,0,1
88 559 m 0,10,11
 18 559 18 559 18 626 c 0,12,13
 18 671 18 671 44.5 698.5 c 128,-1,14
 71 726 71 726 110 726 c 0,15,16
 185 726 185 726 185 658 c 0,17,18
 185 614 185 614 158 586.5 c 128,-1,19
 131 559 131 559 88 559 c 0,10,11
101 -12 m 0,20,21
 35 -12 35 -12 35 55 c 1,22,23
 80 317 80 317 80 348 c 128,-1,24
 80 379 80 379 47 379 c 2,25,-1
 19 379 l 1,26,-1
 31 461 l 1,27,28
 110 461 110 461 254 473 c 1,29,-1
 270 453 l 1,30,31
 233 308 233 308 212 157 c 1,32,-1
 216 154 l 1,33,34
 222 154 222 154 268 195 c 1,35,-1
 291 191 l 1,36,-1
 311 143 l 1,37,38
 233 53 233 53 188 20.5 c 128,-1,39
 143 -12 143 -12 101 -12 c 0,20,21
EndSplineSet
EndChar

StartChar: eth
Encoding: 240 240 177
Width: 493
GlyphClass: 2
Flags: W
LayerCount: 2
Fore
SplineSet
487 296 m 0,0,1
 487 155 487 155 411.5 71.5 c 128,-1,2
 336 -12 336 -12 207 -12 c 0,3,4
 110 -12 110 -12 58 38 c 128,-1,5
 6 88 6 88 6 180 c 0,6,7
 6 301 6 301 68 387 c 128,-1,8
 130 473 130 473 216 473 c 1,9,10
 235 460 235 460 250 451 c 1,11,-1
 255 460 l 1,12,13
 239 493 239 493 210 527 c 1,14,-1
 81 463 l 1,15,-1
 72 465 l 1,16,-1
 52 559 l 1,17,-1
 131 600 l 1,18,19
 117 612 117 612 68 653 c 1,20,-1
 129 734 l 1,21,-1
 146 742 l 1,22,23
 213 711 213 711 273 668 c 1,24,-1
 422 742 l 1,25,-1
 430 738 l 1,26,-1
 450 645 l 1,27,-1
 358 599 l 1,28,29
 487 467 487 467 487 296 c 0,0,1
272.5 158.5 m 128,-1,31
 290 222 290 222 290 274.5 c 128,-1,32
 290 327 290 327 289 339 c 1,33,34
 276 349 276 349 259 349 c 0,35,36
 230 349 230 349 212.5 299 c 128,-1,37
 195 249 195 249 195 188.5 c 128,-1,38
 195 128 195 128 204.5 111.5 c 128,-1,39
 214 95 214 95 234.5 95 c 128,-1,30
 255 95 255 95 272.5 158.5 c 128,-1,31
EndSplineSet
EndChar

StartChar: ntilde
Encoding: 241 241 178
Width: 538
GlyphClass: 2
Flags: W
LayerCount: 2
Fore
SplineSet
29 16 m 1,0,1
 82 338 82 338 82 350 c 0,2,3
 82 379 82 379 49 379 c 2,4,-1
 21 379 l 1,5,-1
 33 461 l 1,6,7
 112 461 112 461 256 473 c 1,8,-1
 270 452 l 1,9,10
 248 375 248 375 237 302 c 1,11,-1
 244 303 l 1,12,13
 307 448 307 448 362 485 c 1,14,15
 432 485 432 485 471.5 456.5 c 128,-1,16
 511 428 511 428 511 378 c 0,17,18
 511 354 511 354 482.5 263.5 c 128,-1,19
 454 173 454 173 452 160 c 1,20,-1
 455 157 l 1,21,22
 462 157 462 157 507 198 c 1,23,-1
 531 194 l 1,24,-1
 550 146 l 1,25,26
 471 57 471 57 426.5 24 c 128,-1,27
 382 -9 382 -9 344 -9 c 128,-1,28
 306 -9 306 -9 290 5 c 128,-1,29
 274 19 274 19 274 45.5 c 128,-1,30
 274 72 274 72 304.5 172 c 128,-1,31
 335 272 335 272 335 295.5 c 128,-1,32
 335 319 335 319 317 319 c 0,33,34
 301 319 301 319 269 258.5 c 128,-1,35
 237 198 237 198 204 104 c 1,36,-1
 197 45 l 2,37,38
 194 24 194 24 150 8.5 c 128,-1,39
 106 -7 106 -7 49 -7 c 1,40,-1
 29 16 l 1,0,1
317 697 m 128,-1,42
 374 680 374 680 386 680 c 0,43,44
 408 680 408 680 447 724 c 1,45,-1
 460 738 l 1,46,-1
 476 738 l 1,47,-1
 529 684 l 1,48,-1
 527 668 l 1,49,-1
 434 553 l 1,50,-1
 417 549 l 1,51,52
 399 549 399 549 342 566 c 128,-1,53
 285 583 285 583 272.5 583 c 128,-1,54
 260 583 260 583 242 568.5 c 128,-1,55
 224 554 224 554 199 525 c 1,56,-1
 183 525 l 1,57,-1
 130 579 l 1,58,-1
 132 595 l 1,59,-1
 225 710 l 1,60,-1
 242 714 l 1,61,41
 260 714 260 714 317 697 c 128,-1,42
EndSplineSet
EndChar

StartChar: ograve
Encoding: 242 242 179
Width: 486
GlyphClass: 2
Flags: W
LayerCount: 2
Fore
SplineSet
236 95 m 0,0,1
 263 95 263 95 275 135.5 c 128,-1,2
 287 176 287 176 287 248.5 c 128,-1,3
 287 321 287 321 278.5 342.5 c 128,-1,4
 270 364 270 364 249 364 c 0,5,6
 225 364 225 364 211 318.5 c 128,-1,7
 197 273 197 273 197 195 c 0,8,9
 197 95 197 95 236 95 c 0,0,1
198 -12 m 0,10,11
 112 -12 112 -12 65.5 39 c 128,-1,12
 19 90 19 90 19 184 c 0,13,14
 19 320 19 320 93 402 c 128,-1,15
 167 484 167 484 289 484 c 0,16,17
 376 484 376 484 422 435.5 c 128,-1,18
 468 387 468 387 468 295 c 0,19,20
 468 156 468 156 394 72 c 128,-1,21
 320 -12 320 -12 198 -12 c 0,10,11
112 642 m 1,22,-1
 110 659 l 1,23,-1
 182 760 l 1,24,-1
 199 760 l 1,25,26
 292 674 292 674 386 593 c 1,27,-1
 345 532 l 1,28,-1
 323 525 l 1,29,30
 209 592 209 592 112 642 c 1,22,-1
EndSplineSet
EndChar

StartChar: oacute
Encoding: 243 243 180
Width: 486
GlyphClass: 2
Flags: W
LayerCount: 2
Fore
SplineSet
236 95 m 0,0,1
 263 95 263 95 275 135.5 c 128,-1,2
 287 176 287 176 287 248.5 c 128,-1,3
 287 321 287 321 278.5 342.5 c 128,-1,4
 270 364 270 364 249 364 c 0,5,6
 225 364 225 364 211 318.5 c 128,-1,7
 197 273 197 273 197 195 c 0,8,9
 197 95 197 95 236 95 c 0,0,1
198 -12 m 0,10,11
 112 -12 112 -12 65.5 39 c 128,-1,12
 19 90 19 90 19 184 c 0,13,14
 19 320 19 320 93 402 c 128,-1,15
 167 484 167 484 289 484 c 0,16,17
 376 484 376 484 422 435.5 c 128,-1,18
 468 387 468 387 468 295 c 0,19,20
 468 156 468 156 394 72 c 128,-1,21
 320 -12 320 -12 198 -12 c 0,10,11
433 659 m 1,22,-1
 431 642 l 1,23,24
 323 586 323 586 220 525 c 1,25,-1
 198 532 l 1,26,-1
 157 593 l 1,27,-1
 344 760 l 1,28,-1
 361 760 l 1,29,-1
 433 659 l 1,22,-1
EndSplineSet
EndChar

StartChar: ocircumflex
Encoding: 244 244 181
Width: 486
GlyphClass: 2
Flags: W
LayerCount: 2
Fore
SplineSet
236 95 m 0,0,1
 263 95 263 95 275 135.5 c 128,-1,2
 287 176 287 176 287 248.5 c 128,-1,3
 287 321 287 321 278.5 342.5 c 128,-1,4
 270 364 270 364 249 364 c 0,5,6
 225 364 225 364 211 318.5 c 128,-1,7
 197 273 197 273 197 195 c 0,8,9
 197 95 197 95 236 95 c 0,0,1
198 -12 m 0,10,11
 112 -12 112 -12 65.5 39 c 128,-1,12
 19 90 19 90 19 184 c 0,13,14
 19 320 19 320 93 402 c 128,-1,15
 167 484 167 484 289 484 c 0,16,17
 376 484 376 484 422 435.5 c 128,-1,18
 468 387 468 387 468 295 c 0,19,20
 468 156 468 156 394 72 c 128,-1,21
 320 -12 320 -12 198 -12 c 0,10,11
149 541 m 1,22,-1
 111 603 l 1,23,24
 187 665 187 665 293 759 c 1,25,-1
 320 759 l 1,26,27
 396 672 396 672 464 603 c 1,28,-1
 411 541 l 1,29,-1
 387 534 l 1,30,31
 360 555 360 555 287 603 c 1,32,33
 215 563 215 563 172 534 c 1,34,-1
 149 541 l 1,22,-1
EndSplineSet
EndChar

StartChar: otilde
Encoding: 245 245 182
Width: 486
GlyphClass: 2
Flags: W
LayerCount: 2
Fore
SplineSet
236 95 m 0,0,1
 263 95 263 95 275 135.5 c 128,-1,2
 287 176 287 176 287 248.5 c 128,-1,3
 287 321 287 321 278.5 342.5 c 128,-1,4
 270 364 270 364 249 364 c 0,5,6
 225 364 225 364 211 318.5 c 128,-1,7
 197 273 197 273 197 195 c 0,8,9
 197 95 197 95 236 95 c 0,0,1
198 -12 m 0,10,11
 112 -12 112 -12 65.5 39 c 128,-1,12
 19 90 19 90 19 184 c 0,13,14
 19 320 19 320 93 402 c 128,-1,15
 167 484 167 484 289 484 c 0,16,17
 376 484 376 484 422 435.5 c 128,-1,18
 468 387 468 387 468 295 c 0,19,20
 468 156 468 156 394 72 c 128,-1,21
 320 -12 320 -12 198 -12 c 0,10,11
282 697 m 128,-1,23
 339 680 339 680 351 680 c 0,24,25
 373 680 373 680 412 724 c 1,26,-1
 425 738 l 1,27,-1
 441 738 l 1,28,-1
 494 684 l 1,29,-1
 492 668 l 1,30,-1
 399 553 l 1,31,-1
 382 549 l 1,32,33
 364 549 364 549 307 566 c 128,-1,34
 250 583 250 583 237.5 583 c 128,-1,35
 225 583 225 583 207 568.5 c 128,-1,36
 189 554 189 554 164 525 c 1,37,-1
 148 525 l 1,38,-1
 95 579 l 1,39,-1
 97 595 l 1,40,-1
 190 710 l 1,41,-1
 207 714 l 1,42,22
 225 714 225 714 282 697 c 128,-1,23
EndSplineSet
EndChar

StartChar: odieresis
Encoding: 246 246 183
Width: 486
GlyphClass: 2
Flags: W
LayerCount: 2
Fore
SplineSet
236 95 m 0,0,1
 263 95 263 95 275 135.5 c 128,-1,2
 287 176 287 176 287 248.5 c 128,-1,3
 287 321 287 321 278.5 342.5 c 128,-1,4
 270 364 270 364 249 364 c 0,5,6
 225 364 225 364 211 318.5 c 128,-1,7
 197 273 197 273 197 195 c 0,8,9
 197 95 197 95 236 95 c 0,0,1
198 -12 m 0,10,11
 112 -12 112 -12 65.5 39 c 128,-1,12
 19 90 19 90 19 184 c 0,13,14
 19 320 19 320 93 402 c 128,-1,15
 167 484 167 484 289 484 c 0,16,17
 376 484 376 484 422 435.5 c 128,-1,18
 468 387 468 387 468 295 c 0,19,20
 468 156 468 156 394 72 c 128,-1,21
 320 -12 320 -12 198 -12 c 0,10,11
371 559 m 0,22,23
 300 559 300 559 300 626 c 0,24,25
 300 671 300 671 326.5 698.5 c 128,-1,26
 353 726 353 726 392 726 c 0,27,28
 467 726 467 726 467 658 c 0,29,30
 467 614 467 614 440.5 586.5 c 128,-1,31
 414 559 414 559 371 559 c 0,22,23
182 559 m 0,32,33
 112 559 112 559 112 626 c 0,34,35
 112 671 112 671 138.5 698.5 c 128,-1,36
 165 726 165 726 204 726 c 0,37,38
 279 726 279 726 279 658 c 0,39,40
 279 614 279 614 252 586.5 c 128,-1,41
 225 559 225 559 182 559 c 0,32,33
EndSplineSet
EndChar

StartChar: divide
Encoding: 247 247 184
Width: 491
GlyphClass: 2
Flags: W
LayerCount: 2
Fore
SplineSet
480 329 m 1,0,-1
 485 314 l 1,1,-1
 455 178 l 1,2,-1
 16 176 l 1,3,-1
 9 189 l 1,4,-1
 43 324 l 1,5,6
 178 323 178 323 264 323 c 1,7,-1
 480 329 l 1,0,-1
277.5 10.5 m 128,-1,9
 251 -17 251 -17 212 -17 c 0,10,11
 137 -17 137 -17 137 52 c 0,12,13
 137 99 137 99 163.5 126.5 c 128,-1,14
 190 154 190 154 229 154 c 0,15,16
 304 154 304 154 304 85 c 0,17,8
 304 38 304 38 277.5 10.5 c 128,-1,9
322 372 m 128,-1,19
 295 344 295 344 256 344 c 0,20,21
 181 344 181 344 181 413 c 0,22,23
 181 460 181 460 207.5 487.5 c 128,-1,24
 234 515 234 515 274 515 c 0,25,26
 349 515 349 515 349 446 c 0,27,18
 349 400 349 400 322 372 c 128,-1,19
EndSplineSet
EndChar

StartChar: oslash
Encoding: 248 248 185
Width: 486
GlyphClass: 2
Flags: W
LayerCount: 2
Fore
SplineSet
19 184 m 0,0,1
 19 320 19 320 93 402 c 128,-1,2
 167 484 167 484 289 484 c 0,3,4
 318 484 318 484 342 478 c 1,5,-1
 425 607 l 1,6,-1
 522 553 l 1,7,-1
 524 540 l 1,8,-1
 440 411 l 1,9,10
 468 364 468 364 468 295 c 0,11,12
 468 156 468 156 394 72 c 128,-1,13
 320 -12 320 -12 198 -12 c 0,14,15
 183 -12 183 -12 157 -8 c 1,16,-1
 70 -138 l 1,17,-1
 -25 -83 l 1,18,-1
 -29 -73 l 1,19,-1
 56 50 l 1,20,21
 19 99 19 99 19 184 c 0,0,1
236 95 m 0,22,23
 263 95 263 95 275 135.5 c 128,-1,24
 287 176 287 176 287 248.5 c 128,-1,25
 287 321 287 321 278.5 342.5 c 128,-1,26
 270 364 270 364 249 364 c 0,27,28
 225 364 225 364 211 318.5 c 128,-1,29
 197 273 197 273 197 195 c 0,30,31
 197 95 197 95 236 95 c 0,22,23
EndSplineSet
EndChar

StartChar: ugrave
Encoding: 249 249 186
Width: 531
GlyphClass: 2
Flags: W
LayerCount: 2
Fore
SplineSet
35 98 m 0,0,1
 35 124 35 124 63.5 223 c 128,-1,2
 92 322 92 322 92 346 c 0,3,4
 92 379 92 379 59 379 c 2,5,-1
 31 379 l 1,6,-1
 43 461 l 1,7,8
 122 461 122 461 266 473 c 1,9,-1
 282 453 l 1,10,11
 209 211 209 211 209 184 c 128,-1,12
 209 157 209 157 225 157 c 0,13,14
 243 157 243 157 275.5 216 c 128,-1,15
 308 275 308 275 342 372 c 1,16,-1
 353 462 l 1,17,-1
 373 474 l 1,18,-1
 482 472 l 1,19,-1
 502 449 l 1,20,21
 465 285 465 285 444 157 c 1,22,-1
 448 154 l 1,23,24
 454 154 454 154 500 195 c 1,25,-1
 523 191 l 1,26,-1
 543 143 l 1,27,28
 460 51 460 51 417 19.5 c 128,-1,29
 374 -12 374 -12 331 -12 c 0,30,31
 280 -12 280 -12 280 36 c 0,32,33
 280 49 280 49 310 174 c 1,34,-1
 301 173 l 1,35,36
 236 27 236 27 184 -9 c 1,37,38
 114 -9 114 -9 74.5 19.5 c 128,-1,39
 35 48 35 48 35 98 c 0,0,1
150 642 m 1,40,-1
 148 659 l 1,41,-1
 220 760 l 1,42,-1
 237 760 l 1,43,44
 330 674 330 674 424 593 c 1,45,-1
 383 532 l 1,46,-1
 361 525 l 1,47,48
 247 592 247 592 150 642 c 1,40,-1
EndSplineSet
EndChar

StartChar: uacute
Encoding: 250 250 187
Width: 531
GlyphClass: 2
Flags: W
LayerCount: 2
Fore
SplineSet
35 98 m 0,0,1
 35 124 35 124 63.5 223 c 128,-1,2
 92 322 92 322 92 346 c 0,3,4
 92 379 92 379 59 379 c 2,5,-1
 31 379 l 1,6,-1
 43 461 l 1,7,8
 122 461 122 461 266 473 c 1,9,-1
 282 453 l 1,10,11
 209 211 209 211 209 184 c 128,-1,12
 209 157 209 157 225 157 c 0,13,14
 243 157 243 157 275.5 216 c 128,-1,15
 308 275 308 275 342 372 c 1,16,-1
 353 462 l 1,17,-1
 373 474 l 1,18,-1
 482 472 l 1,19,-1
 502 449 l 1,20,21
 465 285 465 285 444 157 c 1,22,-1
 448 154 l 1,23,24
 454 154 454 154 500 195 c 1,25,-1
 523 191 l 1,26,-1
 543 143 l 1,27,28
 460 51 460 51 417 19.5 c 128,-1,29
 374 -12 374 -12 331 -12 c 0,30,31
 280 -12 280 -12 280 36 c 0,32,33
 280 49 280 49 310 174 c 1,34,-1
 301 173 l 1,35,36
 236 27 236 27 184 -9 c 1,37,38
 114 -9 114 -9 74.5 19.5 c 128,-1,39
 35 48 35 48 35 98 c 0,0,1
461 659 m 1,40,-1
 459 642 l 1,41,42
 351 586 351 586 248 525 c 1,43,-1
 226 532 l 1,44,-1
 185 593 l 1,45,-1
 372 760 l 1,46,-1
 389 760 l 1,47,-1
 461 659 l 1,40,-1
EndSplineSet
EndChar

StartChar: ucircumflex
Encoding: 251 251 188
Width: 531
GlyphClass: 2
Flags: W
LayerCount: 2
Fore
SplineSet
35 98 m 0,0,1
 35 124 35 124 63.5 223 c 128,-1,2
 92 322 92 322 92 346 c 0,3,4
 92 379 92 379 59 379 c 2,5,-1
 31 379 l 1,6,-1
 43 461 l 1,7,8
 122 461 122 461 266 473 c 1,9,-1
 282 453 l 1,10,11
 209 211 209 211 209 184 c 128,-1,12
 209 157 209 157 225 157 c 0,13,14
 243 157 243 157 275.5 216 c 128,-1,15
 308 275 308 275 342 372 c 1,16,-1
 353 462 l 1,17,-1
 373 474 l 1,18,-1
 482 472 l 1,19,-1
 502 449 l 1,20,21
 465 285 465 285 444 157 c 1,22,-1
 448 154 l 1,23,24
 454 154 454 154 500 195 c 1,25,-1
 523 191 l 1,26,-1
 543 143 l 1,27,28
 460 51 460 51 417 19.5 c 128,-1,29
 374 -12 374 -12 331 -12 c 0,30,31
 280 -12 280 -12 280 36 c 0,32,33
 280 49 280 49 310 174 c 1,34,-1
 301 173 l 1,35,36
 236 27 236 27 184 -9 c 1,37,38
 114 -9 114 -9 74.5 19.5 c 128,-1,39
 35 48 35 48 35 98 c 0,0,1
177 541 m 1,40,-1
 139 603 l 1,41,42
 215 665 215 665 321 759 c 1,43,-1
 348 759 l 1,44,45
 424 672 424 672 492 603 c 1,46,-1
 439 541 l 1,47,-1
 415 534 l 1,48,49
 388 555 388 555 315 603 c 1,50,51
 243 563 243 563 200 534 c 1,52,-1
 177 541 l 1,40,-1
EndSplineSet
EndChar

StartChar: udieresis
Encoding: 252 252 189
Width: 531
GlyphClass: 2
Flags: W
LayerCount: 2
Fore
SplineSet
35 98 m 0,0,1
 35 124 35 124 63.5 223 c 128,-1,2
 92 322 92 322 92 346 c 0,3,4
 92 379 92 379 59 379 c 2,5,-1
 31 379 l 1,6,-1
 43 461 l 1,7,8
 122 461 122 461 266 473 c 1,9,-1
 282 453 l 1,10,11
 209 211 209 211 209 184 c 128,-1,12
 209 157 209 157 225 157 c 0,13,14
 243 157 243 157 275.5 216 c 128,-1,15
 308 275 308 275 342 372 c 1,16,-1
 353 462 l 1,17,-1
 373 474 l 1,18,-1
 482 472 l 1,19,-1
 502 449 l 1,20,21
 465 285 465 285 444 157 c 1,22,-1
 448 154 l 1,23,24
 454 154 454 154 500 195 c 1,25,-1
 523 191 l 1,26,-1
 543 143 l 1,27,28
 460 51 460 51 417 19.5 c 128,-1,29
 374 -12 374 -12 331 -12 c 0,30,31
 280 -12 280 -12 280 36 c 0,32,33
 280 49 280 49 310 174 c 1,34,-1
 301 173 l 1,35,36
 236 27 236 27 184 -9 c 1,37,38
 114 -9 114 -9 74.5 19.5 c 128,-1,39
 35 48 35 48 35 98 c 0,0,1
399 559 m 0,40,41
 328 559 328 559 328 626 c 0,42,43
 328 671 328 671 354.5 698.5 c 128,-1,44
 381 726 381 726 420 726 c 0,45,46
 495 726 495 726 495 658 c 0,47,48
 495 614 495 614 468.5 586.5 c 128,-1,49
 442 559 442 559 399 559 c 0,40,41
210 559 m 0,50,51
 140 559 140 559 140 626 c 0,52,53
 140 671 140 671 166.5 698.5 c 128,-1,54
 193 726 193 726 232 726 c 0,55,56
 307 726 307 726 307 658 c 0,57,58
 307 614 307 614 280 586.5 c 128,-1,59
 253 559 253 559 210 559 c 0,50,51
EndSplineSet
EndChar

StartChar: yacute
Encoding: 253 253 190
Width: 488
GlyphClass: 2
Flags: W
LayerCount: 2
Fore
SplineSet
493 385 m 0,0,1
 493 271 493 271 295 0 c 1,2,3
 195 -133 195 -133 123.5 -187.5 c 128,-1,4
 52 -242 52 -242 -22 -242 c 0,5,6
 -65 -242 -65 -242 -102.5 -222.5 c 128,-1,7
 -140 -203 -140 -203 -148 -177 c 1,8,9
 -142 -146 -142 -146 -121.5 -103 c 128,-1,10
 -101 -60 -101 -60 -81 -36 c 1,11,-1
 -55 -38 l 1,12,13
 -54 -75 -54 -75 -32.5 -99.5 c 128,-1,14
 -11 -124 -11 -124 20 -124 c 0,15,16
 64 -124 64 -124 124 -56 c 1,17,18
 85 257 85 257 63 352 c 0,19,20
 56 382 56 382 32 382 c 2,21,-1
 5 381 l 1,22,-1
 11 460 l 1,23,-1
 219 476 l 1,24,-1
 230 467 l 1,25,26
 237 349 237 349 239 133 c 1,27,-1
 253 133 l 1,28,29
 319 274 319 274 319 340 c 0,30,31
 319 390 319 390 267 409 c 1,32,-1
 278 457 l 1,33,-1
 466 484 l 1,34,35
 493 452 493 452 493 385 c 0,0,1
437 659 m 1,36,-1
 435 642 l 1,37,38
 327 586 327 586 224 525 c 1,39,-1
 202 532 l 1,40,-1
 161 593 l 1,41,-1
 348 760 l 1,42,-1
 365 760 l 1,43,-1
 437 659 l 1,36,-1
EndSplineSet
EndChar

StartChar: thorn
Encoding: 254 254 191
Width: 525
GlyphClass: 2
Flags: W
LayerCount: 2
Fore
SplineSet
233 -145 m 1,0,-1
 234 -151 l 1,1,-1
 218 -230 l 1,2,-1
 -86 -237 l 1,3,-1
 -70 -155 l 1,4,5
 -41 -151 -41 -151 -28.5 -138 c 128,-1,6
 -16 -125 -16 -125 -10 -89 c 0,7,8
 101 593 101 593 101 615 c 0,9,10
 101 648 101 648 68 648 c 2,11,-1
 40 648 l 1,12,-1
 52 730 l 1,13,14
 133 730 133 730 279 742 c 1,15,-1
 295 722 l 1,16,17
 246 483 246 483 214 302 c 1,18,-1
 224 302 l 1,19,20
 297 432 297 432 354 472 c 1,21,22
 430 472 430 472 471.5 428.5 c 128,-1,23
 513 385 513 385 513 307 c 0,24,25
 513 179 513 179 430.5 83.5 c 128,-1,26
 348 -12 348 -12 238 -12 c 0,27,28
 195 -12 195 -12 157 -4 c 1,29,30
 144 -106 144 -106 144 -117 c 128,-1,31
 144 -128 144 -128 151 -136.5 c 128,-1,32
 158 -145 158 -145 187 -145 c 2,33,-1
 233 -145 l 1,0,-1
320 334 m 0,34,35
 303 334 303 334 270 269.5 c 128,-1,36
 237 205 237 205 219 136 c 1,37,38
 249 110 249 110 276 110 c 0,39,40
 300 110 300 110 316.5 155 c 128,-1,41
 333 200 333 200 333 267 c 128,-1,42
 333 334 333 334 320 334 c 0,34,35
EndSplineSet
EndChar

StartChar: ydieresis
Encoding: 255 255 192
Width: 488
GlyphClass: 2
Flags: W
LayerCount: 2
Fore
SplineSet
493 385 m 0,0,1
 493 271 493 271 295 0 c 1,2,3
 195 -133 195 -133 123.5 -187.5 c 128,-1,4
 52 -242 52 -242 -22 -242 c 0,5,6
 -65 -242 -65 -242 -102.5 -222.5 c 128,-1,7
 -140 -203 -140 -203 -148 -177 c 1,8,9
 -142 -146 -142 -146 -121.5 -103 c 128,-1,10
 -101 -60 -101 -60 -81 -36 c 1,11,-1
 -55 -38 l 1,12,13
 -54 -75 -54 -75 -32.5 -99.5 c 128,-1,14
 -11 -124 -11 -124 20 -124 c 0,15,16
 64 -124 64 -124 124 -56 c 1,17,18
 85 257 85 257 63 352 c 0,19,20
 56 382 56 382 32 382 c 2,21,-1
 5 381 l 1,22,-1
 11 460 l 1,23,-1
 219 476 l 1,24,-1
 230 467 l 1,25,26
 237 349 237 349 239 133 c 1,27,-1
 253 133 l 1,28,29
 319 274 319 274 319 340 c 0,30,31
 319 390 319 390 267 409 c 1,32,-1
 278 457 l 1,33,-1
 466 484 l 1,34,35
 493 452 493 452 493 385 c 0,0,1
365 559 m 0,36,37
 294 559 294 559 294 626 c 0,38,39
 294 671 294 671 320.5 698.5 c 128,-1,40
 347 726 347 726 386 726 c 0,41,42
 461 726 461 726 461 658 c 0,43,44
 461 614 461 614 434.5 586.5 c 128,-1,45
 408 559 408 559 365 559 c 0,36,37
176 559 m 0,46,47
 106 559 106 559 106 626 c 0,48,49
 106 671 106 671 132.5 698.5 c 128,-1,50
 159 726 159 726 198 726 c 0,51,52
 273 726 273 726 273 658 c 0,53,54
 273 614 273 614 246 586.5 c 128,-1,55
 219 559 219 559 176 559 c 0,46,47
EndSplineSet
EndChar

StartChar: Amacron
Encoding: 256 256 193
Width: 661
GlyphClass: 2
Flags: W
LayerCount: 2
Fore
SplineSet
377 121 m 2,0,-1
 377 178 l 1,1,2
 312 180 312 180 304 180 c 2,3,-1
 227 175 l 1,4,5
 208 111 208 111 208 104 c 0,6,7
 208 89 208 89 231 89 c 2,8,-1
 258 89 l 1,9,-1
 265 79 l 1,10,-1
 247 -4 l 1,11,12
 156 -1 156 -1 97 -1 c 2,13,-1
 -33 -2 l 1,14,-1
 -16 85 l 1,15,16
 20 94 20 94 39 140 c 2,17,-1
 250 642 l 1,18,-1
 517 658 l 1,19,-1
 531 646 l 1,20,21
 579 261 579 261 593 153 c 0,22,23
 597 119 597 119 608 104 c 128,-1,24
 619 89 619 89 640 86 c 1,25,-1
 646 76 l 1,26,-1
 628 -3 l 1,27,28
 544 -1 544 -1 490 -1 c 1,29,-1
 302 -6 l 1,30,-1
 295 3 l 1,31,-1
 311 87 l 1,32,33
 353 92 353 92 365 98 c 128,-1,34
 377 104 377 104 377 121 c 2,0,-1
322 301 m 2,35,36
 329 301 329 301 371 303 c 1,37,-1
 361 478 l 1,38,-1
 339 478 l 1,39,-1
 274 301 l 1,40,-1
 322 301 l 2,35,36
551 823 m 1,41,-1
 560 805 l 1,42,-1
 528 696 l 1,43,-1
 263 694 l 1,44,-1
 249 709 l 1,45,-1
 281 818 l 1,46,47
 373 817 373 817 430 817 c 1,48,-1
 551 823 l 1,41,-1
EndSplineSet
EndChar

StartChar: amacron
Encoding: 257 257 194
Width: 528
GlyphClass: 2
Flags: W
LayerCount: 2
Fore
SplineSet
329 -12 m 0,0,1
 278 -12 278 -12 278 36 c 0,2,3
 278 54 278 54 303 158 c 1,4,-1
 293 158 l 1,5,6
 219 28 219 28 160 -12 c 1,7,8
 89 -12 89 -12 49 29.5 c 128,-1,9
 9 71 9 71 9 145 c 0,10,11
 9 264 9 264 90 368 c 128,-1,12
 171 472 171 472 263 472 c 1,13,-1
 335 452 l 1,14,-1
 340 472 l 1,15,-1
 359 484 l 1,16,-1
 493 472 l 1,17,-1
 501 449 l 1,18,19
 463 285 463 285 442 157 c 1,20,-1
 446 154 l 1,21,22
 454 154 454 154 498 195 c 1,23,-1
 521 191 l 1,24,-1
 541 143 l 1,25,26
 458 51 458 51 415 19.5 c 128,-1,27
 372 -12 372 -12 329 -12 c 0,0,1
206 143 m 0,28,29
 222 143 222 143 254.5 206 c 128,-1,30
 287 269 287 269 307 341 c 1,31,32
 266 367 266 367 233 367 c 0,33,34
 219 367 219 367 205.5 315.5 c 128,-1,35
 192 264 192 264 192 203.5 c 128,-1,36
 192 143 192 143 206 143 c 0,28,29
459 695 m 1,37,-1
 468 677 l 1,38,-1
 436 568 l 1,39,-1
 171 566 l 1,40,-1
 157 581 l 1,41,-1
 189 690 l 1,42,43
 281 689 281 689 338 689 c 1,44,-1
 459 695 l 1,37,-1
EndSplineSet
EndChar

StartChar: Abreve
Encoding: 258 258 195
Width: 661
GlyphClass: 2
Flags: W
LayerCount: 2
Fore
SplineSet
377 121 m 2,0,-1
 377 178 l 1,1,2
 312 180 312 180 304 180 c 2,3,-1
 227 175 l 1,4,5
 208 111 208 111 208 104 c 0,6,7
 208 89 208 89 231 89 c 2,8,-1
 258 89 l 1,9,-1
 265 79 l 1,10,-1
 247 -4 l 1,11,12
 156 -1 156 -1 97 -1 c 2,13,-1
 -33 -2 l 1,14,-1
 -16 85 l 1,15,16
 20 94 20 94 39 140 c 2,17,-1
 250 642 l 1,18,-1
 517 658 l 1,19,-1
 531 646 l 1,20,21
 579 261 579 261 593 153 c 0,22,23
 597 119 597 119 608 104 c 128,-1,24
 619 89 619 89 640 86 c 1,25,-1
 646 76 l 1,26,-1
 628 -3 l 1,27,28
 544 -1 544 -1 490 -1 c 1,29,-1
 302 -6 l 1,30,-1
 295 3 l 1,31,-1
 311 87 l 1,32,33
 353 92 353 92 365 98 c 128,-1,34
 377 104 377 104 377 121 c 2,0,-1
405 830 m 0,35,36
 484 830 484 830 523 900 c 1,37,-1
 549 893 l 1,38,-1
 581 831 l 1,39,40
 556 773 556 773 507.5 734 c 128,-1,41
 459 695 459 695 389 695 c 128,-1,42
 319 695 319 695 279.5 734 c 128,-1,43
 240 773 240 773 230 831 c 1,44,-1
 278 893 l 1,45,-1
 306 900 l 1,46,47
 315 866 315 866 342 848 c 128,-1,48
 369 830 369 830 405 830 c 0,35,36
322 301 m 2,49,50
 329 301 329 301 371 303 c 1,51,-1
 361 478 l 1,52,-1
 339 478 l 1,53,-1
 274 301 l 1,54,-1
 322 301 l 2,49,50
EndSplineSet
EndChar

StartChar: abreve
Encoding: 259 259 196
Width: 528
GlyphClass: 2
Flags: W
LayerCount: 2
Fore
SplineSet
329 -12 m 0,0,1
 278 -12 278 -12 278 36 c 0,2,3
 278 54 278 54 303 158 c 1,4,-1
 293 158 l 1,5,6
 219 28 219 28 160 -12 c 1,7,8
 89 -12 89 -12 49 29.5 c 128,-1,9
 9 71 9 71 9 145 c 0,10,11
 9 264 9 264 90 368 c 128,-1,12
 171 472 171 472 263 472 c 1,13,-1
 335 452 l 1,14,-1
 340 472 l 1,15,-1
 359 484 l 1,16,-1
 493 472 l 1,17,-1
 501 449 l 1,18,19
 463 285 463 285 442 157 c 1,20,-1
 446 154 l 1,21,22
 454 154 454 154 498 195 c 1,23,-1
 521 191 l 1,24,-1
 541 143 l 1,25,26
 458 51 458 51 415 19.5 c 128,-1,27
 372 -12 372 -12 329 -12 c 0,0,1
206 143 m 0,28,29
 222 143 222 143 254.5 206 c 128,-1,30
 287 269 287 269 307 341 c 1,31,32
 266 367 266 367 233 367 c 0,33,34
 219 367 219 367 205.5 315.5 c 128,-1,35
 192 264 192 264 192 203.5 c 128,-1,36
 192 143 192 143 206 143 c 0,28,29
223 732 m 1,37,38
 244 662 244 662 323.5 662 c 128,-1,39
 403 662 403 662 440 732 c 1,40,-1
 467 725 l 1,41,-1
 499 663 l 1,42,43
 474 605 474 605 425.5 566 c 128,-1,44
 377 527 377 527 307 527 c 128,-1,45
 237 527 237 527 197.5 566 c 128,-1,46
 158 605 158 605 148 663 c 1,47,-1
 195 725 l 1,48,-1
 223 732 l 1,37,38
EndSplineSet
EndChar

StartChar: Aogonek
Encoding: 260 260 197
Width: 661
GlyphClass: 2
Flags: W
LayerCount: 2
Fore
SplineSet
434 -220.5 m 128,-1,1
 403 -199 403 -199 403 -163.5 c 128,-1,2
 403 -128 403 -128 424 -93.5 c 128,-1,3
 445 -59 445 -59 506 -1 c 1,4,-1
 490 -1 l 1,5,-1
 302 -6 l 1,6,-1
 295 3 l 1,7,-1
 311 87 l 1,8,9
 353 92 353 92 365 98 c 128,-1,10
 377 104 377 104 377 121 c 2,11,-1
 377 178 l 1,12,13
 312 180 312 180 304 180 c 2,14,-1
 227 175 l 1,15,16
 208 111 208 111 208 104 c 0,17,18
 208 89 208 89 231 89 c 2,19,-1
 258 89 l 1,20,-1
 265 79 l 1,21,-1
 247 -4 l 1,22,23
 156 -1 156 -1 97 -1 c 2,24,-1
 -33 -2 l 1,25,-1
 -16 85 l 1,26,27
 20 94 20 94 39 140 c 2,28,-1
 250 642 l 1,29,-1
 517 658 l 1,30,-1
 531 646 l 1,31,32
 579 261 579 261 593 153 c 0,33,34
 597 119 597 119 608 104 c 128,-1,35
 619 89 619 89 640 86 c 1,36,-1
 646 76 l 1,37,-1
 628 -3 l 1,38,39
 607 -2 607 -2 583 -2 c 1,40,41
 539 -55 539 -55 525 -78.5 c 128,-1,42
 511 -102 511 -102 511 -119 c 128,-1,43
 511 -136 511 -136 520 -145.5 c 128,-1,44
 529 -155 529 -155 542 -155 c 0,45,46
 566 -155 566 -155 610 -130 c 1,47,-1
 631 -170 l 1,48,49
 569 -224 569 -224 521 -242 c 1,50,0
 465 -242 465 -242 434 -220.5 c 128,-1,1
322 301 m 2,51,52
 329 301 329 301 371 303 c 1,53,-1
 361 478 l 1,54,-1
 339 478 l 1,55,-1
 274 301 l 1,56,-1
 322 301 l 2,51,52
EndSplineSet
EndChar

StartChar: aogonek
Encoding: 261 261 198
Width: 528
GlyphClass: 2
Flags: W
LayerCount: 2
Fore
SplineSet
265.5 -220 m 128,-1,1
 234 -199 234 -199 234 -165 c 128,-1,2
 234 -131 234 -131 252.5 -98.5 c 128,-1,3
 271 -66 271 -66 321 -11 c 1,4,5
 278 -8 278 -8 278 36 c 0,6,7
 278 56 278 56 303 158 c 1,8,-1
 293 158 l 1,9,10
 219 28 219 28 160 -12 c 1,11,12
 89 -12 89 -12 49 29.5 c 128,-1,13
 9 71 9 71 9 145 c 0,14,15
 9 264 9 264 90 368 c 128,-1,16
 171 472 171 472 263 472 c 1,17,-1
 335 452 l 1,18,-1
 340 472 l 1,19,-1
 359 484 l 1,20,-1
 493 472 l 1,21,-1
 501 449 l 1,22,23
 463 285 463 285 442 157 c 1,24,-1
 446 154 l 1,25,26
 453 154 453 154 498 195 c 1,27,-1
 521 191 l 1,28,-1
 541 142 l 1,29,30
 426 25 426 25 384 -31 c 128,-1,31
 342 -87 342 -87 342 -120 c 0,32,33
 342 -135 342 -135 351 -144.5 c 128,-1,34
 360 -154 360 -154 374 -154 c 0,35,36
 401 -154 401 -154 441 -129 c 1,37,-1
 462 -169 l 1,38,39
 400 -223 400 -223 352 -241 c 1,40,0
 297 -241 297 -241 265.5 -220 c 128,-1,1
206 143 m 0,41,42
 222 143 222 143 254.5 206 c 128,-1,43
 287 269 287 269 307 341 c 1,44,45
 266 367 266 367 233 367 c 0,46,47
 219 367 219 367 205.5 315.5 c 128,-1,48
 192 264 192 264 192 203.5 c 128,-1,49
 192 143 192 143 206 143 c 0,41,42
EndSplineSet
EndChar

StartChar: Cacute
Encoding: 262 262 199
Width: 584
GlyphClass: 2
Flags: W
LayerCount: 2
Fore
SplineSet
505 27 m 1,0,1
 405 -11 405 -11 279.5 -11 c 128,-1,2
 154 -11 154 -11 86 59 c 128,-1,3
 18 129 18 129 18 259 c 0,4,5
 18 455 18 455 112 557 c 128,-1,6
 206 659 206 659 386 659 c 0,7,8
 460 659 460 659 608 633 c 1,9,-1
 614 613 l 1,10,11
 582 521 582 521 560 399 c 1,12,-1
 404 390 l 1,13,14
 415 447 415 447 415 465 c 0,15,16
 415 521 415 521 349 521 c 0,17,18
 294 521 294 521 271 463 c 128,-1,19
 248 405 248 405 248 268 c 0,20,21
 248 193 248 193 263.5 161.5 c 128,-1,22
 279 130 279 130 316 130 c 128,-1,23
 353 130 353 130 370.5 153.5 c 128,-1,24
 388 177 388 177 402 246 c 1,25,-1
 557 256 l 1,26,27
 531 139 531 139 520 43 c 1,28,-1
 505 27 l 1,0,1
515 762 m 1,29,-1
 508 746 l 1,30,31
 378 722 378 722 254 691 c 1,32,-1
 235 704 l 1,33,-1
 214 775 l 1,34,35
 317 813 317 813 463 875 c 1,36,-1
 479 870 l 1,37,-1
 515 762 l 1,29,-1
EndSplineSet
EndChar

StartChar: cacute
Encoding: 263 263 200
Width: 393
GlyphClass: 2
Flags: W
LayerCount: 2
Fore
SplineSet
313 311 m 1,0,1
 288 363 288 363 256.5 363 c 128,-1,2
 225 363 225 363 206.5 318.5 c 128,-1,3
 188 274 188 274 188 201 c 128,-1,4
 188 128 188 128 236 128 c 0,5,6
 277 128 277 128 311 202 c 1,7,-1
 332 199 l 1,8,-1
 384 141 l 1,9,10
 360 78 360 78 298.5 33 c 128,-1,11
 237 -12 237 -12 169 -12 c 128,-1,12
 101 -12 101 -12 57 36.5 c 128,-1,13
 13 85 13 85 13 167 c 0,14,15
 13 297 13 297 95.5 390 c 128,-1,16
 178 483 178 483 294 483 c 0,17,18
 360 483 360 483 403 459 c 1,19,-1
 407 441 l 1,20,-1
 356 312 l 1,21,-1
 313 311 l 1,0,1
430 659 m 1,22,-1
 428 642 l 1,23,24
 320 586 320 586 217 525 c 1,25,-1
 195 532 l 1,26,-1
 154 593 l 1,27,-1
 341 760 l 1,28,-1
 358 760 l 1,29,-1
 430 659 l 1,22,-1
EndSplineSet
EndChar

StartChar: Ccircumflex
Encoding: 264 264 201
Width: 584
GlyphClass: 2
Flags: W
LayerCount: 2
Fore
SplineSet
505 27 m 1,0,1
 405 -11 405 -11 279.5 -11 c 128,-1,2
 154 -11 154 -11 86 59 c 128,-1,3
 18 129 18 129 18 259 c 0,4,5
 18 455 18 455 112 557 c 128,-1,6
 206 659 206 659 386 659 c 0,7,8
 460 659 460 659 608 633 c 1,9,-1
 614 613 l 1,10,11
 582 521 582 521 560 399 c 1,12,-1
 404 390 l 1,13,14
 415 447 415 447 415 465 c 0,15,16
 415 521 415 521 349 521 c 0,17,18
 294 521 294 521 271 463 c 128,-1,19
 248 405 248 405 248 268 c 0,20,21
 248 193 248 193 263.5 161.5 c 128,-1,22
 279 130 279 130 316 130 c 128,-1,23
 353 130 353 130 370.5 153.5 c 128,-1,24
 388 177 388 177 402 246 c 1,25,-1
 557 256 l 1,26,27
 531 139 531 139 520 43 c 1,28,-1
 505 27 l 1,0,1
241 716 m 1,29,-1
 203 778 l 1,30,31
 279 840 279 840 385 934 c 1,32,-1
 412 934 l 1,33,34
 488 847 488 847 556 778 c 1,35,-1
 503 716 l 1,36,-1
 479 709 l 1,37,38
 452 730 452 730 379 778 c 1,39,40
 307 738 307 738 264 709 c 1,41,-1
 241 716 l 1,29,-1
EndSplineSet
EndChar

StartChar: ccircumflex
Encoding: 265 265 202
Width: 393
GlyphClass: 2
Flags: W
LayerCount: 2
Fore
SplineSet
313 311 m 1,0,1
 288 363 288 363 256.5 363 c 128,-1,2
 225 363 225 363 206.5 318.5 c 128,-1,3
 188 274 188 274 188 201 c 128,-1,4
 188 128 188 128 236 128 c 0,5,6
 277 128 277 128 311 202 c 1,7,-1
 332 199 l 1,8,-1
 384 141 l 1,9,10
 360 78 360 78 298.5 33 c 128,-1,11
 237 -12 237 -12 169 -12 c 128,-1,12
 101 -12 101 -12 57 36.5 c 128,-1,13
 13 85 13 85 13 167 c 0,14,15
 13 297 13 297 95.5 390 c 128,-1,16
 178 483 178 483 294 483 c 0,17,18
 360 483 360 483 403 459 c 1,19,-1
 407 441 l 1,20,-1
 356 312 l 1,21,-1
 313 311 l 1,0,1
146 541 m 1,22,-1
 108 603 l 1,23,24
 184 665 184 665 290 759 c 1,25,-1
 317 759 l 1,26,27
 393 672 393 672 461 603 c 1,28,-1
 408 541 l 1,29,-1
 384 534 l 1,30,31
 357 555 357 555 284 603 c 1,32,33
 212 563 212 563 169 534 c 1,34,-1
 146 541 l 1,22,-1
EndSplineSet
EndChar

StartChar: Cdotaccent
Encoding: 266 266 203
Width: 584
GlyphClass: 2
Flags: W
LayerCount: 2
Fore
SplineSet
505 27 m 1,0,1
 405 -11 405 -11 279.5 -11 c 128,-1,2
 154 -11 154 -11 86 59 c 128,-1,3
 18 129 18 129 18 259 c 0,4,5
 18 455 18 455 112 557 c 128,-1,6
 206 659 206 659 386 659 c 0,7,8
 460 659 460 659 608 633 c 1,9,-1
 614 613 l 1,10,11
 582 521 582 521 560 399 c 1,12,-1
 404 390 l 1,13,14
 415 447 415 447 415 465 c 0,15,16
 415 521 415 521 349 521 c 0,17,18
 294 521 294 521 271 463 c 128,-1,19
 248 405 248 405 248 268 c 0,20,21
 248 193 248 193 263.5 161.5 c 128,-1,22
 279 130 279 130 316 130 c 128,-1,23
 353 130 353 130 370.5 153.5 c 128,-1,24
 388 177 388 177 402 246 c 1,25,-1
 557 256 l 1,26,27
 531 139 531 139 520 43 c 1,28,-1
 505 27 l 1,0,1
464.5 715.5 m 128,-1,30
 433 683 433 683 388 683 c 0,31,32
 299 683 299 683 299 763 c 0,33,34
 299 817 299 817 330.5 849.5 c 128,-1,35
 362 882 362 882 408 882 c 0,36,37
 496 882 496 882 496 801 c 0,38,29
 496 748 496 748 464.5 715.5 c 128,-1,30
EndSplineSet
EndChar

StartChar: cdotaccent
Encoding: 267 267 204
Width: 393
GlyphClass: 2
Flags: W
LayerCount: 2
Fore
SplineSet
313 311 m 1,0,1
 288 363 288 363 256.5 363 c 128,-1,2
 225 363 225 363 206.5 318.5 c 128,-1,3
 188 274 188 274 188 201 c 128,-1,4
 188 128 188 128 236 128 c 0,5,6
 277 128 277 128 311 202 c 1,7,-1
 332 199 l 1,8,-1
 384 141 l 1,9,10
 360 78 360 78 298.5 33 c 128,-1,11
 237 -12 237 -12 169 -12 c 128,-1,12
 101 -12 101 -12 57 36.5 c 128,-1,13
 13 85 13 85 13 167 c 0,14,15
 13 297 13 297 95.5 390 c 128,-1,16
 178 483 178 483 294 483 c 0,17,18
 360 483 360 483 403 459 c 1,19,-1
 407 441 l 1,20,-1
 356 312 l 1,21,-1
 313 311 l 1,0,1
352.5 575.5 m 128,-1,23
 321 543 321 543 276 543 c 0,24,25
 187 543 187 543 187 623 c 0,26,27
 187 677 187 677 218.5 709.5 c 128,-1,28
 250 742 250 742 296 742 c 0,29,30
 384 742 384 742 384 661 c 0,31,22
 384 608 384 608 352.5 575.5 c 128,-1,23
EndSplineSet
EndChar

StartChar: Ccaron
Encoding: 268 268 205
Width: 584
GlyphClass: 2
Flags: W
LayerCount: 2
Fore
SplineSet
505 27 m 1,0,1
 405 -11 405 -11 279.5 -11 c 128,-1,2
 154 -11 154 -11 86 59 c 128,-1,3
 18 129 18 129 18 259 c 0,4,5
 18 455 18 455 112 557 c 128,-1,6
 206 659 206 659 386 659 c 0,7,8
 460 659 460 659 608 633 c 1,9,-1
 614 613 l 1,10,11
 582 521 582 521 560 399 c 1,12,-1
 404 390 l 1,13,14
 415 447 415 447 415 465 c 0,15,16
 415 521 415 521 349 521 c 0,17,18
 294 521 294 521 271 463 c 128,-1,19
 248 405 248 405 248 268 c 0,20,21
 248 193 248 193 263.5 161.5 c 128,-1,22
 279 130 279 130 316 130 c 128,-1,23
 353 130 353 130 370.5 153.5 c 128,-1,24
 388 177 388 177 402 246 c 1,25,-1
 557 256 l 1,26,27
 531 139 531 139 520 43 c 1,28,-1
 505 27 l 1,0,1
548 888 m 1,29,-1
 577 826 l 1,30,31
 488 766 488 766 386 688 c 1,32,-1
 359 688 l 1,33,34
 278 765 278 765 204 826 c 1,35,-1
 246 888 l 1,36,-1
 270 895 l 1,37,38
 293 884 293 884 392 844 c 1,39,40
 442 862 442 862 526 895 c 1,41,-1
 548 888 l 1,29,-1
EndSplineSet
EndChar

StartChar: ccaron
Encoding: 269 269 206
Width: 393
GlyphClass: 2
Flags: W
LayerCount: 2
Fore
SplineSet
313 311 m 1,0,1
 288 363 288 363 256.5 363 c 128,-1,2
 225 363 225 363 206.5 318.5 c 128,-1,3
 188 274 188 274 188 201 c 128,-1,4
 188 128 188 128 236 128 c 0,5,6
 277 128 277 128 311 202 c 1,7,-1
 332 199 l 1,8,-1
 384 141 l 1,9,10
 360 78 360 78 298.5 33 c 128,-1,11
 237 -12 237 -12 169 -12 c 128,-1,12
 101 -12 101 -12 57 36.5 c 128,-1,13
 13 85 13 85 13 167 c 0,14,15
 13 297 13 297 95.5 390 c 128,-1,16
 178 483 178 483 294 483 c 0,17,18
 360 483 360 483 403 459 c 1,19,-1
 407 441 l 1,20,-1
 356 312 l 1,21,-1
 313 311 l 1,0,1
113 671 m 1,22,-1
 166 733 l 1,23,-1
 190 740 l 1,24,25
 221 715 221 715 289 671 c 1,26,27
 361 711 361 711 405 740 c 1,28,-1
 427 733 l 1,29,-1
 465 671 l 1,30,31
 389 609 389 609 283 515 c 1,32,-1
 256 515 l 1,33,34
 181 602 181 602 113 671 c 1,22,-1
EndSplineSet
EndChar

StartChar: Dcaron
Encoding: 270 270 207
Width: 660
GlyphClass: 2
Flags: W
LayerCount: 2
Fore
SplineSet
119 531 m 0,0,1
 119 557 119 557 100 557 c 1,2,-1
 69 555 l 1,3,-1
 61 569 l 1,4,-1
 80 650 l 1,5,6
 189 647 189 647 229 647 c 1,7,-1
 382 653 l 1,8,9
 519 653 519 653 592 589 c 128,-1,10
 665 525 665 525 665 402 c 0,11,12
 665 215 665 215 559 101.5 c 128,-1,13
 453 -12 453 -12 279 -12 c 1,14,15
 187 0 187 0 126 0 c 1,16,-1
 -16 -8 l 1,17,-1
 4 85 l 1,18,19
 40 91 40 91 54.5 108 c 128,-1,20
 69 125 69 125 76 168 c 1,21,22
 119 520 119 520 119 531 c 0,0,1
343 526 m 0,23,24
 333 526 333 526 328 520.5 c 128,-1,25
 323 515 323 515 319 494.5 c 128,-1,26
 315 474 315 474 291 313.5 c 128,-1,27
 267 153 267 153 267 140 c 0,28,29
 267 113 267 113 293 113 c 0,30,31
 435 113 435 113 435 398 c 0,32,33
 435 469 435 469 414.5 497.5 c 128,-1,34
 394 526 394 526 343 526 c 0,23,24
550 888 m 1,35,-1
 579 826 l 1,36,37
 490 766 490 766 388 688 c 1,38,-1
 361 688 l 1,39,40
 280 765 280 765 206 826 c 1,41,-1
 248 888 l 1,42,-1
 272 895 l 1,43,44
 295 884 295 884 394 844 c 1,45,46
 444 862 444 862 528 895 c 1,47,-1
 550 888 l 1,35,-1
EndSplineSet
EndChar

StartChar: dcaron
Encoding: 271 271 208
Width: 703
GlyphClass: 2
Flags: W
LayerCount: 2
Fore
SplineSet
329 -12 m 0,0,1
 278 -12 278 -12 278 36 c 0,2,3
 278 54 278 54 303 158 c 1,4,-1
 293 158 l 1,5,6
 221 32 221 32 160 -12 c 1,7,8
 89 -12 89 -12 49 29.5 c 128,-1,9
 9 71 9 71 9 145 c 0,10,11
 9 264 9 264 90 368 c 128,-1,12
 171 472 171 472 263 472 c 1,13,-1
 330 453 l 1,14,15
 353 611 353 611 353 621 c 0,16,17
 353 648 353 648 320 648 c 2,18,-1
 292 648 l 1,19,-1
 304 730 l 1,20,21
 385 730 385 730 531 742 c 1,22,-1
 547 722 l 1,23,24
 475 339 475 339 442 157 c 1,25,-1
 446 154 l 1,26,27
 450 154 450 154 454.5 157.5 c 128,-1,28
 459 161 459 161 498 195 c 1,29,-1
 521 191 l 1,30,-1
 541 143 l 1,31,32
 458 51 458 51 415 19.5 c 128,-1,33
 372 -12 372 -12 329 -12 c 0,0,1
206 143 m 0,34,35
 222 143 222 143 254 205.5 c 128,-1,36
 286 268 286 268 307 341 c 1,37,38
 269 367 269 367 233 367 c 0,39,40
 219 367 219 367 205.5 315 c 128,-1,41
 192 263 192 263 192 203 c 128,-1,42
 192 143 192 143 206 143 c 0,34,35
723 689 m 1,43,-1
 730 677 l 1,44,45
 701 568 701 568 662 456 c 1,46,-1
 586 431 l 1,47,-1
 567 437 l 1,48,49
 582 534 582 534 588 675 c 1,50,-1
 723 689 l 1,43,-1
EndSplineSet
EndChar

StartChar: Dcroat
Encoding: 272 272 209
Width: 680
GlyphClass: 2
Flags: W
LayerCount: 2
Fore
SplineSet
139 531 m 0,0,1
 139 557 139 557 120 557 c 1,2,-1
 89 555 l 1,3,-1
 81 569 l 1,4,-1
 100 650 l 1,5,6
 209 647 209 647 249 647 c 1,7,-1
 402 653 l 1,8,9
 539 653 539 653 612 589 c 128,-1,10
 685 525 685 525 685 402 c 0,11,12
 685 215 685 215 579 101.5 c 128,-1,13
 473 -12 473 -12 299 -12 c 1,14,15
 207 0 207 0 146 0 c 1,16,-1
 4 -8 l 1,17,-1
 24 85 l 1,18,19
 60 91 60 91 74.5 108 c 128,-1,20
 89 125 89 125 96 168 c 1,21,-1
 108 266 l 1,22,-1
 20 266 l 1,23,-1
 11 274 l 1,24,-1
 35 363 l 1,25,-1
 120 363 l 1,26,27
 139 521 139 521 139 531 c 0,0,1
363 526 m 0,28,29
 353 526 353 526 348 520.5 c 128,-1,30
 343 515 343 515 340 499 c 128,-1,31
 337 483 337 483 318 364 c 1,32,-1
 388 367 l 1,33,-1
 395 357 l 1,34,-1
 377 267 l 1,35,-1
 304 267 l 1,36,37
 287 157 287 157 287 142 c 0,38,39
 287 113 287 113 313 113 c 0,40,41
 455 113 455 113 455 398 c 0,42,43
 455 469 455 469 434.5 497.5 c 128,-1,44
 414 526 414 526 363 526 c 0,28,29
EndSplineSet
EndChar

